<?xml version="1.0" standalone="no"?>
<!DOCTYPE svg PUBLIC "-//W3C//DTD SVG 20010904//EN"
 "http://www.w3.org/TR/2001/REC-SVG-20010904/DTD/svg10.dtd">
<svg version="1.0" xmlns="http://www.w3.org/2000/svg"
 width="70.000000pt" height="70.000000pt" viewBox="0 0 70.000000 70.000000"
 preserveAspectRatio="xMidYMid meet">
<metadata>
Created by potrace 1.11, written by Peter Selinger 2001-2013
</metadata>
<g transform="translate(0.000000,70.000000) scale(0.100000,-0.100000)"
fill="#000000" stroke="none">
<path d="M7 493 c-4 -3 -7 -116 -7 -250 l0 -243 350 0 350 0 -2 248 -3 247
-341 3 c-187 1 -343 -1 -347 -5z m561 -70 l-3 -38 -72 -3 -73 -3 0 -44 0 -45
130 0 c80 0 130 -4 130 -10 0 -6 -52 -10 -135 -10 l-135 0 0 65 0 65 70 0 70
0 0 30 c0 17 5 30 11 30 6 0 9 -16 7 -37z m-178 -88 l0 -65 -75 0 c-73 0 -75
-1 -75 -25 0 -14 -4 -25 -10 -25 -5 0 -10 16 -10 35 l0 35 73 0 c41 0 76 2 78
4 3 3 3 23 1 45 l-4 41 -174 0 c-109 0 -174 4 -174 10 0 6 68 10 185 10 l185
0 0 -65z"/>
</g>
</svg>
