<?xml version="1.0" encoding="utf-8"?>
<!-- Generator: Adobe Illustrator 23.0.4, SVG Export Plug-In . SVG Version: 6.00 Build 0)  -->
<svg version="1.1" id="Ebene_1" xmlns="http://www.w3.org/2000/svg" xmlns:xlink="http://www.w3.org/1999/xlink" x="0px" y="0px"
	 viewBox="0 0 130.5 115" style="enable-background:new 0 0 130.5 115;" xml:space="preserve">
<style type="text/css">
	.st0{fill:#878787;}
	.st1{fill:#FFFFFF;}
</style>
<rect x="46.22" y="4" class="st0" width="81.16" height="83.68"/>
<path class="st0" d="M4.51,28.82L41.35,8.19v78.66L4.51,107.48V28.82z M2.35,27.55v83.62l41.17-23.05V4.5L2.35,27.55z"/>
<g>
	<g>
		<path class="st1" d="M63.59,24.66h1.99l-7.87,20.77H55.6l2.3-5.94l-5.97-14.83h2.21l4.82,12.06L63.59,24.66z"/>
		<path class="st1" d="M57.97,45.8h-2.92l2.44-6.31l-6.12-15.21h3.02l4.56,11.41l4.38-11.41h2.79L57.97,45.8z M56.14,45.05h1.31
			l7.58-20.02h-1.19l-4.88,12.72l-5.08-12.72h-1.4l5.82,14.45L56.14,45.05z"/>
	</g>
	<g>
		<path class="st1" d="M70.61,38.71c-1.1-0.66-1.96-1.59-2.58-2.78c-0.62-1.19-0.93-2.53-0.93-4.02c0-1.49,0.31-2.83,0.92-4
			c0.61-1.17,1.46-2.09,2.55-2.75c1.09-0.66,2.33-1,3.72-1c1.39,0,2.63,0.33,3.73,1c1.1,0.66,1.96,1.59,2.58,2.77
			c0.62,1.18,0.93,2.52,0.93,4.01c0,1.49-0.31,2.83-0.92,4.01c-0.61,1.18-1.46,2.11-2.55,2.77c-1.09,0.66-2.33,1-3.72,1
			C72.95,39.7,71.71,39.37,70.61,38.71z M76.94,37.03c0.78-0.5,1.38-1.19,1.82-2.08c0.44-0.89,0.65-1.9,0.65-3.02
			c0-1.12-0.22-2.12-0.65-3.02c-0.44-0.89-1.04-1.59-1.82-2.08c-0.78-0.5-1.66-0.75-2.66-0.75c-0.97,0-1.84,0.25-2.61,0.75
			c-0.77,0.5-1.37,1.19-1.8,2.07c-0.43,0.88-0.65,1.88-0.65,3c0,1.14,0.22,2.16,0.65,3.05c0.44,0.89,1.04,1.59,1.8,2.08
			c0.77,0.5,1.64,0.75,2.61,0.75C75.28,37.78,76.16,37.53,76.94,37.03z"/>
		<path class="st1" d="M74.34,40.08c-1.45,0-2.77-0.35-3.92-1.05c-1.15-0.69-2.07-1.68-2.72-2.93c-0.65-1.24-0.97-2.65-0.97-4.2
			c0-1.55,0.32-2.95,0.96-4.17c0.64-1.23,1.54-2.2,2.69-2.9c1.14-0.7,2.46-1.05,3.91-1.05c1.45,0,2.77,0.35,3.92,1.05
			c1.15,0.69,2.07,1.67,2.72,2.91c0.65,1.23,0.97,2.64,0.97,4.19s-0.32,2.95-0.96,4.18c-0.64,1.24-1.55,2.22-2.69,2.92
			C77.11,39.73,75.8,40.08,74.34,40.08z M74.28,24.53c-1.31,0-2.5,0.32-3.52,0.94c-1.02,0.62-1.83,1.5-2.41,2.6
			c-0.58,1.11-0.87,2.4-0.87,3.82c0,1.43,0.3,2.72,0.89,3.85c0.59,1.13,1.41,2.01,2.44,2.64c1.04,0.62,2.22,0.94,3.54,0.94
			c1.31,0,2.5-0.32,3.52-0.94c1.02-0.62,1.83-1.5,2.41-2.62c0.58-1.12,0.88-2.41,0.88-3.84c0-1.42-0.3-2.71-0.89-3.84
			c-0.59-1.12-1.41-2-2.44-2.62C76.79,24.85,75.6,24.53,74.28,24.53z M74.28,38.15c-1.04,0-1.99-0.27-2.82-0.81
			c-0.82-0.53-1.47-1.28-1.94-2.23c-0.46-0.94-0.69-2.02-0.69-3.21c0-1.17,0.23-2.24,0.69-3.17c0.46-0.94,1.11-1.68,1.94-2.22
			c0.83-0.54,1.77-0.81,2.82-0.81c1.06,0,2.03,0.27,2.86,0.8c0.83,0.53,1.49,1.28,1.95,2.24c0.46,0.94,0.69,2.01,0.69,3.18
			c0,1.17-0.23,2.24-0.69,3.18c-0.46,0.95-1.12,1.7-1.95,2.23C76.31,37.88,75.35,38.15,74.28,38.15z M74.28,26.46
			c-0.9,0-1.71,0.23-2.41,0.69c-0.71,0.46-1.27,1.1-1.67,1.92c-0.41,0.83-0.61,1.78-0.61,2.83c0,1.08,0.21,2.05,0.61,2.88
			c0.4,0.82,0.97,1.48,1.67,1.93c0.7,0.45,1.51,0.69,2.41,0.69c0.92,0,1.74-0.23,2.46-0.69c0.71-0.46,1.28-1.11,1.68-1.93
			c0.41-0.83,0.61-1.79,0.61-2.85c0-1.06-0.21-2.02-0.61-2.85c-0.4-0.83-0.97-1.48-1.68-1.93C76.03,26.69,75.2,26.46,74.28,26.46z"
			/>
	</g>
	<g>
		<path class="st1" d="M97.76,24.66v14.55h-2.11v-2.42c-0.5,0.93-1.16,1.65-1.97,2.16c-0.82,0.51-1.77,0.76-2.85,0.76
			c-1.02,0-1.95-0.21-2.81-0.62c-0.86-0.41-1.54-1.03-2.05-1.83c-0.51-0.81-0.76-1.76-0.76-2.86v-9.73h2.11v8.8
			c0,2.88,1.29,4.32,3.86,4.32c1.49,0,2.61-0.53,3.36-1.58c0.75-1.06,1.12-2.48,1.12-4.26v-7.27H97.76z"/>
		<path class="st1" d="M90.82,40.08c-1.07,0-2.07-0.22-2.98-0.66c-0.92-0.44-1.66-1.11-2.21-1.97c-0.54-0.87-0.82-1.9-0.82-3.06
			V24.28h2.86v9.17c0,2.69,1.11,3.95,3.48,3.95c1.38,0,2.37-0.47,3.05-1.43c0.7-0.99,1.05-2.35,1.05-4.04v-7.65h2.86v15.3h-2.86
			v-1.56c-0.4,0.49-0.87,0.91-1.4,1.24C92.99,39.8,91.96,40.08,90.82,40.08z M85.57,25.03v9.36c0,1.02,0.24,1.92,0.7,2.66
			c0.47,0.74,1.11,1.32,1.9,1.7c0.81,0.39,1.7,0.58,2.65,0.58c1,0,1.89-0.24,2.65-0.71c0.76-0.47,1.38-1.15,1.84-2.02l0.71-1.33
			v3.55h1.36v-13.8h-1.36v6.9c0,1.85-0.4,3.36-1.19,4.48c-0.82,1.16-2.05,1.74-3.66,1.74c-1.93,0-4.23-0.81-4.23-4.7v-8.42H85.57z"
			/>
	</g>
	<g>
		<path class="st1" d="M110.72,24.37v1.93c-0.43-0.21-0.91-0.31-1.43-0.31c-0.89,0-1.72,0.25-2.49,0.75
			c-0.77,0.5-1.38,1.22-1.85,2.16c-0.46,0.94-0.7,2.06-0.7,3.34v6.96h-2.12V24.66h2.12v2.92c0.56-1.08,1.27-1.92,2.13-2.52
			c0.86-0.6,1.83-0.9,2.91-0.9C109.79,24.16,110.26,24.23,110.72,24.37z"/>
		<path class="st1" d="M104.63,39.58h-2.87v-15.3h2.87v1.98c0.45-0.6,0.96-1.11,1.54-1.51c0.92-0.64,1.97-0.97,3.12-0.97
			c0.53,0,1.05,0.08,1.54,0.23l0.26,0.08v2.8l-0.54-0.25c-0.39-0.18-0.81-0.27-1.27-0.27c-0.81,0-1.58,0.23-2.28,0.69
			c-0.71,0.46-1.28,1.13-1.72,2.01c-0.44,0.89-0.66,1.96-0.66,3.17V39.58z M102.51,38.83h1.37v-6.59c0-1.33,0.25-2.51,0.74-3.51
			c0.5-1,1.16-1.78,1.98-2.31c0.82-0.54,1.73-0.81,2.69-0.81c0.37,0,0.72,0.05,1.05,0.14v-1.1c-0.34-0.08-0.69-0.13-1.05-0.13
			c-0.99,0-1.9,0.28-2.69,0.83c-0.8,0.56-1.48,1.37-2.01,2.38l-0.71,1.36v-4.08h-1.37V38.83z"/>
	</g>
	<g>
		<path class="st1" d="M66.13,51.42c1.1,0.66,1.96,1.59,2.58,2.77c0.62,1.18,0.93,2.53,0.93,4.04c0,1.49-0.31,2.82-0.92,3.99
			c-0.61,1.17-1.46,2.09-2.55,2.75c-1.09,0.66-2.33,1-3.72,1c-1.06,0-2.03-0.23-2.91-0.7c-0.88-0.47-1.62-1.12-2.22-1.97v8.39h-2.11
			V50.92h2.11v2.15c0.6-0.83,1.34-1.48,2.21-1.94c0.87-0.47,1.82-0.7,2.86-0.7C63.79,50.42,65.03,50.76,66.13,51.42z M65.07,63.3
			c0.77-0.5,1.37-1.19,1.8-2.07c0.43-0.88,0.65-1.88,0.65-3c0-1.14-0.22-2.16-0.65-3.05c-0.43-0.89-1.04-1.59-1.8-2.08
			c-0.77-0.5-1.64-0.75-2.61-0.75c-1,0-1.88,0.25-2.66,0.75c-0.78,0.5-1.38,1.19-1.82,2.08c-0.44,0.89-0.65,1.9-0.65,3.01
			c0,1.12,0.22,2.12,0.65,3.02c0.43,0.89,1.04,1.59,1.82,2.08c0.78,0.5,1.66,0.75,2.66,0.75C63.43,64.04,64.3,63.79,65.07,63.3z"/>
		<path class="st1" d="M57.7,72.07h-2.86V50.55h2.86v1.49c0.49-0.5,1.04-0.92,1.65-1.25c0.92-0.49,1.94-0.75,3.04-0.75
			c1.45,0,2.77,0.35,3.92,1.05c1.15,0.7,2.07,1.68,2.72,2.91c0.65,1.23,0.98,2.65,0.98,4.22c0,1.55-0.32,2.95-0.96,4.17
			c-0.64,1.23-1.54,2.2-2.69,2.9c-1.14,0.7-2.46,1.05-3.91,1.05c-1.12,0-2.15-0.25-3.08-0.74c-0.62-0.33-1.18-0.75-1.67-1.26V72.07z
			 M55.59,71.32h1.36v-9.2l0.68,0.96c0.56,0.8,1.27,1.42,2.09,1.86c0.82,0.43,1.74,0.66,2.73,0.66c1.31,0,2.5-0.32,3.52-0.94
			c1.02-0.62,1.83-1.5,2.41-2.61c0.58-1.11,0.87-2.4,0.87-3.82c0-1.44-0.3-2.74-0.89-3.87c-0.59-1.12-1.41-2-2.44-2.62
			c-1.03-0.62-2.22-0.94-3.54-0.94c-0.97,0-1.87,0.22-2.68,0.66c-0.82,0.44-1.52,1.05-2.08,1.83l-0.68,0.94V51.3h-1.36V71.32z
			 M62.46,64.42c-1.06,0-2.02-0.27-2.86-0.8c-0.83-0.53-1.49-1.29-1.95-2.24c-0.46-0.94-0.69-2.01-0.69-3.18
			c0-1.17,0.23-2.24,0.69-3.18c0.46-0.95,1.12-1.7,1.95-2.24c0.83-0.53,1.8-0.8,2.86-0.8c1.04,0,1.99,0.27,2.82,0.81
			c0.82,0.53,1.47,1.28,1.94,2.23c0.46,0.94,0.69,2.02,0.69,3.21c0,1.17-0.23,2.23-0.69,3.17c-0.46,0.94-1.11,1.68-1.94,2.22
			C64.45,64.15,63.5,64.42,62.46,64.42z M62.46,52.73c-0.92,0-1.74,0.23-2.46,0.69c-0.72,0.46-1.28,1.11-1.68,1.93
			c-0.41,0.83-0.61,1.79-0.61,2.85c0,1.06,0.21,2.02,0.61,2.85c0.4,0.83,0.97,1.48,1.68,1.93c1.41,0.9,3.44,0.92,4.86,0
			c0.71-0.46,1.27-1.11,1.67-1.92c0.41-0.83,0.61-1.78,0.61-2.83c0-1.07-0.21-2.04-0.61-2.88c-0.4-0.83-0.96-1.48-1.67-1.93
			C64.16,52.96,63.35,52.73,62.46,52.73z"/>
	</g>
	<g>
		<path class="st1" d="M73.25,65.47V42.9h2.11v22.57H73.25z"/>
		<path class="st1" d="M75.74,65.85h-2.86V42.53h2.86V65.85z M73.62,65.1h1.36V43.28h-1.36V65.1z"/>
	</g>
	<g>
		<path class="st1" d="M93.39,50.92v14.55h-2.12v-2.14c-0.6,0.83-1.34,1.48-2.21,1.94c-0.87,0.47-1.82,0.7-2.86,0.7
			c-1.39,0-2.63-0.33-3.73-1c-1.1-0.66-1.96-1.59-2.58-2.77c-0.62-1.18-0.93-2.53-0.93-4.04c0-1.49,0.3-2.83,0.92-4
			c0.61-1.17,1.46-2.09,2.55-2.75c1.09-0.66,2.33-1,3.72-1c1.06,0,2.02,0.23,2.91,0.7c0.88,0.47,1.62,1.12,2.22,1.97v-2.18H93.39z
			 M88.81,63.3c0.78-0.5,1.38-1.19,1.82-2.08c0.44-0.89,0.65-1.9,0.65-3.02c0-1.12-0.22-2.12-0.65-3.01
			c-0.44-0.89-1.04-1.59-1.82-2.08c-0.78-0.5-1.66-0.75-2.66-0.75c-0.97,0-1.84,0.25-2.61,0.75c-0.77,0.5-1.37,1.19-1.8,2.07
			c-0.43,0.88-0.65,1.88-0.65,3c0,1.14,0.22,2.16,0.65,3.05c0.44,0.89,1.04,1.59,1.8,2.08c0.77,0.5,1.64,0.75,2.61,0.75
			C87.14,64.04,88.03,63.79,88.81,63.3z"/>
		<path class="st1" d="M86.21,66.35c-1.45,0-2.77-0.35-3.92-1.05c-1.15-0.69-2.06-1.67-2.72-2.91c-0.65-1.23-0.97-2.65-0.97-4.21
			c0-1.55,0.32-2.95,0.96-4.17c0.64-1.23,1.54-2.2,2.69-2.9c1.14-0.7,2.46-1.05,3.91-1.05c1.11,0,2.15,0.25,3.08,0.74
			c0.62,0.33,1.18,0.75,1.67,1.26v-1.51h2.87v15.3H90.9v-1.49c-0.49,0.5-1.04,0.92-1.66,1.25C88.33,66.1,87.31,66.35,86.21,66.35z
			 M86.15,50.8c-1.31,0-2.5,0.32-3.52,0.94c-1.02,0.62-1.83,1.5-2.41,2.61c-0.58,1.11-0.87,2.39-0.87,3.82
			c0,1.45,0.3,2.75,0.89,3.87c0.59,1.12,1.41,2,2.44,2.62c1.04,0.62,2.22,0.94,3.54,0.94c0.97,0,1.87-0.22,2.68-0.65
			c0.82-0.44,1.52-1.05,2.08-1.83l0.68-0.94v2.93h1.37V51.3h-1.37v2.98l-0.68-0.96c-0.57-0.8-1.27-1.42-2.09-1.86
			C88.06,51.02,87.14,50.8,86.15,50.8z M86.15,64.42c-1.04,0-1.99-0.27-2.82-0.81c-0.82-0.53-1.47-1.28-1.94-2.23
			c-0.46-0.94-0.69-2.02-0.69-3.21c0-1.17,0.23-2.24,0.69-3.17c0.47-0.94,1.12-1.69,1.94-2.22c0.82-0.53,1.77-0.81,2.82-0.81
			c1.06,0,2.02,0.27,2.86,0.8c0.83,0.53,1.49,1.29,1.95,2.24c0.46,0.93,0.69,2,0.69,3.18c0,1.18-0.23,2.25-0.69,3.18
			c-0.46,0.95-1.12,1.7-1.95,2.23C88.17,64.15,87.21,64.42,86.15,64.42z M86.15,52.73c-0.9,0-1.71,0.23-2.41,0.68
			c-0.7,0.46-1.27,1.1-1.67,1.92c-0.41,0.83-0.61,1.78-0.61,2.83c0,1.08,0.21,2.04,0.62,2.88c0.41,0.83,0.97,1.48,1.67,1.93
			c1.42,0.92,3.45,0.9,4.86,0c0.71-0.46,1.28-1.11,1.68-1.93c0.41-0.83,0.61-1.79,0.61-2.85c0-1.06-0.21-2.02-0.61-2.85
			c-0.4-0.83-0.97-1.48-1.68-1.93C87.89,52.96,87.07,52.73,86.15,52.73z"/>
	</g>
	<g>
		<path class="st1" d="M99.01,65.47V52.85h-2.49v-1.93h2.49V46.1h2.12v4.82h3.36v1.93h-3.36v12.62H99.01z"/>
		<path class="st1" d="M101.5,65.85h-2.87V53.22h-2.49v-2.68h2.49v-4.82h2.87v4.82h3.36v2.68h-3.36V65.85z M99.39,65.1h1.37V52.47
			h3.36V51.3h-3.36v-4.82h-1.37v4.82H96.9v1.18h2.49V65.1z"/>
	</g>
	<g>
		<path class="st1" d="M116.62,51.39c1.06,0.64,1.89,1.52,2.49,2.63c0.6,1.11,0.9,2.35,0.9,3.72c0,0.39-0.01,0.69-0.03,0.9h-11.97
			c0.08,1.49,0.57,2.77,1.46,3.82c0.89,1.06,2.1,1.59,3.64,1.59c1.24,0,2.27-0.23,3.09-0.7c0.82-0.47,1.48-1.12,1.97-1.94l1.68,1.12
			c-0.68,1.08-1.59,1.92-2.7,2.53c-1.12,0.61-2.45,0.92-3.98,0.92c-1.41,0-2.66-0.33-3.76-1c-1.1-0.66-1.96-1.59-2.58-2.77
			c-0.62-1.18-0.93-2.52-0.93-4.01c0-1.49,0.31-2.83,0.92-4.01c0.61-1.18,1.46-2.1,2.55-2.77c1.09-0.66,2.33-1,3.72-1
			C114.38,50.42,115.56,50.75,116.62,51.39z M117.89,56.89c-0.21-1.51-0.72-2.65-1.52-3.41c-0.81-0.76-1.91-1.13-3.3-1.13
			c-1.35,0-2.45,0.43-3.31,1.29c-0.86,0.86-1.41,1.94-1.63,3.25H117.89z"/>
		<path class="st1" d="M113.17,66.35c-1.47,0-2.8-0.35-3.96-1.05c-1.15-0.69-2.06-1.67-2.72-2.91c-0.65-1.23-0.98-2.64-0.98-4.18
			c0-1.54,0.32-2.95,0.96-4.18c0.64-1.24,1.55-2.22,2.69-2.92c1.14-0.7,2.46-1.05,3.91-1.05c1.37,0,2.63,0.34,3.74,1.02
			c1.11,0.67,1.99,1.61,2.62,2.77c0.63,1.16,0.95,2.47,0.95,3.9c0,0.41-0.01,0.72-0.03,0.94l-0.03,0.34h-11.9
			c0.14,1.23,0.59,2.31,1.34,3.21c0.82,0.98,1.92,1.45,3.35,1.45c1.17,0,2.15-0.22,2.91-0.65c0.76-0.43,1.38-1.04,1.84-1.81
			l0.2-0.34l2.31,1.54l-0.2,0.31c-0.72,1.13-1.67,2.03-2.84,2.66C116.16,66.02,114.76,66.35,113.17,66.35z M113.07,50.8
			c-1.31,0-2.5,0.32-3.52,0.94c-1.02,0.62-1.83,1.51-2.41,2.62c-0.58,1.12-0.88,2.41-0.88,3.84c0,1.42,0.3,2.71,0.89,3.83
			c0.59,1.12,1.41,2,2.44,2.62c1.04,0.62,2.24,0.94,3.57,0.94c1.46,0,2.74-0.29,3.8-0.87c0.95-0.52,1.74-1.22,2.36-2.1l-1.05-0.7
			c-0.5,0.73-1.14,1.31-1.9,1.75c-0.87,0.5-1.97,0.75-3.28,0.75c-1.64,0-2.96-0.58-3.92-1.72c-0.94-1.12-1.46-2.48-1.55-4.05
			l-0.02-0.4h12.01c0-0.15,0.01-0.33,0.01-0.53c0-1.3-0.29-2.49-0.86-3.54c-0.57-1.04-1.36-1.88-2.35-2.49
			C115.43,51.11,114.31,50.8,113.07,50.8z M118.32,57.27h-10.64l0.08-0.44c0.24-1.38,0.82-2.54,1.74-3.45
			c0.93-0.93,2.13-1.4,3.58-1.4c1.48,0,2.68,0.42,3.55,1.23c0.87,0.82,1.42,2.04,1.64,3.63L118.32,57.27z M108.59,56.52h8.86
			c-0.23-1.21-0.68-2.13-1.34-2.76c-0.73-0.68-1.75-1.03-3.04-1.03c-1.25,0-2.25,0.39-3.05,1.18
			C109.33,54.61,108.84,55.49,108.59,56.52z"/>
	</g>
</g>
</svg>
