<?xml version="1.0" encoding="utf-8"?>
<!-- Generator: Adobe Illustrator 23.1.1, SVG Export Plug-In . SVG Version: 6.00 Build 0)  -->
<svg version="1.1" id="Ebene_1" xmlns="http://www.w3.org/2000/svg" xmlns:xlink="http://www.w3.org/1999/xlink" x="0px" y="0px"
	 viewBox="0 0 227.5 183.5" style="enable-background:new 0 0 227.5 183.5;" xml:space="preserve">
<style type="text/css">
	.st0{fill:#FFFFFF;}
	.st1{fill:#9D9D9C;}
	.st2{fill:#9D9D9C;stroke:#FFFFFF;stroke-width:5;stroke-miterlimit:10;}
</style>
<g>
	<polyline class="st0" points="58.5,150.4 7.4,177.1 7.4,31.6 58.5,4.8 	"/>
	<polygon class="st1" points="5.4,180.7 5.4,30.5 57.2,3.2 59.4,6.8 9.5,33 9.5,173.9 57.5,148.7 59.4,152.4 	"/>
</g>
<g>
	<rect x="59.2" y="5.3" class="st0" width="141.7" height="146.1"/>
	<path class="st1" d="M202.9,153.4H57.2V3.2h145.8V153.4z M61.3,149.3h137.5V7.3H61.3V149.3z"/>
</g>
<rect x="108.8" y="18.2" class="st2" width="115" height="118.6"/>
<g>
	<g>
		<path class="st0" d="M133.8,49.1h2.8l-11.1,29.2h-3l3.2-8.4l-8.4-20.9h3.1l6.8,17L133.8,49.1z"/>
		<path class="st0" d="M125.8,78.8h-4.1l3.4-8.9l-8.6-21.4h4.2l6.4,16.1l6.2-16.1h3.9L125.8,78.8z M123.3,77.8h1.9l10.7-28.2h-1.7
			l-6.9,17.9l-7.1-17.9h-2l8.2,20.3L123.3,77.8z"/>
	</g>
	<g>
		<path class="st0" d="M143.6,68.8c-1.5-0.9-2.8-2.2-3.6-3.9c-0.9-1.7-1.3-3.6-1.3-5.7c0-2.1,0.4-4,1.3-5.6c0.9-1.6,2.1-2.9,3.6-3.9
			c1.5-0.9,3.3-1.4,5.2-1.4c2,0,3.7,0.5,5.2,1.4c1.5,0.9,2.8,2.2,3.6,3.9c0.9,1.7,1.3,3.5,1.3,5.6c0,2.1-0.4,4-1.3,5.6
			c-0.9,1.7-2.1,3-3.6,3.9c-1.5,0.9-3.3,1.4-5.2,1.4C146.9,70.2,145.2,69.8,143.6,68.8z M152.5,66.5c1.1-0.7,1.9-1.7,2.6-2.9
			c0.6-1.3,0.9-2.7,0.9-4.2c0-1.6-0.3-3-0.9-4.2c-0.6-1.3-1.5-2.2-2.6-2.9c-1.1-0.7-2.3-1-3.7-1c-1.4,0-2.6,0.3-3.7,1
			c-1.1,0.7-1.9,1.7-2.5,2.9c-0.6,1.2-0.9,2.6-0.9,4.2c0,1.6,0.3,3,0.9,4.3c0.6,1.3,1.5,2.2,2.5,2.9c1.1,0.7,2.3,1,3.7,1
			C150.2,67.5,151.4,67.2,152.5,66.5z"/>
		<path class="st0" d="M148.9,70.8c-2,0-3.9-0.5-5.5-1.5c-1.6-1-2.9-2.4-3.8-4.1c-0.9-1.7-1.4-3.7-1.4-5.9c0-2.2,0.5-4.1,1.3-5.9
			c0.9-1.7,2.2-3.1,3.8-4.1c1.6-1,3.5-1.5,5.5-1.5c2,0,3.9,0.5,5.5,1.5c1.6,1,2.9,2.4,3.8,4.1c0.9,1.7,1.4,3.7,1.4,5.9
			c0,2.2-0.5,4.2-1.3,5.9c-0.9,1.7-2.2,3.1-3.8,4.1C152.8,70.3,150.9,70.8,148.9,70.8z M148.8,48.9c-1.8,0-3.5,0.4-5,1.3
			c-1.4,0.9-2.6,2.1-3.4,3.7c-0.8,1.6-1.2,3.4-1.2,5.4c0,2,0.4,3.8,1.3,5.4c0.8,1.6,2,2.8,3.4,3.7c1.5,0.9,3.1,1.3,5,1.3
			c1.9,0,3.5-0.4,5-1.3c1.4-0.9,2.6-2.1,3.4-3.7c0.8-1.6,1.2-3.4,1.2-5.4c0-2-0.4-3.8-1.3-5.4c-0.8-1.6-2-2.8-3.4-3.7
			C152.3,49.3,150.7,48.9,148.8,48.9z M148.8,68c-1.5,0-2.8-0.4-4-1.1c-1.2-0.7-2.1-1.8-2.7-3.1c-0.6-1.3-1-2.8-1-4.5
			c0-1.6,0.3-3.1,1-4.4c0.7-1.3,1.6-2.4,2.7-3.1c1.2-0.8,2.5-1.1,4-1.1c1.5,0,2.8,0.4,4,1.1c1.2,0.7,2.1,1.8,2.7,3.1
			c0.6,1.3,1,2.8,1,4.5c0,1.6-0.3,3.2-1,4.5c-0.7,1.3-1.6,2.4-2.7,3.1C151.6,67.7,150.3,68,148.8,68z M148.8,51.6
			c-1.3,0-2.4,0.3-3.4,1c-1,0.6-1.8,1.6-2.4,2.7c-0.6,1.2-0.9,2.5-0.9,4c0,1.5,0.3,2.9,0.9,4.1c0.6,1.2,1.4,2.1,2.4,2.7
			c1,0.6,2.1,1,3.4,1c1.3,0,2.5-0.3,3.5-1c1-0.6,1.8-1.6,2.4-2.7c0.6-1.2,0.9-2.5,0.9-4c0-1.5-0.3-2.8-0.9-4
			c-0.6-1.2-1.4-2.1-2.4-2.7C151.3,51.9,150.1,51.6,148.8,51.6z"/>
	</g>
	<g>
		<path class="st0" d="M181.8,49.1v20.5h-3v-3.4c-0.7,1.3-1.6,2.3-2.8,3c-1.2,0.7-2.5,1.1-4,1.1c-1.4,0-2.7-0.3-4-0.9
			c-1.2-0.6-2.2-1.4-2.9-2.6c-0.7-1.1-1.1-2.5-1.1-4V49.1h3v12.4c0,4.1,1.8,6.1,5.4,6.1c2.1,0,3.7-0.7,4.7-2.2c1-1.5,1.6-3.5,1.6-6
			V49.1H181.8z"/>
		<path class="st0" d="M172.1,70.8c-1.5,0-2.9-0.3-4.2-0.9c-1.3-0.6-2.3-1.6-3.1-2.8c-0.8-1.2-1.2-2.7-1.2-4.3V48.6h4v12.9
			c0,3.8,1.6,5.6,4.9,5.6c1.9,0,3.3-0.7,4.3-2c1-1.4,1.5-3.3,1.5-5.7V48.6h4v21.5h-4v-2.2c-0.6,0.7-1.2,1.3-2,1.8
			C175.1,70.4,173.7,70.8,172.1,70.8z M164.7,49.6v13.2c0,1.4,0.3,2.7,1,3.7c0.7,1.1,1.6,1.9,2.7,2.4c1.1,0.5,2.4,0.8,3.7,0.8
			c1.4,0,2.7-0.3,3.7-1c1.1-0.7,1.9-1.6,2.6-2.8l1-1.8v5h1.9V49.6h-1.9v9.7c0,2.6-0.6,4.7-1.7,6.3c-1.1,1.6-2.9,2.4-5.1,2.4
			c-2.7,0-5.9-1.1-5.9-6.6V49.6H164.7z"/>
	</g>
	<g>
		<path class="st0" d="M200.1,48.7v2.7c-0.6-0.3-1.3-0.4-2-0.4c-1.3,0-2.4,0.3-3.5,1.1c-1.1,0.7-1.9,1.7-2.6,3c-0.7,1.3-1,2.9-1,4.7
			v9.8h-3V49.1h3v4.1c0.8-1.5,1.8-2.7,3-3.5c1.2-0.8,2.6-1.3,4.1-1.3C198.8,48.4,199.4,48.5,200.1,48.7z"/>
		<path class="st0" d="M191.5,70.1h-4V48.6h4v2.8c0.6-0.9,1.4-1.6,2.2-2.2c1.3-0.9,2.8-1.4,4.4-1.4c0.7,0,1.5,0.1,2.2,0.3l0.4,0.1
			v3.9l-0.7-0.3c-0.5-0.3-1.1-0.4-1.8-0.4c-1.1,0-2.2,0.3-3.2,1c-1,0.6-1.8,1.6-2.4,2.8c-0.6,1.2-0.9,2.8-0.9,4.5V70.1z M188.5,69
			h1.9v-9.3c0-1.9,0.3-3.5,1-4.9c0.7-1.4,1.6-2.5,2.8-3.2c1.2-0.8,2.4-1.1,3.8-1.1c0.5,0,1,0.1,1.5,0.2v-1.6c-0.5-0.1-1-0.2-1.5-0.2
			c-1.4,0-2.7,0.4-3.8,1.2c-1.1,0.8-2.1,1.9-2.8,3.4l-1,1.9v-5.7h-1.9V69z"/>
	</g>
	<g>
		<path class="st0" d="M137.3,86.7c1.5,0.9,2.8,2.2,3.6,3.9c0.9,1.7,1.3,3.6,1.3,5.7c0,2.1-0.4,4-1.3,5.6c-0.9,1.7-2.1,2.9-3.6,3.9
			c-1.5,0.9-3.3,1.4-5.2,1.4c-1.5,0-2.9-0.3-4.1-1c-1.2-0.7-2.3-1.6-3.1-2.8v11.8h-3V86h3v3c0.8-1.2,1.9-2.1,3.1-2.7
			c1.2-0.7,2.6-1,4-1C134,85.3,135.8,85.8,137.3,86.7z M135.8,103.4c1.1-0.7,1.9-1.7,2.5-2.9c0.6-1.2,0.9-2.6,0.9-4.2
			c0-1.6-0.3-3-0.9-4.3c-0.6-1.3-1.5-2.2-2.5-2.9c-1.1-0.7-2.3-1-3.7-1c-1.4,0-2.6,0.3-3.7,1c-1.1,0.7-1.9,1.7-2.6,2.9
			c-0.6,1.3-0.9,2.7-0.9,4.2c0,1.6,0.3,3,0.9,4.2c0.6,1.3,1.5,2.2,2.6,2.9c1.1,0.7,2.3,1,3.7,1C133.5,104.5,134.8,104.1,135.8,103.4
			z"/>
		<path class="st0" d="M125.5,115.8h-4V85.5h4v2.1c0.7-0.7,1.5-1.3,2.3-1.8c1.3-0.7,2.7-1,4.3-1c2,0,3.9,0.5,5.5,1.5
			c1.6,1,2.9,2.4,3.8,4.1c0.9,1.7,1.4,3.7,1.4,5.9c0,2.2-0.5,4.1-1.3,5.9c-0.9,1.7-2.2,3.1-3.8,4.1c-1.6,1-3.5,1.5-5.5,1.5
			c-1.6,0-3-0.4-4.3-1c-0.9-0.5-1.7-1.1-2.4-1.8V115.8z M122.5,114.7h1.9v-12.9l0.9,1.3c0.8,1.1,1.8,2,2.9,2.6
			c1.2,0.6,2.5,0.9,3.9,0.9c1.8,0,3.5-0.4,5-1.3c1.4-0.9,2.6-2.1,3.4-3.7c0.8-1.6,1.2-3.4,1.2-5.4c0-2-0.4-3.9-1.3-5.4
			c-0.8-1.6-2-2.8-3.4-3.7c-1.5-0.9-3.1-1.3-5-1.3c-1.4,0-2.6,0.3-3.8,0.9c-1.1,0.6-2.1,1.5-2.9,2.6l-0.9,1.3v-4.1h-1.9V114.7z
			 M132.2,105c-1.5,0-2.8-0.4-4-1.1c-1.2-0.8-2.1-1.8-2.7-3.1c-0.6-1.3-1-2.8-1-4.5c0-1.6,0.3-3.1,1-4.5c0.7-1.3,1.6-2.4,2.7-3.1
			c1.2-0.7,2.5-1.1,4-1.1c1.5,0,2.8,0.4,4,1.1c1.2,0.8,2.1,1.8,2.7,3.1c0.6,1.3,1,2.8,1,4.5c0,1.6-0.3,3.1-1,4.4
			c-0.6,1.3-1.6,2.4-2.7,3.1C135,104.6,133.6,105,132.2,105z M132.2,88.5c-1.3,0-2.5,0.3-3.5,1c-1,0.6-1.8,1.6-2.4,2.7
			c-0.6,1.2-0.9,2.5-0.9,4c0,1.5,0.3,2.8,0.9,4c0.6,1.2,1.4,2.1,2.4,2.7c1,0.6,2.2,1,3.5,1c1.3,0,2.4-0.3,3.4-1
			c1-0.7,1.8-1.6,2.4-2.7c0.6-1.2,0.9-2.5,0.9-4c0-1.5-0.3-2.9-0.9-4.1c-0.6-1.2-1.4-2.1-2.4-2.7C134.6,88.9,133.4,88.5,132.2,88.5z
			"/>
	</g>
	<g>
		<path class="st0" d="M147.3,106.5V74.7h3v31.8H147.3z"/>
		<path class="st0" d="M150.8,107h-4V74.2h4V107z M147.9,106h2V75.3h-2V106z"/>
	</g>
	<g>
		<path class="st0" d="M175.7,86v20.5h-3v-3c-0.8,1.2-1.9,2.1-3.1,2.7c-1.2,0.7-2.6,1-4,1c-2,0-3.7-0.5-5.2-1.4
			c-1.5-0.9-2.8-2.2-3.6-3.9c-0.9-1.7-1.3-3.6-1.3-5.7c0-2.1,0.4-4,1.3-5.6c0.9-1.6,2.1-2.9,3.6-3.9c1.5-0.9,3.3-1.4,5.2-1.4
			c1.5,0,2.8,0.3,4.1,1c1.2,0.7,2.3,1.6,3.1,2.8V86H175.7z M169.2,103.4c1.1-0.7,1.9-1.7,2.6-2.9c0.6-1.3,0.9-2.7,0.9-4.2
			c0-1.6-0.3-3-0.9-4.2c-0.6-1.3-1.5-2.2-2.6-2.9c-1.1-0.7-2.3-1-3.7-1c-1.4,0-2.6,0.3-3.7,1c-1.1,0.7-1.9,1.7-2.5,2.9
			c-0.6,1.2-0.9,2.6-0.9,4.2c0,1.6,0.3,3,0.9,4.3c0.6,1.3,1.5,2.2,2.5,2.9c1.1,0.7,2.3,1,3.7,1C166.9,104.5,168.1,104.1,169.2,103.4
			z"/>
		<path class="st0" d="M165.6,107.7c-2,0-3.9-0.5-5.5-1.5c-1.6-1-2.9-2.4-3.8-4.1c-0.9-1.7-1.4-3.7-1.4-5.9c0-2.2,0.5-4.1,1.3-5.9
			c0.9-1.7,2.2-3.1,3.8-4.1c1.6-1,3.5-1.5,5.5-1.5c1.6,0,3,0.4,4.3,1c0.9,0.5,1.7,1.1,2.4,1.8v-2.1h4V107h-4v-2.1
			c-0.7,0.7-1.5,1.3-2.4,1.8C168.6,107.4,167.1,107.7,165.6,107.7z M165.5,85.8c-1.9,0-3.5,0.4-5,1.3c-1.4,0.9-2.6,2.1-3.4,3.7
			c-0.8,1.6-1.2,3.4-1.2,5.4c0,2,0.4,3.9,1.3,5.4c0.8,1.6,2,2.8,3.4,3.7c1.5,0.9,3.1,1.3,5,1.3c1.4,0,2.6-0.3,3.8-0.9
			c1.2-0.6,2.1-1.5,2.9-2.6l0.9-1.3v4.1h1.9V86.5h-1.9v4.2l-0.9-1.3c-0.8-1.1-1.8-2-2.9-2.6C168.2,86.1,166.9,85.8,165.5,85.8z
			 M165.5,105c-1.5,0-2.8-0.4-4-1.1c-1.2-0.8-2.1-1.8-2.7-3.1c-0.6-1.3-1-2.8-1-4.5c0-1.6,0.3-3.1,1-4.4c0.7-1.3,1.6-2.4,2.7-3.1
			c1.2-0.8,2.5-1.1,4-1.1c1.5,0,2.8,0.4,4,1.1c1.2,0.8,2.1,1.8,2.7,3.1c0.6,1.3,1,2.8,1,4.5c0,1.6-0.3,3.2-1,4.5
			c-0.7,1.3-1.6,2.4-2.7,3.1C168.3,104.6,167,105,165.5,105z M165.5,88.5c-1.3,0-2.4,0.3-3.4,1c-1,0.6-1.8,1.6-2.4,2.7
			c-0.6,1.2-0.9,2.5-0.9,4c0,1.5,0.3,2.9,0.9,4.1c0.6,1.2,1.4,2.1,2.4,2.7c1,0.6,2.1,1,3.4,1c1.3,0,2.5-0.3,3.5-1
			c1-0.6,1.8-1.6,2.4-2.7c0.6-1.2,0.9-2.5,0.9-4c0-1.5-0.3-2.8-0.9-4c-0.6-1.2-1.4-2.1-2.4-2.7C168,88.9,166.8,88.5,165.5,88.5z"/>
	</g>
	<g>
		<path class="st0" d="M183.6,106.5V88.7h-3.5V86h3.5v-6.8h3V86h4.7v2.7h-4.7v17.8H183.6z"/>
		<path class="st0" d="M187.1,107h-4V89.2h-3.5v-3.7h3.5v-6.8h4v6.8h4.7v3.7h-4.7V107z M184.1,106h1.9V88.2h4.7v-1.7h-4.7v-6.8h-1.9
			v6.8h-3.5v1.7h3.5V106z"/>
	</g>
	<g>
		<path class="st0" d="M208.4,86.7c1.5,0.9,2.7,2.1,3.5,3.7c0.8,1.6,1.3,3.3,1.3,5.2c0,0.6,0,1,0,1.3h-16.8c0.1,2.1,0.8,3.9,2.1,5.4
			c1.3,1.5,3,2.2,5.1,2.2c1.7,0,3.2-0.3,4.4-1c1.2-0.7,2.1-1.6,2.8-2.7l2.4,1.6c-1,1.5-2.2,2.7-3.8,3.6c-1.6,0.9-3.4,1.3-5.6,1.3
			c-2,0-3.7-0.5-5.3-1.4c-1.5-0.9-2.8-2.2-3.6-3.9c-0.9-1.7-1.3-3.5-1.3-5.6c0-2.1,0.4-4,1.3-5.6c0.9-1.7,2.1-3,3.6-3.9
			c1.5-0.9,3.3-1.4,5.2-1.4C205.2,85.3,206.9,85.8,208.4,86.7z M210.2,94.4c-0.3-2.1-1-3.7-2.1-4.8c-1.1-1.1-2.7-1.6-4.6-1.6
			c-1.9,0-3.4,0.6-4.7,1.8c-1.2,1.2-2,2.7-2.3,4.6H210.2z"/>
		<path class="st0" d="M203.5,107.7c-2.1,0-3.9-0.5-5.6-1.5c-1.6-1-2.9-2.4-3.8-4.1c-0.9-1.7-1.4-3.7-1.4-5.9c0-2.2,0.5-4.1,1.3-5.9
			c0.9-1.7,2.2-3.1,3.8-4.1c1.6-1,3.5-1.5,5.5-1.5c1.9,0,3.7,0.5,5.3,1.4c1.6,0.9,2.8,2.3,3.7,3.9c0.9,1.6,1.3,3.5,1.3,5.5
			c0,0.6,0,1,0,1.3l0,0.5h-16.7c0.2,1.7,0.8,3.3,1.9,4.5c1.2,1.4,2.7,2,4.7,2c1.7,0,3-0.3,4.1-0.9c1.1-0.6,1.9-1.5,2.6-2.6l0.3-0.5
			l3.2,2.2l-0.3,0.4c-1,1.6-2.3,2.8-4,3.7C207.7,107.2,205.7,107.7,203.5,107.7z M203.4,85.8c-1.8,0-3.5,0.4-5,1.3
			c-1.4,0.9-2.6,2.1-3.4,3.7c-0.8,1.6-1.2,3.4-1.2,5.4c0,2,0.4,3.8,1.3,5.4c0.8,1.6,2,2.8,3.4,3.7c1.5,0.9,3.2,1.3,5,1.3
			c2.1,0,3.9-0.4,5.4-1.2c1.3-0.7,2.5-1.7,3.3-3l-1.5-1c-0.7,1-1.6,1.9-2.7,2.5c-1.2,0.7-2.8,1.1-4.6,1.1c-2.3,0-4.2-0.8-5.5-2.4
			c-1.3-1.6-2.1-3.5-2.2-5.7l0-0.5h16.9c0-0.2,0-0.5,0-0.8c0-1.8-0.4-3.5-1.2-5c-0.8-1.5-1.9-2.6-3.3-3.5
			C206.7,86.3,205.1,85.8,203.4,85.8z M210.7,94.9h-14.9l0.1-0.6c0.3-1.9,1.2-3.6,2.4-4.8c1.3-1.3,3-2,5-2c2.1,0,3.8,0.6,5,1.7
			c1.2,1.1,2,2.9,2.3,5.1L210.7,94.9z M197.1,93.9h12.5c-0.3-1.7-1-3-1.9-3.9c-1-1-2.5-1.5-4.3-1.5c-1.8,0-3.2,0.5-4.3,1.7
			C198.1,91.2,197.4,92.4,197.1,93.9z"/>
	</g>
</g>
</svg>
