<?xml version="1.0" encoding="utf-8"?>
<!-- Generator: Adobe Illustrator 19.0.0, SVG Export Plug-In . SVG Version: 6.00 Build 0)  -->
<svg version="1.1" id="Isolation_Mode" xmlns="http://www.w3.org/2000/svg" xmlns:xlink="http://www.w3.org/1999/xlink" x="0px"
	 y="0px" width="149.7px" height="185px" viewBox="0 0 149.7 185" style="enable-background:new 0 0 149.7 185;"
	 xml:space="preserve">
<style type="text/css">
	.st0{opacity:0.15;}
	.st1{fill:#FFFFFF;stroke:#000000;stroke-width:3;stroke-linecap:round;stroke-miterlimit:10;}
	.st2{fill:#8C8C8C;stroke:#000000;stroke-width:3;stroke-linecap:round;stroke-miterlimit:10;}
	.st3{fill:#B7B7B7;stroke:#000000;stroke-width:3;stroke-linecap:round;stroke-miterlimit:10;}
	.st4{fill:#92D9F8;stroke:#000000;stroke-width:3;stroke-linecap:round;stroke-miterlimit:10;}
	.st5{fill:#FFFFFF;}
	.st6{fill:none;stroke:#000000;stroke-width:3;stroke-linecap:round;stroke-miterlimit:10;}
	.st7{fill:#C2E3C8;stroke:#000000;stroke-width:3;stroke-miterlimit:10;}
	.st8{fill:#FFFFFF;stroke:#030404;stroke-width:2;stroke-linecap:round;stroke-miterlimit:10;}
	.st9{fill:#9BD2AA;stroke:#000000;stroke-width:3;stroke-miterlimit:10;}
	.st10{fill:none;stroke:#000000;stroke-width:2.5;stroke-linecap:round;stroke-miterlimit:10;}
	.st11{fill:#FFFFFF;stroke:#000000;stroke-width:3;stroke-linecap:round;stroke-linejoin:round;stroke-miterlimit:10;}
	.st12{fill:#92D9F8;stroke:#000000;stroke-width:3;stroke-linecap:round;stroke-linejoin:round;stroke-miterlimit:10;}
	.st13{font-family:'BloggerSans-Bold';}
	.st14{font-size:15.2769px;}
	.st15{fill:none;stroke:#000000;stroke-width:3;stroke-linecap:round;stroke-miterlimit:10;stroke-dasharray:7.1185,4.0677;}
</style>
<g id="XMLID_22_">
	<ellipse id="XMLID_1600_" class="st0" cx="81.5" cy="180.1" rx="53.1" ry="4.9"/>
	<path id="XMLID_1599_" class="st1" d="M128.1,179.2H35c-1.3,0-2.4-1.1-2.4-2.4v-89c0-1.3,1.1-2.4,2.4-2.4h93.1
		c1.3,0,2.4,1.1,2.4,2.4v89C130.5,178.2,129.4,179.2,128.1,179.2z"/>
	<line id="XMLID_1598_" class="st1" x1="33.8" y1="95.3" x2="129.8" y2="95.3"/>
	<g id="XMLID_1592_">
		<circle id="XMLID_1597_" cx="38.9" cy="90.4" r="1.6"/>
		<circle id="XMLID_1596_" cx="44.9" cy="90.4" r="1.6"/>
		<circle id="XMLID_1593_" cx="50.9" cy="90.4" r="1.6"/>
	</g>
	<path id="XMLID_4_" class="st2" d="M32.5,95.4v81.1c0,1.5,1.3,2.8,2.8,2.8h25V95.4H32.5z"/>
	<g id="XMLID_1_">
		<line id="XMLID_3_" class="st3" x1="38.9" y1="105.9" x2="49.2" y2="105.9"/>
		<line id="XMLID_5_" class="st3" x1="38.9" y1="114.1" x2="51" y2="114.1"/>
		<line id="XMLID_6_" class="st3" x1="38.9" y1="122.4" x2="49.6" y2="122.4"/>
		<line id="XMLID_7_" class="st3" x1="38.9" y1="130.6" x2="53.8" y2="130.6"/>
		<line id="XMLID_8_" class="st3" x1="38.9" y1="138.8" x2="48.3" y2="138.8"/>
	</g>
	<line id="XMLID_757_" class="st4" x1="98.8" y1="59.1" x2="104.3" y2="57.9"/>
	<line id="XMLID_756_" class="st4" x1="115.4" y1="42.3" x2="108.9" y2="47.5"/>
	<line id="XMLID_755_" class="st4" x1="41.8" y1="73" x2="52.2" y2="70"/>
	<line id="XMLID_754_" class="st4" x1="71.6" y1="62.9" x2="80.3" y2="71.9"/>
	<g id="XMLID_1532_">
		<g id="XMLID_1540_">
			<path id="XMLID_60_" class="st5" d="M116.6,65C116.6,65,116.6,65,116.6,65l-2.4,6.5c-0.1,0.4,0.3,0.7,0.6,0.6l6.5-2.4
				c0,0,0,0,0,0L116.6,65z"/>
			<path id="XMLID_52_" class="st6" d="M116.6,65C116.6,65,116.6,65,116.6,65l-2.4,6.5c-0.1,0.4,0.3,0.7,0.6,0.6l6.5-2.4
				c0,0,0,0,0,0L116.6,65z"/>
		</g>
		<path id="XMLID_1546_" class="st7" d="M121.1,69.5l-4.2-4.2c-0.2-0.2-0.2-0.5,0-0.7l23.2-23.2l4.9,4.9l-23.2,23.2
			C121.6,69.7,121.3,69.7,121.1,69.5z"/>
		
			<rect id="XMLID_1545_" x="138" y="43.4" transform="matrix(0.7071 0.7071 -0.7071 0.7071 73.1997 -86.8845)" class="st8" width="6.9" height="3.1"/>
		<path id="XMLID_1544_" class="st9" d="M145.4,45.8l-4.9-4.9l2.1-2.1c0.8-0.8,2.2-0.8,3.1,0l1.8,1.8c0.8,0.8,0.8,2.2,0,3.1
			L145.4,45.8z"/>
		<line id="XMLID_1533_" class="st10" x1="115.2" y1="70.5" x2="116" y2="71.3"/>
	</g>
	<g id="XMLID_1520_">
		<path id="XMLID_1531_" class="st11" d="M73.4,10.2v29c0,1.1,0.7,2.1,1.6,2.1h19.8c0.9,0,1.6-0.9,1.6-2.1v-29H73.4z"/>
		<g id="XMLID_1524_">
			<g id="XMLID_1529_">
				<line id="XMLID_1530_" class="st12" x1="79.7" y1="19.5" x2="79.7" y2="33.2"/>
			</g>
			<g id="XMLID_1527_">
				<line id="XMLID_1528_" class="st12" x1="85" y1="19.5" x2="85" y2="33.2"/>
			</g>
			<g id="XMLID_1525_">
				<line id="XMLID_1526_" class="st12" x1="90.2" y1="19.5" x2="90.2" y2="33.2"/>
			</g>
		</g>
		<g id="XMLID_1521_">
			<path id="XMLID_1523_" class="st9" d="M87.3,6.6h-4.7c-1,0-1.8-0.8-1.8-1.8v-1c0-1,0.8-1.8,1.8-1.8h4.7c1,0,1.8,0.8,1.8,1.8v1
				C89.1,5.8,88.3,6.6,87.3,6.6z"/>
			<path id="XMLID_1522_" class="st7" d="M96.9,11.7l-23.9,0c-1,0-1.9-0.8-1.9-1.9V8.5c0-1,0.8-1.9,1.9-1.9h23.9
				c1,0,1.9,0.8,1.9,1.9v1.4C98.7,10.9,97.9,11.7,96.9,11.7z"/>
		</g>
	</g>
	<g id="XMLID_1517_">
		<path id="XMLID_1519_" class="st9" d="M48.5,59.9H26.2c-5.4,0-9.9-4.4-9.9-9.9V47c0-5.4,4.4-9.9,9.9-9.9h22.4
			c5.4,0,9.9,4.4,9.9,9.9v3.1C58.4,55.5,54,59.9,48.5,59.9z"/>
		<text id="XMLID_1518_" transform="matrix(1 0 0 1 24.6367 53.6357)" class="st13 st14">Add</text>
	</g>
	<g id="XMLID_2_">
		<line id="XMLID_9_" class="st3" x1="67.3" y1="105.9" x2="82.3" y2="105.9"/>
		<line id="XMLID_15_" class="st3" x1="67.3" y1="128.6" x2="82.3" y2="128.6"/>
		<line id="XMLID_17_" class="st3" x1="67.3" y1="151" x2="120.4" y2="151"/>
		<line id="XMLID_11_" class="st3" x1="67.3" y1="159.6" x2="114" y2="159.6"/>
		<line id="XMLID_12_" class="st3" x1="67.3" y1="168.2" x2="103.4" y2="168.2"/>
		<path id="XMLID_10_" class="st6" d="M122.9,116.4H78.1c-0.3,0-0.5-0.2-0.5-0.5v-3.1c0-0.3-0.2-0.5-0.5-0.5h-9.3
			c-0.3,0-0.5,0.2-0.5,0.5v3.6"/>
		<path id="XMLID_811_" class="st9" d="M84.9,142.9H68.6c-0.7,0-1.3-0.6-1.3-1.3v-3.2c0-0.7,0.6-1.3,1.3-1.3h16.3
			c0.7,0,1.3,0.6,1.3,1.3v3.2C86.1,142.3,85.6,142.9,84.9,142.9z"/>
	</g>
	<g id="XMLID_692_">
		<g id="XMLID_696_">
			<g id="XMLID_54_">
				<path id="XMLID_58_" class="st6" d="M14.6,62.6c0,0-1,0.9-2.4,2.6"/>
				<path id="XMLID_56_" class="st15" d="M9.7,68.3c-6.8,9.5-16.2,29.1,4.1,48.4"/>
				<path id="XMLID_55_" class="st6" d="M15.3,118.1c0.8,0.8,1.7,1.5,2.7,2.3"/>
			</g>
		</g>
		<g id="XMLID_702_">
			<path id="XMLID_59_" d="M15.1,124.1c-0.5,0.6-0.2,1.2,0.6,1.2l8.6,0.5c0.8,0,1.2-0.5,0.9-1.2l-3.2-8c-0.3-0.7-0.9-0.8-1.4-0.2
				L15.1,124.1z"/>
		</g>
	</g>
</g>
</svg>
