<?xml version="1.0" encoding="utf-8"?>
<!-- Generator: Adobe Illustrator 22.1.0, SVG Export Plug-In . SVG Version: 6.00 Build 0)  -->
<svg version="1.1" id="Ebene_1" xmlns="http://www.w3.org/2000/svg" xmlns:xlink="http://www.w3.org/1999/xlink" x="0px" y="0px"
	 viewBox="0 0 212.5 53.8" style="enable-background:new 0 0 212.5 53.8;" xml:space="preserve">
<g>
	<path d="M54.1,21.6c0,0.4-0.1,0.5-0.4,0.5s-0.4-0.1-0.4-0.4c0-0.1,0-0.2,0.1-0.3c0-0.2,0.1-0.3,0.1-0.3c0-0.4-0.3-0.7-0.8-0.7
		c-0.9,0-2,0.8-3.3,2.5c-1.7,2.1-3,4.6-4,7.5c-0.7,1.9-1,3.7-1,5.3c0,2.1,0.7,3.2,2.1,3.2c0.8,0,1.4-0.4,1.9-1.3l0.1,0.1
		c-0.8,1.5-1.9,2.3-3.4,2.3c-1.9,0-2.9-1.5-2.9-4.5c0-2,0.6-4.2,1.7-6.6c1-2.2,2.2-4.1,3.7-5.7c0.3-0.4,0.7-0.7,1-1
		c0.2-0.2,0.8-0.7,1.6-1.4c-1,0.3-2.1,0.8-3.1,1.4c-1.7,1-3.3,2.2-4.8,3.6c-0.9,0.9-2.3,2.3-4.1,4.3c0.2,1.3,0.3,2.5,0.3,3.6
		c0,1.5-0.2,2.7-0.5,3.7c-0.5,1.5-1.3,2.3-2.4,2.3c-0.5,0-0.9-0.2-1.2-0.6c-0.3-0.3-0.4-0.8-0.4-1.3c0-1.6,0.9-3.5,2.7-5.9
		c-0.2-2.5-0.9-5.4-2.1-8.8c-0.4,3.2-1.2,6-2.3,8.3c-0.9,1.9-2.3,3.8-4.2,5.7c-1,1-2.4,2.2-4.2,3.5c-2.7,2-5.7,3.4-9,4.4
		c-2,0.6-3.7,0.9-5.2,0.9c-2,0-3.7-0.5-5.2-1.5c-0.9-0.6-1.7-1.4-2.3-2.5c-0.6-1.1-0.9-2.1-0.9-3.2c0-2.6,1-4.8,3-6.8
		c2.2-2.2,5.1-3.2,8.4-3.2c3.6,0,6.1,1.4,7.5,4.2c0.5,1.1,0.8,2.3,0.8,3.5c0,0.7-0.1,1.4-0.3,2.2l-0.6,0.3c0.3-1.2,0.5-2.2,0.5-3
		c0-0.9-0.2-1.9-0.6-2.9c-1.2-2.9-3.6-4.3-7.2-4.3c-1.4,0-2.7,0.2-4.1,0.7C6.5,30,5,31.1,3.8,32.6c-1.3,1.6-1.9,3.3-1.9,5.2
		c0,1.1,0.3,2.2,0.9,3.3c0.6,1,1.4,1.9,2.5,2.5c1.6,0.9,3.3,1.4,5.2,1.4c1.8,0,3.9-0.4,6.2-1.2c2.1-0.7,4.1-1.6,5.8-2.7
		c1.3-0.8,2.6-1.8,3.9-3c-1.9,1.2-4,1.8-6.3,1.8c-1.7,0-3.2-0.4-4.4-1.1c-1.4-0.9-2.1-2.2-2.1-3.8c0-1,0.3-1.8,0.8-2.5
		c0.5-0.7,1.3-1.1,2.2-1.1c0.5,0,1,0.2,1.4,0.5c0.4,0.3,0.6,0.8,0.6,1.3c0,0.7-0.3,1.1-1,1.1c-0.5,0-0.8-0.1-0.8-0.4
		c0-0.1,0-0.1,0-0.2c0-0.1,0-0.2,0-0.2c0-0.3-0.1-0.6-0.4-0.8c-0.3-0.2-0.5-0.3-0.9-0.3c-0.6,0-1.1,0.2-1.4,0.7
		c-0.3,0.5-0.5,1.1-0.5,1.7c0,1.5,0.6,2.6,1.9,3.5c1.1,0.7,2.5,1.1,4,1.1c3,0,5.7-1.1,8.2-3.4c1.8-1.6,3.2-3.7,4.3-6.2
		c1-2.3,1.6-4.8,1.8-7.4c-0.4-0.2-1.3-0.3-2.6-0.3c-1.7,0-2.9,0.1-3.6,0.3c-1.3,0.4-2,1.3-2,2.6c0,1.1,0.5,1.7,1.4,1.7
		c0.3,0,0.6-0.1,0.8-0.3s0.3-0.5,0.3-0.9c0-0.3,0.2-0.6,0.6-0.6c0.3-0.1,0.5,0,0.7,0.2c0.2,0.2,0.2,0.4,0.2,0.7
		c0,0.5-0.2,0.9-0.5,1.2c-0.4,0.3-0.8,0.4-1.3,0.4c-0.7,0-1.2-0.2-1.7-0.7c-0.5-0.5-0.7-1-0.7-1.7c0-1.4,0.7-2.5,2-3.3
		c1.2-0.7,2.5-1.1,4-1.1c0.3,0,1.5,0,3.8,0.1c1.3,3.6,2.1,6.6,2.4,9.2c2.3-2.5,4.3-4.5,6-5.8c3.3-2.6,6-3.9,8.1-3.9
		c0.5,0,1,0.1,1.4,0.4C53.8,20.6,54.1,21,54.1,21.6z M36.7,34.1c0-0.2-0.1-0.9-0.2-2.3C34.9,34.1,34,36,34,37.5c0,1,0.4,1.5,1.1,1.5
		c0.6,0,1-0.7,1.2-2.1C36.6,36,36.7,35.1,36.7,34.1z"/>
	<path d="M67.1,36.8c0,1-0.4,1.9-1.1,2.6c-0.8,0.7-1.6,1.1-2.6,1.1c-0.2,0-0.3,0-0.5,0l-0.3,0.2c0.2,0,0.3,0.1,0.5,0.1
		c1.1,0,2-0.4,2.8-1.2s1.2-1.7,1.1-2.8c0-1-0.3-1.9-0.9-2.5c-0.5-0.6-1.3-0.9-2.3-0.9c-0.5,0-0.9,0.1-1.2,0.3c-1,0.6-2,1.5-3,2.9
		c-1.6,2.1-2.8,3.1-3.6,3.1c-0.3,0-0.5-0.2-0.5-0.6c0-0.4,0.1-0.9,0.3-1.6c0.1-0.4,0.4-1.3,0.9-2.7c-1.1,1.7-1.9,2.9-2.4,3.4
		c-0.9,1-1.9,1.6-2.8,1.5c-1,0-1.5-0.5-1.5-1.5c0-1.3,0.5-2.9,1.6-4.7c-2.4,2.9-4.8,4.3-7.2,4.3c-1.2,0-2.2-0.6-3-1.7
		c-0.6-1-1-2.1-1-3.4c0-1.5,0.4-2.9,1.2-4.2c0.8-1.3,1.9-2.4,3.2-3.1c1.1-0.6,2.2-0.9,3.5-0.9c1.8,0,3.1,0.7,3.8,2
		c0.3,0.4,0.4,0.9,0.4,1.4c0,0.5-0.1,1.1-0.4,1.6c-0.3,0.6-0.7,0.9-1.2,1.1c0.4-0.2,0.8-0.6,1-1.2c0.3-0.5,0.4-1.1,0.4-1.6
		c0-0.5-0.1-0.9-0.3-1.2c-0.7-1.3-2-1.9-3.8-1.9c-1.3,0-2.6,0.4-3.7,1.1c-1.1,0.7-2.1,1.7-2.8,2.9c-0.8,1.3-1.2,2.7-1.2,4.1
		c0,1.3,0.3,2.4,0.9,3.3c0.7,1.1,1.6,1.7,2.8,1.7c1.3,0,2.9-0.7,4.6-2c1.4-1,2.5-2.2,3.5-3.4c2.4-3.3,4.4-4.9,6-4.9
		c0.4,0,0.7,0.2,1.1,0.6l0.5-0.5l1.5-0.1C60.8,28.8,60,30.6,59,33c-1.2,2.9-1.8,4.6-1.8,5.1c0,0.2,0.1,0.3,0.3,0.3
		c0.3,0,0.8-0.6,1.7-1.7c0.1-0.1,0.2-0.3,0.5-0.6c0.6-0.7,1-1.1,1.2-1.4c0.5-0.5,1-0.9,1.4-1.1c0.5-0.3,1-0.4,1.6-0.4
		c0.4,0,0.8,0.1,1.1,0.2C66.4,33.9,67.1,35,67.1,36.8z M58.9,28.3c0-0.5-0.2-0.8-0.7-0.8c-0.8,0-1.9,1.1-3.3,3.2
		c-1,1.6-1.8,3.1-2.4,4.4c-0.5,1.2-0.8,2.2-0.8,2.9c0,0.6,0.2,0.9,0.7,0.9c1,0,2.4-1.5,4-4.6C58.1,31.5,58.9,29.5,58.9,28.3z"/>
	<path d="M69.8,22.5c0,0.6-0.3,1-1,1.1c-0.2,0.1-0.6,0.1-1.3,0.2c-1.2,0.1-1.9,0.6-2,1.5c-0.1,0.5,0.1,0.9,0.6,1.4
		c0.5,0.4,1,0.6,1.5,0.6c0.4,0,0.7,0.2,0.7,0.7c0,0.3-0.4,1.3-1.1,3.1l-1.4,3.6c1.1-0.3,2-0.7,3-1.4c-0.2,0.1-0.5,0.4-0.9,0.7
		c-0.2,0.1-0.4,0.2-0.7,0.4c-0.5,0.3-1,0.5-1.5,0.6l-1,2.4c-0.2,0.4-0.3,0.7-0.3,0.8c0,0.2,0.1,0.4,0.3,0.4c0.4,0,1.2-0.9,2.5-2.6
		l0.1,0.1c-0.6,0.9-1.2,1.6-1.9,2.3c-0.9,0.9-1.7,1.3-2.2,1.3c-0.5,0-0.8-0.3-0.8-0.8c0-0.5,0.4-1.7,1.2-3.6l0.1-0.2
		c-1.1-0.3-1.6-1.1-1.5-2.6c0.1-0.6,0.6-1.5,1.7-2.6c0.1-0.1,0.8-0.7,2.1-1.8c0.4-0.3,0.8-0.5,1.2-0.7c-0.5-0.1-0.9-0.3-1.4-0.6
		c-0.5-0.4-0.7-0.8-0.7-1.2c0.1-0.6,0.5-1,1.2-1.5c0.6-0.3,1.2-0.5,1.9-0.6c-0.4-0.2-0.6-0.6-0.6-1c0-0.3,0.1-0.6,0.4-0.9
		c0.2-0.2,0.5-0.3,0.9-0.3c0.3,0,0.6,0.1,0.8,0.3S69.8,22.1,69.8,22.5z M66.2,28.8c0-0.2-0.1-0.3-0.3-0.3c-0.4,0-1.1,0.5-2.1,1.6
		c-0.6,0.6-0.9,1-1,1.2c-0.4,0.5-0.6,0.9-0.6,1.4c0,0.6,0,1.1,0.3,1.5c0.3,0.5,0.6,0.8,1.2,0.9c0.5-1.2,1-2.3,1.5-3.5l0.8-1.9
		C66.2,29.1,66.2,28.9,66.2,28.8z"/>
	<path d="M101.4,38.2c0,1.7-0.4,3.5-1.3,5.3c-0.8,1.7-1.9,3.2-3.2,4.4c-1.9,1.8-4.2,2.9-7.1,3.4c-1,0.2-1.9,0.2-2.8,0.2
		c-3.8,0-6.8-1.1-9.1-3.4c-1.1-1.1-1.9-2.1-2.4-3.1c-0.7-1.3-1.3-3.2-2-5.9c-0.2-0.7-0.6-2-1.2-3.7c-0.4,1-1,2.4-1.8,4.2
		c-0.2,0-0.5,0-1-0.1c-0.3,0-0.6,0-0.9,0c0.2-0.4,0.5-1.2,1.1-2.4c1.6-3.7,3.5-8.4,5.7-14.3c0.1-0.2,0.2-0.5,0.2-0.8
		c0.1-0.8-0.2-1.2-1-1.3c-0.1,0-0.2,0-0.4-0.1l0-0.1c0.5,0,1,0,1.5,0c0.2,0,0.5,0,0.9-0.1c1.2-0.3,1.8-1.3,1.8-3
		c0-1.9-0.8-3.5-2.5-4.7c-1.5-1.1-3.3-1.7-5.2-1.7c-2.4,0-4.4,1-6.1,2.9c-1.6,1.8-2.5,3.9-2.7,6.3c-0.1,0.5-0.1,0.9-0.1,1.1
		c0,3.5,1.4,6.3,4.2,8.4c1.7,1.3,3.3,1.9,4.7,1.9c-1.6-0.1-3.3-0.7-5.1-1.9c-1.8-1.2-2.9-2.5-3.5-3.9c-0.5-1.3-0.8-2.7-0.8-4.2
		c0-0.6,0-1.1,0-1.3c0.2-2.4,1.2-4.6,3-6.5c1.9-2,4-3,6.4-3c2,0,3.7,0.6,5.3,1.7c1.7,1.3,2.6,2.9,2.6,4.8c0,1.1-0.2,2-0.5,2.8h0
		c-0.1,0.3-0.2,0.7-0.5,1.2l-3.4,8.5c1.7-1.9,3.2-2.8,4.5-2.8c0.4,0,0.7,0.1,1,0.4c0.3,0.3,0.4,0.6,0.4,1c0,1.1-1.3,2.7-4,4.7
		c-0.5,0.3-1.3,0.9-2.5,1.6c0.1,0.3,0.4,1.5,1,3.6l1.1,4.1c0.6,2,1.2,3.1,1.7,3.6c0.4,0.3,0.8,0.4,1.2,0.4c0.7,0,1.2-0.3,1.5-0.8
		c0,0,0.1-0.4,0.2-1.2c0.1-0.5,0.3-0.8,0.7-0.8c0.5,0,0.7,0.2,0.7,0.7c0,0.4-0.2,0.8-0.6,1.3c-0.6,0.8-1.4,1.2-2.5,1.2
		c-0.7,0-1.3-0.2-1.9-0.5l0.1,0.1c0.3,0.4,0.7,0.9,1.1,1.2c2.2,2.2,5,3.4,8.4,3.4c1.1,0,2.2-0.1,3.4-0.3c4.8-0.8,8.2-3.3,10.1-7.6
		c0.7-1.6,1.1-3.3,1.1-4.9c0-2.6-0.9-4.7-2.8-6.2c-1-0.9-2.1-1.5-3.1-1.8s-2.3-0.5-3.7-0.4c-1.1,0-2.1,0.2-3,0.6l0.3-0.2
		c1.2-0.5,2.3-0.7,3-0.8c1.4-0.1,2.7,0.1,3.7,0.4c1,0.3,2.1,1,3.1,1.9C100.5,33.5,101.4,35.6,101.4,38.2z M78.9,29.8
		c0-0.4-0.1-0.7-0.4-1c-0.3-0.3-0.6-0.4-1-0.4c-0.6,0-1.3,0.4-2.1,1.2c-0.7,0.6-1.1,1.2-1.3,1.8c-0.2,0.4-0.4,1-0.8,1.9
		c0.2,0.4,0.3,0.9,0.6,1.6C77.2,32.9,78.9,31.2,78.9,29.8z"/>
	<path d="M91.2,30.1c0,1.8-1,3.4-3,4.6c-0.1,0.5-0.3,1-0.6,1.5c-1.2,2.2-2.6,3.3-4.4,3.3c-1.5,0-2.2-0.9-2.2-2.6c0-0.3,0-0.5,0-0.8
		c-0.4,0.8-0.9,1.5-1.7,2.1c-0.8,0.6-1.6,0.9-2.4,0.9c-0.3,0-0.5,0-0.8-0.1l0.2-0.1c0.2,0.1,0.5,0.1,0.7,0.1c1,0,1.9-0.5,2.7-1.4
		c0.8-0.9,1.4-1.8,1.6-2.8l0-0.1c-1.1,0.1-2-0.2-2.6-0.9c-0.7-0.7-1-1.5-1-2.6c0-1.7,1-3.1,2.9-4.3c1.7-1,3.5-1.5,5.2-1.5
		c2.1,0,3.6,0.7,4.5,2.1C90.9,28.6,91.2,29.4,91.2,30.1z M91,30c0-0.8-0.2-1.5-0.6-2.2c-0.8-1.4-2.3-2.1-4.4-2.1
		c-1.7,0-3.4,0.5-5,1.4c-1.9,1.1-2.8,2.5-2.8,4.1c0,1,0.3,1.8,1,2.5c0.6,0.6,1.5,1,2.5,1c0.4-1.1,0.9-2.2,1.7-3.3
		c-0.2,0.1-0.6,0.4-1,0.8c0.4-0.5,0.8-0.9,1.2-1.1c1.8-2.6,3.3-3.8,4.8-3.8c1,0,1.5,0.5,1.5,1.5c0,0.9-0.7,1.9-2.1,3
		c0.5,0.7,0.8,1.4,0.8,2.2c0,0.2,0,0.4-0.1,0.6C90.1,33.2,91,31.7,91,30z M88.1,33.9c0-0.7-0.2-1.4-0.7-2c-0.8,0.7-2,1.5-3.6,2.3
		c-0.6,1.1-0.8,2.2-0.8,3.2c0,1,0.4,1.6,1.2,1.6c0.6,0,1.3-0.3,2-1c0.6-0.6,1.1-1.2,1.4-1.8c0.3-0.5,0.4-0.9,0.4-1.2
		c-0.1,0.1-0.5,0.3-1,0.4c0.2-0.1,0.5-0.2,0.8-0.4c0,0,0.1-0.1,0.3-0.2C88.1,34.5,88.1,34.2,88.1,33.9z M87.1,31.4
		c-0.6-0.5-1.2-0.8-2-0.7c-0.6,1.2-1,2.3-1.3,3.4C84.8,33.5,85.9,32.6,87.1,31.4z M88.7,28.5c0-0.7-0.3-1-0.8-1
		c-0.8,0-1.7,1-2.8,3.1c0.8,0,1.5,0.2,2.1,0.8C88.2,30.2,88.7,29.3,88.7,28.5z"/>
	<path d="M142.1,17.5c0,3.4-1.1,6.8-3.2,10.2c-0.7,1.2-1.6,2.2-2.6,3.2c-0.4,0.4-1.4,1.2-2.9,2.3c-0.6,2.3-1.5,4.4-2.7,6.3
		c-3.2,5-8.6,7.9-16.3,8.7c-1.1,0.1-2.1,0.2-3,0.2c-4.6,0-8.4-1.4-11.6-4.3c-1.2-1.1-2.7-2.9-4.5-5.4c-3.2-1.8-5.6-4.1-7.1-6.9
		c-1.4-2.6-2.2-5.9-2.3-9.7c-0.1-3.7,0.6-6.8,2-9.5c1.4-2.7,3.7-5,6.8-7.1c3.1-2.1,6.8-3.2,11.2-3.5c0.7,0,1.3-0.1,1.8-0.1
		c3.7,0,6.8,0.9,9.2,2.6c2.7,1.9,4.2,4.7,4.3,8.2c2,0.4,4.1,1.4,6.1,2.8c4.5,3.1,6.8,7.2,6.8,12.4c0,1.6-0.2,3.2-0.6,4.9
		c1.3-1,2.1-1.7,2.6-2.2c0.9-0.8,1.6-1.7,2.3-2.7c2.2-3.3,3.2-6.8,3.2-10.7c0-1.7-0.2-3.2-0.7-4.2C141.7,14.4,142.1,15.9,142.1,17.5
		z M133.2,28.2c0-5.1-2-9.2-6-12.3c-1.6-1.3-3.6-2.3-6-2.9c0,2.2-0.9,4.8-2.8,7.9c-0.6,1.1-1.1,2.4-1.5,4.1
		c-0.1,0.6-0.3,2.1-0.6,4.4c-0.3,2.7-0.7,4.8-1,6.3c6.8-6.3,10.2-10.7,10.2-13.2c0-0.6-0.3-0.9-0.8-1c-0.5-0.1-0.8-0.4-0.8-0.8
		c0-0.4,0.2-0.8,0.5-1c0.3-0.3,0.7-0.4,1.1-0.4c0.5,0,0.9,0.2,1.2,0.7c0.3,0.4,0.4,0.9,0.4,1.4c0,2.2-2.5,5.8-7.4,10.7
		c-1,0.9-2.4,2.4-4.3,4.3c-1.3,1.3-2.6,2.5-4.1,3.5c1.2-1.6,2.1-4.6,2.8-9.1c0.3-2.4,0.7-4.2,1-5.5c-1,1.3-2.3,3.2-3.9,5.6
		c-1.4,2.1-2.8,4-4.1,5.5c-2.2,2.5-3.9,3.7-5.2,3.8c1-0.9,1.8-2,2.3-3.5c0.3-0.9,0.7-2.3,1-4.1c0.1-0.4,0.3-2.2,0.8-5.5
		c0-0.3,0.2-1.1,0.4-2.4c0.3-1.2,0.4-2,0.4-2.2c0-0.6-0.4-1.1-1.1-1.4c-0.6-0.3-1.2-0.4-1.9-0.4c-1.2,0-2.2,0.4-3.1,1.2
		c-0.9,0.8-1.3,1.7-1.3,2.9c0,0.8,0.3,1.4,0.8,1.6c0.3,0.1,0.5,0.2,0.7,0.1c0.3-0.1,0.4-0.4,0.4-0.8c0-0.4,0.1-0.7,0.5-0.8
		c0.1,0,0.2,0,0.2,0c0.6,0,0.9,0.4,0.9,1.3c0,0.5-0.2,1-0.7,1.3c-0.5,0.3-1,0.5-1.5,0.5c-1.5,0-2.2-0.9-2.2-2.8
		c0-0.4,0.1-0.9,0.2-1.6c0.4-1.7,1.1-3.4,2.1-4.9c1.6-2.4,3.6-4.1,6.1-5.2c2.2-0.9,4.8-1.4,7.9-1.4c0.7,0,1.4,0,2,0.1
		c0.2,0,1.4,0.2,3.7,0.6c-0.6-3.4-2-5.9-4.4-7.5c-2.1-1.4-5-2.1-8.7-2.1c-3.8,0-7.4,0.8-10.6,2.3c-3.5,1.6-6.2,4-8.1,7.1
		c-1.6,2.6-2.4,5.7-2.4,9.2c0,6.7,2.9,12.1,8.6,15.9c-0.6-1.5-0.8-3.1-0.8-4.9c0-1,0.2-2,0.5-3.2c0.4-1.3,0.9-2.2,1.6-2.7
		c-1,1.3-1.5,3.4-1.5,6.2c0,1.9,0.4,3.6,1.2,5.2c4.1,2.4,8.6,3.6,13.4,3.6c3.9,0,8-0.8,12.2-2.3c4-1.4,7.7-3.4,11-5.8
		C132.9,31.7,133.2,30,133.2,28.2z M132.3,34.1c-2.8,2-6.2,3.7-10,5.1l-2.8,1c-1,0.3-2,0.6-3,0.9c-2.3,0.6-4.8,0.8-7.5,0.8
		c-2.8,0-5.7-0.4-8.7-1.2c-1.3-0.3-2.6-0.8-3.7-1.4l0.1,0.1c1.9,3.7,5.1,6.3,9.8,7.7c1.5,0.5,3.2,0.7,5.1,0.7c1,0,2.2-0.1,3.5-0.2
		c6.9-0.7,11.8-3.3,14.6-7.7C130.7,38.2,131.6,36.2,132.3,34.1z M120.6,13.9c0-0.3,0-0.7-0.1-1c-0.9-0.2-2.1-0.4-3.5-0.6
		c-0.5-0.1-1.3-0.1-2.2-0.1c-4.7,0-8.6,1.4-11.6,4.2c-1.2,1.1-2.1,2.1-2.7,3.1c-0.7,1.1-1.2,2.4-1.4,3.8c1.1-2,3.3-3,6.5-3
		c0.4,0,1,0,1.8,0.1c0.8,0.1,1.4,0.1,1.8,0.1c0.3,0,0.6,0,1-0.1l0.1,0.1c-1,1-1.9,3.7-2.5,8c-0.5,3.2-0.9,5.8-1.4,7.7
		c1.4-1.5,3.3-3.9,5.4-7.3c2.3-3.6,4.1-6.1,5.3-7.5C119.4,18.9,120.6,16.4,120.6,13.9z"/>
	<path d="M134.6,30.1c0,1.8-1,3.4-3,4.6c-0.1,0.5-0.3,1-0.6,1.5c-1.2,2.2-2.6,3.3-4.4,3.3c-1.5,0-2.2-0.9-2.2-2.6c0-0.3,0-0.5,0-0.8
		c-0.4,0.8-0.9,1.5-1.7,2.1c-0.8,0.6-1.6,0.9-2.4,0.9c-0.3,0-0.5,0-0.8-0.1l0.2-0.1c0.2,0.1,0.5,0.1,0.7,0.1c1,0,1.9-0.5,2.7-1.4
		c0.8-0.9,1.4-1.8,1.6-2.8l0-0.1c-1.1,0.1-2-0.2-2.6-0.9c-0.7-0.7-1-1.5-1-2.6c0-1.7,1-3.1,2.9-4.3c1.7-1,3.5-1.5,5.2-1.5
		c2.1,0,3.6,0.7,4.5,2.1C134.4,28.6,134.6,29.4,134.6,30.1z M134.4,30c0-0.8-0.2-1.5-0.6-2.2c-0.8-1.4-2.3-2.1-4.4-2.1
		c-1.7,0-3.4,0.5-5,1.4c-1.9,1.1-2.8,2.5-2.8,4.1c0,1,0.3,1.8,1,2.5c0.6,0.6,1.5,1,2.5,1c0.4-1.1,0.9-2.2,1.7-3.3
		c-0.2,0.1-0.6,0.4-1,0.8c0.4-0.5,0.8-0.9,1.2-1.1c1.8-2.6,3.3-3.8,4.8-3.8c1,0,1.5,0.5,1.5,1.5c0,0.9-0.7,1.9-2.1,3
		c0.5,0.7,0.8,1.4,0.8,2.2c0,0.2,0,0.4-0.1,0.6C133.5,33.2,134.4,31.7,134.4,30z M131.6,33.9c0-0.7-0.2-1.4-0.7-2
		c-0.8,0.7-2,1.5-3.6,2.3c-0.6,1.1-0.8,2.2-0.8,3.2c0,1,0.4,1.6,1.2,1.6c0.6,0,1.3-0.3,2-1c0.6-0.6,1.1-1.2,1.4-1.8
		c0.3-0.5,0.4-0.9,0.4-1.2c-0.1,0.1-0.5,0.3-1,0.4c0.2-0.1,0.5-0.2,0.8-0.4c0,0,0.1-0.1,0.3-0.2C131.5,34.5,131.6,34.2,131.6,33.9z
		 M130.5,31.4c-0.6-0.5-1.2-0.8-2-0.7c-0.6,1.2-1,2.3-1.3,3.4C128.3,33.5,129.4,32.6,130.5,31.4z M132.1,28.5c0-0.7-0.3-1-0.8-1
		c-0.8,0-1.7,1-2.8,3.1c0.8,0,1.5,0.2,2.1,0.8C131.6,30.2,132.1,29.3,132.1,28.5z"/>
	<path d="M144.7,28.6c0,0.8-0.4,1.1-1.1,1.1c-0.3,0-0.5-0.2-0.7-0.7c-0.2-0.6-0.6-0.8-1-0.8c-0.3,0-0.6,0.2-1,0.6
		c-0.9,0.8-1.7,2.2-2.6,4.1c-0.4,1-1.1,2.6-2,4.6c-0.2,0.4-0.4,1.1-0.8,2c-0.8,0.1-1.5,0.4-2.1,0.9c-0.4,0.4-1.1,1.1-1.9,1.9
		c-1.5,1.4-3.4,2.5-5.7,3.2c-2.1,0.7-4.3,1-6.5,1c-5.6,0-9.3-1.7-11.3-5c-0.5-0.9-0.8-1.7-0.8-2.6c0-1.3,0.6-2.5,1.7-3.5
		c1-0.9,2.2-1.4,3.6-1.7c-3.3,1.3-4.9,2.9-4.9,5c0,0.8,0.3,1.6,0.8,2.5c1.9,3.3,5.6,5,11,5c2.1,0,4.1-0.3,6-0.9
		c2.1-0.7,3.9-1.6,5.3-2.8c1.5-1.3,2.7-2.6,3.3-3.8c0.7-1.6,1.8-4.2,3.2-7.9c0.1-0.3,0.3-0.7,0.6-1.4c0.1-0.1,0.2-0.5,0.3-1
		c0-0.1,0-0.2-0.2-0.3l-0.3-0.1c-0.4,0-1.4,1.1-2.9,3.2l-0.1,0c0.6-0.9,1.2-1.7,1.9-2.5c1-1,1.7-1.6,2.3-1.6c0.5,0,0.7,0.3,0.7,0.9
		c0,0.6-0.1,1.4-0.3,2.3c0.8-1.1,1.5-1.9,1.9-2.3c0.7-0.6,1.4-0.9,2.1-0.9c0.4,0,0.7,0.1,0.9,0.4C144.6,28,144.7,28.3,144.7,28.6z"
		/>
	<path d="M175.8,38.2c0,1.7-0.4,3.5-1.3,5.3c-0.8,1.7-1.9,3.2-3.2,4.4c-1.9,1.8-4.2,2.9-7.1,3.4c-1,0.2-1.9,0.2-2.8,0.2
		c-3.8,0-6.8-1.1-9.1-3.4c-1.1-1.1-1.9-2.1-2.4-3.1c-0.7-1.3-1.3-3.2-2-5.9c-0.2-0.7-0.6-2-1.2-3.7c-0.4,1-1,2.4-1.8,4.2
		c-0.2,0-0.5,0-1-0.1c-0.3,0-0.6,0-0.9,0c0.2-0.4,0.5-1.2,1.1-2.4c1.6-3.7,3.5-8.4,5.7-14.3c0.1-0.2,0.2-0.5,0.2-0.8
		c0.1-0.8-0.2-1.2-1-1.3c-0.1,0-0.2,0-0.4-0.1l0-0.1c0.5,0,1,0,1.5,0c0.2,0,0.5,0,0.9-0.1c1.2-0.3,1.8-1.3,1.8-3
		c0-1.9-0.8-3.5-2.5-4.7c-1.5-1.1-3.3-1.7-5.2-1.7c-2.4,0-4.4,1-6.1,2.9c-1.6,1.8-2.5,3.9-2.7,6.3c-0.1,0.5-0.1,0.9-0.1,1.1
		c0,3.5,1.4,6.3,4.2,8.4c1.7,1.3,3.3,1.9,4.7,1.9c-1.6-0.1-3.3-0.7-5.1-1.9c-1.8-1.2-2.9-2.5-3.5-3.9c-0.5-1.3-0.8-2.7-0.8-4.2
		c0-0.6,0-1.1,0-1.3c0.2-2.4,1.2-4.6,3-6.5c1.9-2,4-3,6.4-3c2,0,3.7,0.6,5.3,1.7c1.7,1.3,2.6,2.9,2.6,4.8c0,1.1-0.2,2-0.5,2.8h0
		c-0.1,0.3-0.2,0.7-0.5,1.2l-3.4,8.5c1.7-1.9,3.2-2.8,4.5-2.8c0.4,0,0.7,0.1,1,0.4c0.3,0.3,0.4,0.6,0.4,1c0,1.1-1.3,2.7-4,4.7
		c-0.5,0.3-1.3,0.9-2.5,1.6c0.1,0.3,0.4,1.5,1,3.6l1.1,4.1c0.6,2,1.2,3.1,1.7,3.6c0.4,0.3,0.8,0.4,1.2,0.4c0.7,0,1.2-0.3,1.5-0.8
		c0,0,0.1-0.4,0.2-1.2c0.1-0.5,0.3-0.8,0.7-0.8c0.5,0,0.7,0.2,0.7,0.7c0,0.4-0.2,0.8-0.6,1.3c-0.6,0.8-1.4,1.2-2.5,1.2
		c-0.7,0-1.3-0.2-1.9-0.5l0.1,0.1c0.3,0.4,0.7,0.9,1.1,1.2c2.2,2.2,5,3.4,8.4,3.4c1.1,0,2.2-0.1,3.4-0.3c4.8-0.8,8.2-3.3,10.1-7.6
		c0.7-1.6,1.1-3.3,1.1-4.9c0-2.6-0.9-4.7-2.8-6.2c-1-0.9-2.1-1.5-3.1-1.8s-2.3-0.5-3.7-0.4c-1.1,0-2.1,0.2-3,0.6l0.3-0.2
		c1.2-0.5,2.3-0.7,3-0.8c1.4-0.1,2.7,0.1,3.7,0.4c1,0.3,2.1,1,3.1,1.9C174.9,33.5,175.8,35.6,175.8,38.2z M153.3,29.8
		c0-0.4-0.1-0.7-0.4-1c-0.3-0.3-0.6-0.4-1-0.4c-0.6,0-1.3,0.4-2.1,1.2c-0.7,0.6-1.1,1.2-1.3,1.8c-0.2,0.4-0.4,1-0.8,1.9
		c0.2,0.4,0.3,0.9,0.6,1.6C151.6,32.9,153.3,31.2,153.3,29.8z"/>
	<path d="M192,39.7c-0.3,0.4-0.7,1.1-1.5,2c-1.4,1.6-3.5,3.5-6.3,5.5c-3.4,2.4-6.2,3.8-8.4,4.2c-0.4,0.1-0.9,0.1-1.3,0.1
		c-2.5,0-4.4-1.1-5.6-3.2c-0.6-1.1-0.9-2.4-0.9-3.9c0-1.3,0.2-2.7,0.6-4.1c0.2-0.7,0.7-2,1.5-3.8c-1.3,1.8-2.4,2.8-3.2,3.1
		c-0.2,0.1-0.4,0.1-0.7,0.1c-0.3,0-0.6-0.1-0.9-0.3c-0.3-0.2-0.5-0.5-0.5-0.8c0-0.6,0.2-0.9,0.7-0.9c0.4,0,0.6,0.2,0.6,0.7
		c0,0.1,0,0.2-0.1,0.4c-0.1,0.5,0,0.7,0.4,0.7c0.9,0,1.9-1.5,3-4.6c0.9-2.5,1.4-4.3,1.4-5.4c0-0.8-0.2-1.2-0.6-1.2
		c-0.6,0-1.1,0.3-1.6,0.8c-2.2,2.4-4.4,5.8-6.7,10.4h-1.6c0.7-1.5,1.5-3.3,2.4-5.5c1.1-2.7,1.6-4.4,1.6-5c0-0.4-0.1-0.7-0.3-0.8
		c-0.8-0.2-2.2,1.4-4.3,4.7c-1,1.6-1.9,3.1-2.6,4.6c-0.2,0.4-0.5,1.1-1,2.2c-0.2-0.1-0.4-0.1-0.6-0.1h-0.9c-1.7,0.3-3.9,0.4-6.5,0.1
		c-2.8-0.3-4.2-1.1-4.2-2.6c0-0.7,0.3-1.5,1-2.3c0.6-0.7,1.2-1.3,1.9-1.7c0.7-0.4,1.1-0.6,1.1-0.6c-0.2,0.1-0.5,0.4-1.1,0.7
		c-0.7,0.4-1.3,0.9-1.8,1.7c-0.6,0.8-0.9,1.5-0.9,2.2c0,1.3,1.4,2.1,4.1,2.3c2.5,0.2,4.7,0.2,6.5-0.1l1.5-4.1l1.2-3
		c0.7-1.7,1-2.7,1-3c0-0.2-0.1-0.3-0.2-0.4c-0.4-0.1-0.9,0.3-1.6,1.4c-0.3,0.5-0.7,1.1-1.1,1.8l0,0c1.1-2.7,2.2-4.1,3.5-4.2
		c0.2,0,0.4,0.1,0.6,0.2c0.1,0.2,0.2,0.4,0.2,0.6c0,0.9-0.5,2.3-1.3,4.3c-0.1,0.3,0,0.4,0.3,0.4c0.1,0,0.2-0.1,0.3-0.2
		c0.3-0.4,0.5-0.9,0.8-1.3c0.5-0.7,1-1.4,1.5-2c1.3-1.6,2.6-2.5,3.7-2.5c0.7,0,1,0.3,1,0.9c0,0.5-0.3,1.6-0.8,3.3
		c-0.2,0.3-0.4,0.8-0.6,1.4c0,0.1,0,0.2,0.1,0.2c0.1,0,0.1,0,0.3,0c0.8-1.4,1.8-2.7,2.8-3.7c1.3-1.4,2.4-2.1,3.3-2.1
		c0.8,0,1.2,0.6,1.2,1.9c0,1.5-0.4,3.2-1.2,5.3c-0.3,0.7-0.7,1.7-1.3,3c-0.9,1.9-1.3,3.8-1.3,5.8c0,1.7,0.4,3.2,1.1,4.4
		c1.2,2,3,3.1,5.6,3.1c0.8,0,1.6-0.1,2.5-0.3c2.9-0.7,6.9-3.5,11.9-8.4C190,41.7,190.8,40.9,192,39.7z"/>
	<path d="M190,36.8c0,1-0.4,1.9-1.1,2.6c-0.8,0.7-1.6,1.1-2.6,1.1c-0.2,0-0.3,0-0.5,0l-0.3,0.2c0.2,0,0.3,0.1,0.5,0.1
		c1.1,0,2-0.4,2.8-1.2s1.2-1.7,1.1-2.8c0-1-0.3-1.9-0.9-2.5c-0.5-0.6-1.3-0.9-2.3-0.9c-0.5,0-0.9,0.1-1.2,0.3c-1,0.6-2,1.5-3,2.9
		c-1.6,2.1-2.8,3.1-3.6,3.1c-0.3,0-0.5-0.2-0.5-0.6c0-0.4,0.1-0.9,0.3-1.6c0.1-0.4,0.4-1.3,0.9-2.7c-1.1,1.7-1.9,2.9-2.4,3.4
		c-0.9,1-1.9,1.6-2.8,1.5c-1,0-1.5-0.5-1.5-1.5c0-1.3,0.5-2.9,1.6-4.7c-2.4,2.9-4.8,4.3-7.2,4.3c-1.2,0-2.2-0.6-3-1.7
		c-0.6-1-1-2.1-1-3.4c0-1.5,0.4-2.9,1.2-4.2c0.8-1.3,1.9-2.4,3.2-3.1c1.1-0.6,2.2-0.9,3.5-0.9c1.8,0,3.1,0.7,3.8,2
		c0.3,0.4,0.4,0.9,0.4,1.4c0,0.5-0.1,1.1-0.4,1.6c-0.3,0.6-0.7,0.9-1.2,1.1c0.4-0.2,0.8-0.6,1-1.2c0.3-0.5,0.4-1.1,0.4-1.6
		c0-0.5-0.1-0.9-0.3-1.2c-0.7-1.3-2-1.9-3.8-1.9c-1.3,0-2.6,0.4-3.7,1.1c-1.1,0.7-2.1,1.7-2.8,2.9c-0.8,1.3-1.2,2.7-1.2,4.1
		c0,1.3,0.3,2.4,0.9,3.3c0.7,1.1,1.6,1.7,2.8,1.7c1.3,0,2.9-0.7,4.6-2c1.4-1,2.5-2.2,3.5-3.4c2.4-3.3,4.4-4.9,6-4.9
		c0.4,0,0.7,0.2,1.1,0.6l0.5-0.5l1.5-0.1c-0.7,1.4-1.5,3.3-2.5,5.6c-1.2,2.9-1.8,4.6-1.8,5.1c0,0.2,0.1,0.3,0.3,0.3
		c0.3,0,0.8-0.6,1.7-1.7c0.1-0.1,0.2-0.3,0.5-0.6c0.6-0.7,1-1.1,1.2-1.4c0.5-0.5,1-0.9,1.4-1.1c0.5-0.3,1-0.4,1.6-0.4
		c0.4,0,0.8,0.1,1.1,0.2C189.3,33.9,190,35,190,36.8z M181.8,28.3c0-0.5-0.2-0.8-0.7-0.8c-0.8,0-1.9,1.1-3.3,3.2
		c-1,1.6-1.8,3.1-2.4,4.4c-0.5,1.2-0.8,2.2-0.8,2.9c0,0.6,0.2,0.9,0.7,0.9c1,0,2.4-1.5,4-4.6C181,31.5,181.8,29.5,181.8,28.3z"/>
	<path d="M197.2,31.4c0,1.7-0.4,3.3-1.1,4.8c-1.4,2.9-3.4,5.2-5.9,7c-3.4,2.4-6.8,3.8-10,4c-2.2,0.2-4.1-0.5-5.8-1.9
		c-1.7-1.4-2.5-3.2-2.5-5.4c0-0.4,0-0.8,0.1-1.2c0,0.3,0,0.7,0,1c0,2.1,0.8,3.8,2.3,5.1c1.5,1.3,3.3,1.9,5.4,1.9
		c3.4,0,6.8-1.1,10-3.4c2.6-1.8,4.6-4.2,6.1-7.1c0.9-1.7,1.3-3.4,1.3-5.1c0-0.3,0-0.5,0-0.7c-0.2,2.1-1.1,4.2-2.6,6.3
		c-1.3,1.9-2.6,2.9-3.7,2.9c-0.3,0-0.6-0.1-0.9-0.3c-0.3-0.2-0.4-0.5-0.4-0.8c0-0.7,0.3-1.1,0.9-1.1c0.5,0,0.7,0.3,0.7,0.8
		c0,0.1,0,0.3-0.1,0.5s-0.1,0.3-0.1,0.4c0,0.3,0.2,0.4,0.5,0.4c1,0,2-1.7,3-5c0.6-1.9,0.9-3.4,0.9-4.5c0-0.4-0.1-0.8-0.3-1.2
		c-0.2-0.5-0.5-0.7-0.9-0.7c-1,0-2.3,1.4-3.9,4.3c-0.3,0.5-0.9,1.9-1.8,4.1l-1.3,3.1c0.1,0-0.5,0-1.6,0c0-0.1,0.1-0.3,0.1-0.5
		l2.9-7.7c0.6-1.5,0.8-2.3,0.8-2.5c0-0.3-0.1-0.4-0.3-0.4c-0.3,0-0.8,0.4-1.4,1.2c-0.6,0.7-1,1.3-1.3,1.9l-0.1,0
		c0.5-1.3,1.4-2.5,2.8-3.5c0.6-0.5,1.1-0.7,1.4-0.7c0.4,0,0.7,0.3,0.7,0.9c0,0.7-0.3,1.8-0.8,3.4c0,0.1,0,0.2,0.1,0.2
		c0.1,0,0.1,0,0.2-0.1c1.7-3,3.2-4.5,4.6-4.5c1,0,1.7,0.7,2.1,2.2C197.1,30.1,197.2,30.7,197.2,31.4z"/>
	<path d="M210.5,31.4c0,1.7-0.4,3.3-1.1,4.8c-1.4,2.9-3.4,5.2-5.9,7c-3.4,2.4-6.8,3.8-10,4c-2.2,0.2-4.1-0.5-5.8-1.9
		c-1.7-1.4-2.5-3.2-2.5-5.4c0-0.4,0-0.8,0.1-1.2c0,0.3,0,0.7,0,1c0,2.1,0.8,3.8,2.3,5.1c1.5,1.3,3.3,1.9,5.4,1.9
		c3.4,0,6.8-1.1,10-3.4c2.6-1.8,4.6-4.2,6.1-7.1c0.9-1.7,1.3-3.4,1.3-5.1c0-0.3,0-0.5,0-0.7c-0.2,2.1-1.1,4.2-2.6,6.3
		c-1.3,1.9-2.6,2.9-3.7,2.9c-0.3,0-0.6-0.1-0.9-0.3s-0.4-0.5-0.4-0.8c0-0.7,0.3-1.1,0.9-1.1c0.5,0,0.7,0.3,0.7,0.8
		c0,0.1,0,0.3-0.1,0.5S204,39,204,39.1c0,0.3,0.2,0.4,0.5,0.4c1,0,2-1.7,3-5c0.6-1.9,0.9-3.4,0.9-4.5c0-0.4-0.1-0.8-0.3-1.2
		c-0.2-0.5-0.5-0.7-0.9-0.7c-1,0-2.3,1.4-3.9,4.3c-0.3,0.5-0.9,1.9-1.8,4.1l-1.3,3.1c0.1,0-0.5,0-1.6,0c0-0.1,0.1-0.3,0.1-0.5
		l2.9-7.7c0.6-1.5,0.8-2.3,0.8-2.5c0-0.3-0.1-0.4-0.3-0.4c-0.3,0-0.8,0.4-1.4,1.2c-0.6,0.7-1,1.3-1.3,1.9l-0.1,0
		c0.5-1.3,1.4-2.5,2.8-3.5c0.6-0.5,1.1-0.7,1.4-0.7c0.4,0,0.7,0.3,0.7,0.9c0,0.7-0.3,1.8-0.8,3.4c0,0.1,0,0.2,0.1,0.2
		c0.1,0,0.1,0,0.2-0.1c1.7-3,3.2-4.5,4.6-4.5c1,0,1.7,0.7,2.1,2.2C210.4,30.1,210.5,30.7,210.5,31.4z"/>
</g>
</svg>
