<?xml version="1.0" encoding="utf-8"?>
<!-- Generator: Adobe Illustrator 22.1.0, SVG Export Plug-In . SVG Version: 6.00 Build 0)  -->
<svg version="1.1" id="Ebene_1" xmlns="http://www.w3.org/2000/svg" xmlns:xlink="http://www.w3.org/1999/xlink" x="0px" y="0px"
	 viewBox="0 0 269.8 73.2" style="enable-background:new 0 0 269.8 73.2;" xml:space="preserve">
<g>
	<path d="M4.8,50.4h12.3v0.5h-5.9v16h-0.5v-16H4.8V50.4z"/>
	<path d="M17.4,58.6c0-1.2,0.2-2.3,0.5-3.3c0.3-1,0.8-2,1.4-2.7c0.6-0.8,1.4-1.4,2.4-1.9c0.9-0.5,2-0.7,3.3-0.7
		c1.2,0,2.3,0.2,3.3,0.7c0.9,0.5,1.7,1.1,2.4,1.9c0.6,0.8,1.1,1.7,1.4,2.7c0.3,1,0.5,2.1,0.5,3.3c0,1.2-0.2,2.3-0.5,3.3
		c-0.3,1-0.8,2-1.4,2.7c-0.6,0.8-1.4,1.4-2.4,1.9c-0.9,0.5-2,0.7-3.3,0.7c-1.2,0-2.3-0.2-3.3-0.7c-0.9-0.5-1.7-1.1-2.4-1.9
		c-0.6-0.8-1.1-1.7-1.4-2.7C17.6,60.9,17.4,59.8,17.4,58.6z M17.9,58.6c0,1.2,0.2,2.3,0.5,3.3s0.8,1.9,1.4,2.6
		c0.6,0.7,1.3,1.3,2.2,1.7c0.9,0.4,1.9,0.6,3,0.6s2.1-0.2,3-0.6c0.9-0.4,1.6-1,2.2-1.7c0.6-0.7,1.1-1.6,1.4-2.6
		c0.3-1,0.5-2.1,0.5-3.3c0-1.2-0.2-2.3-0.5-3.3c-0.3-1-0.8-1.9-1.4-2.6c-0.6-0.7-1.3-1.3-2.2-1.7c-0.9-0.4-1.9-0.6-3-0.6
		s-2.1,0.2-3,0.6c-0.9,0.4-1.6,1-2.2,1.7c-0.6,0.7-1.1,1.6-1.4,2.6C18.1,56.3,17.9,57.4,17.9,58.6z"/>
	<path d="M34.5,66.8V50.4h6.6c1.6,0,2.8,0.4,3.7,1.1c0.9,0.8,1.3,1.9,1.3,3.4c0,0.7-0.1,1.4-0.4,1.9c-0.3,0.6-0.6,1-1.1,1.4
		c-0.5,0.4-1,0.7-1.6,0.9c-0.6,0.2-1.3,0.3-2.1,0.3h-6v7.5H34.5z M41.2,58.9c0.6,0,1.2-0.1,1.8-0.3c0.6-0.2,1-0.4,1.4-0.8
		c0.4-0.3,0.7-0.8,1-1.3s0.3-1.1,0.3-1.7c0-1.3-0.4-2.3-1.1-3c-0.7-0.7-1.9-1-3.4-1H35v8H41.2z"/>
	<path d="M49.7,63.5c0.3,0.6,0.7,1,1.1,1.4c0.5,0.3,1.1,0.6,1.7,0.7c0.7,0.1,1.4,0.2,2.1,0.2c0.4,0,0.9-0.1,1.4-0.2
		c0.5-0.1,1-0.3,1.4-0.6c0.4-0.3,0.8-0.6,1.1-1c0.3-0.4,0.4-0.9,0.4-1.5c0-0.5-0.1-0.9-0.3-1.2c-0.2-0.3-0.5-0.6-0.8-0.9
		s-0.7-0.4-1.1-0.6c-0.4-0.1-0.8-0.3-1.2-0.4L52,58.6c-0.5-0.1-0.9-0.3-1.4-0.5c-0.5-0.2-0.8-0.4-1.2-0.7s-0.6-0.7-0.8-1.1
		c-0.2-0.4-0.3-1-0.3-1.6c0-0.4,0.1-0.9,0.2-1.4s0.4-1,0.9-1.5c0.4-0.5,1-0.9,1.7-1.2c0.7-0.3,1.7-0.5,2.8-0.5
		c0.8,0,1.6,0.1,2.3,0.3c0.7,0.2,1.4,0.5,1.9,1c0.6,0.4,1,1,1.3,1.6s0.5,1.4,0.5,2.2h-1.6c0-0.6-0.2-1.2-0.4-1.6
		c-0.3-0.5-0.6-0.9-1-1.2c-0.4-0.3-0.9-0.6-1.4-0.7c-0.5-0.2-1.1-0.2-1.7-0.2c-0.5,0-1.1,0.1-1.6,0.2c-0.5,0.1-0.9,0.3-1.3,0.6
		s-0.7,0.6-0.9,1s-0.3,0.9-0.3,1.5c0,0.4,0.1,0.7,0.2,1c0.1,0.3,0.3,0.5,0.5,0.7c0.2,0.2,0.5,0.4,0.8,0.5c0.3,0.1,0.6,0.2,1,0.3l4,1
		c0.6,0.2,1.1,0.3,1.6,0.6s1,0.5,1.4,0.8c0.4,0.3,0.7,0.7,0.9,1.2c0.2,0.5,0.3,1.1,0.3,1.7c0,0.2,0,0.4-0.1,0.7c0,0.3-0.1,0.6-0.3,1
		c-0.1,0.3-0.4,0.7-0.6,1c-0.3,0.4-0.6,0.7-1.1,1s-1,0.5-1.7,0.7c-0.7,0.2-1.5,0.3-2.5,0.3c-1,0-1.9-0.1-2.7-0.3
		c-0.8-0.2-1.5-0.6-2.1-1c-0.6-0.5-1-1-1.3-1.8c-0.3-0.7-0.4-1.6-0.4-2.6h1.6C49.3,62.2,49.4,62.9,49.7,63.5z"/>
	<path d="M74.3,50.4v1.3h-5.7v15.1H67V51.7h-5.7v-1.3H74.3z"/>
	<path d="M74,50.4h1.8l5.4,8.3l5.4-8.3h1.9L82,60v6.8h-1.6V60L74,50.4z"/>
	<path d="M91.5,50.4v15.1h9.2v1.3H89.9V50.4H91.5z"/>
	<path d="M103.9,50.4v16.4h-1.6V50.4H103.9z"/>
	<path d="M109.1,50.4l9.6,13.9h0V50.4h1.6v16.4h-1.7L109,52.9h0v13.9h-1.6V50.4H109.1z"/>
	<path d="M136.5,66.8l-0.2-3h0c-0.3,0.6-0.6,1.1-1,1.5c-0.4,0.4-0.9,0.8-1.3,1c-0.5,0.3-1,0.5-1.6,0.6c-0.6,0.1-1.1,0.2-1.7,0.2
		c-1.3,0-2.4-0.2-3.4-0.7c-1-0.5-1.8-1.1-2.4-1.9c-0.6-0.8-1.1-1.7-1.4-2.7s-0.5-2.1-0.5-3.2s0.2-2.2,0.5-3.2c0.3-1,0.8-1.9,1.4-2.7
		c0.6-0.8,1.5-1.4,2.4-1.9s2.1-0.7,3.4-0.7c0.9,0,1.7,0.1,2.4,0.3c0.8,0.2,1.4,0.6,2,1c0.6,0.5,1.1,1,1.5,1.7
		c0.4,0.7,0.7,1.5,0.9,2.4h-1.6c0-0.5-0.2-1-0.5-1.4s-0.6-0.9-1.1-1.3c-0.5-0.4-1-0.7-1.6-1c-0.6-0.3-1.3-0.4-2.1-0.4
		c-1.1,0-2,0.2-2.8,0.6s-1.4,1-1.9,1.6c-0.5,0.7-0.9,1.5-1.1,2.3c-0.2,0.9-0.4,1.7-0.4,2.6c0,0.9,0.1,1.8,0.4,2.6
		c0.2,0.9,0.6,1.6,1.1,2.3c0.5,0.7,1.1,1.2,1.9,1.6s1.7,0.6,2.8,0.6c0.9,0,1.7-0.1,2.4-0.4s1.3-0.7,1.8-1.3c0.5-0.5,0.9-1.2,1.1-1.9
		c0.2-0.7,0.4-1.5,0.3-2.4h-5.6v-1.3h7v8.3H136.5z"/>
	<path d="M156.2,58v0.5h-8.7v8.3H147V50.4h10.1v0.5h-9.7V58H156.2z"/>
	<path d="M158.1,66.8V50.4h6.7c1.7,0,3,0.3,3.8,1c0.8,0.7,1.2,1.7,1.2,3.2c0,1.1-0.3,2-0.9,2.7c-0.6,0.7-1.5,1.2-2.6,1.5v0
		c0.7,0.1,1.2,0.3,1.7,0.5c0.4,0.2,0.8,0.5,1,0.9c0.2,0.4,0.4,0.8,0.5,1.4c0.1,0.5,0.1,1.1,0.1,1.8c0,0.2,0,0.5,0,0.9
		c0,0.3,0,0.7,0.1,1c0,0.3,0.1,0.6,0.1,0.9c0,0.3,0.1,0.5,0.2,0.6h-0.5c-0.1-0.2-0.1-0.4-0.2-0.7c0-0.3-0.1-0.6-0.1-0.9
		c0-0.3,0-0.6,0-1c0-0.3,0-0.6,0-0.9c0-0.7,0-1.3-0.1-1.8c-0.1-0.5-0.3-1-0.6-1.3s-0.7-0.6-1.3-0.8c-0.6-0.2-1.3-0.3-2.3-0.3h-6.2
		v7.7H158.1z M164.7,58.6c0.6,0,1.2-0.1,1.8-0.2c0.6-0.2,1.1-0.4,1.5-0.7c0.4-0.3,0.8-0.8,1-1.3c0.3-0.5,0.4-1.1,0.4-1.9
		c0-1.2-0.4-2.1-1.1-2.7c-0.7-0.7-1.8-1-3.4-1h-6.4v7.8H164.7z"/>
	<path d="M171.2,66.8h-0.5l6.6-16.4h0.6l6.5,16.4h-0.5l-2.2-5.4h-8.4L171.2,66.8z M177.6,50.8L177.6,50.8l-4.1,10.1h8L177.6,50.8z"
		/>
	<path d="M186.1,50.4l11.2,15.8h0V50.4h0.5v16.4h-0.7L185.9,51h0v15.8h-0.5V50.4H186.1z"/>
	<path d="M200.8,66.8h-0.5V50.4h0.5v10l11.4-10h0.7l-7.9,7l8.4,9.4h-0.6l-8.1-9.2l-3.8,3.3V66.8z"/>
	<path d="M223.1,58v0.5h-8.7v8.3h-0.5V50.4H224v0.5h-9.7V58H223.1z"/>
	<path d="M237,50.4v10.3c0,2.2-0.5,3.8-1.5,4.9c-1,1.1-2.5,1.6-4.5,1.6s-3.5-0.5-4.5-1.6c-1-1.1-1.5-2.7-1.5-4.9V50.4h0.5v10.3
		c0,2,0.5,3.5,1.4,4.5s2.3,1.5,4.2,1.5s3.3-0.5,4.2-1.5s1.4-2.5,1.4-4.5V50.4H237z"/>
	<path d="M239.5,66.8V50.4h6.7c1.7,0,3,0.3,3.8,1c0.8,0.7,1.2,1.7,1.2,3.2c0,1.1-0.3,2-0.9,2.7c-0.6,0.7-1.5,1.2-2.6,1.5v0
		c0.7,0.1,1.2,0.3,1.7,0.5s0.8,0.5,1,0.9c0.2,0.4,0.4,0.8,0.5,1.4c0.1,0.5,0.1,1.1,0.1,1.8c0,0.2,0,0.5,0,0.9c0,0.3,0,0.7,0.1,1
		c0,0.3,0.1,0.6,0.1,0.9c0,0.3,0.1,0.5,0.2,0.6h-0.5c-0.1-0.2-0.1-0.4-0.2-0.7c0-0.3-0.1-0.6-0.1-0.9c0-0.3,0-0.6,0-1
		c0-0.3,0-0.6,0-0.9c0-0.7,0-1.3-0.1-1.8c-0.1-0.5-0.3-1-0.6-1.3s-0.7-0.6-1.3-0.8c-0.6-0.2-1.3-0.3-2.3-0.3H240v7.7H239.5z
		 M246.1,58.6c0.6,0,1.2-0.1,1.8-0.2c0.6-0.2,1.1-0.4,1.5-0.7c0.4-0.3,0.8-0.8,1-1.3c0.3-0.5,0.4-1.1,0.4-1.9c0-1.2-0.4-2.1-1.1-2.7
		c-0.7-0.7-1.8-1-3.4-1H240v7.8H246.1z"/>
	<path d="M252,50.4h12.3v0.5h-5.9v16h-0.5v-16H252V50.4z"/>
</g>
<g>
	<path d="M78.7,24.9c0,0.4-0.1,0.5-0.4,0.5s-0.4-0.1-0.4-0.4c0-0.1,0-0.2,0.1-0.3c0-0.2,0.1-0.3,0.1-0.3c0-0.4-0.3-0.7-0.8-0.7
		c-0.9,0-2,0.8-3.3,2.5c-1.7,2.1-3,4.6-4,7.5c-0.7,1.9-1,3.7-1,5.3c0,2.1,0.7,3.2,2.1,3.2c0.8,0,1.4-0.4,1.9-1.3l0.1,0.1
		c-0.8,1.5-1.9,2.3-3.4,2.3c-1.9,0-2.9-1.5-2.9-4.5c0-2,0.6-4.2,1.7-6.6c1-2.2,2.2-4.1,3.7-5.7c0.3-0.4,0.7-0.7,1-1
		c0.2-0.2,0.8-0.7,1.6-1.4c-1,0.3-2.1,0.8-3.1,1.4c-1.7,1-3.3,2.2-4.8,3.6c-0.9,0.9-2.3,2.3-4.1,4.3c0.2,1.3,0.3,2.5,0.3,3.6
		c0,1.5-0.2,2.7-0.5,3.7c-0.5,1.5-1.3,2.3-2.4,2.3c-0.5,0-0.9-0.2-1.2-0.6c-0.3-0.3-0.4-0.8-0.4-1.3c0-1.6,0.9-3.5,2.7-5.9
		c-0.2-2.5-0.9-5.4-2.1-8.8c-0.4,3.2-1.2,6-2.3,8.3c-0.9,1.9-2.3,3.8-4.2,5.7c-1,1-2.4,2.2-4.2,3.5c-2.7,2-5.7,3.4-9,4.4
		c-2,0.6-3.7,0.9-5.2,0.9c-2,0-3.7-0.5-5.2-1.5c-0.9-0.6-1.7-1.4-2.3-2.5c-0.6-1.1-0.9-2.1-0.9-3.2c0-2.6,1-4.8,3-6.8
		c2.2-2.2,5.1-3.2,8.4-3.2c3.6,0,6.1,1.4,7.5,4.2c0.5,1.1,0.8,2.3,0.8,3.5c0,0.7-0.1,1.4-0.3,2.2l-0.6,0.3c0.3-1.2,0.5-2.2,0.5-3
		c0-0.9-0.2-1.9-0.6-2.9c-1.2-2.9-3.6-4.3-7.2-4.3c-1.4,0-2.7,0.2-4.1,0.7c-1.8,0.6-3.4,1.7-4.6,3.2c-1.3,1.6-1.9,3.3-1.9,5.2
		c0,1.1,0.3,2.2,0.9,3.3c0.6,1,1.4,1.9,2.5,2.5c1.6,0.9,3.3,1.4,5.2,1.4c1.8,0,3.9-0.4,6.2-1.2c2.1-0.7,4.1-1.6,5.8-2.7
		c1.3-0.8,2.6-1.8,3.9-3c-1.9,1.2-4,1.8-6.3,1.8c-1.7,0-3.2-0.4-4.4-1.1c-1.4-0.9-2.1-2.2-2.1-3.8c0-1,0.3-1.8,0.8-2.5
		c0.5-0.7,1.3-1.1,2.2-1.1c0.5,0,1,0.2,1.4,0.5c0.4,0.3,0.6,0.8,0.6,1.3c0,0.7-0.3,1.1-1,1.1c-0.5,0-0.8-0.1-0.8-0.4
		c0-0.1,0-0.1,0-0.2c0-0.1,0-0.2,0-0.2c0-0.3-0.1-0.6-0.4-0.8c-0.3-0.2-0.5-0.3-0.9-0.3c-0.6,0-1.1,0.2-1.4,0.7
		c-0.3,0.5-0.5,1.1-0.5,1.7c0,1.5,0.6,2.6,1.9,3.5c1.1,0.7,2.5,1.1,4,1.1c3,0,5.7-1.1,8.2-3.4c1.8-1.6,3.2-3.7,4.3-6.2
		c1-2.3,1.6-4.8,1.8-7.4c-0.4-0.2-1.3-0.3-2.6-0.3c-1.7,0-2.9,0.1-3.6,0.3c-1.3,0.4-2,1.3-2,2.6c0,1.1,0.5,1.7,1.4,1.7
		c0.3,0,0.6-0.1,0.8-0.3s0.3-0.5,0.3-0.9c0-0.3,0.2-0.6,0.6-0.6c0.3-0.1,0.5,0,0.7,0.2c0.2,0.2,0.2,0.4,0.2,0.7
		c0,0.5-0.2,0.9-0.5,1.2c-0.4,0.3-0.8,0.4-1.3,0.4c-0.7,0-1.2-0.2-1.7-0.7c-0.5-0.5-0.7-1-0.7-1.7c0-1.4,0.7-2.5,2-3.3
		c1.2-0.7,2.5-1.1,4-1.1c0.3,0,1.5,0,3.8,0.1c1.3,3.6,2.1,6.6,2.4,9.2c2.3-2.5,4.3-4.5,6-5.8c3.3-2.6,6-3.9,8.1-3.9
		c0.5,0,1,0.1,1.4,0.4C78.5,24,78.7,24.4,78.7,24.9z M61.3,37.4c0-0.2-0.1-0.9-0.2-2.3c-1.6,2.3-2.5,4.2-2.5,5.7
		c0,1,0.4,1.5,1.1,1.5c0.6,0,1-0.7,1.2-2.1C61.3,39.4,61.3,38.4,61.3,37.4z"/>
	<path d="M91.8,40.1c0,1-0.4,1.9-1.1,2.6c-0.8,0.7-1.6,1.1-2.6,1.1c-0.2,0-0.3,0-0.5,0L87.2,44c0.2,0,0.3,0.1,0.5,0.1
		c1.1,0,2-0.4,2.8-1.2s1.2-1.7,1.1-2.8c0-1-0.3-1.9-0.9-2.5c-0.5-0.6-1.3-0.9-2.3-0.9c-0.5,0-0.9,0.1-1.2,0.3c-1,0.6-2,1.5-3,2.9
		c-1.6,2.1-2.8,3.1-3.6,3.1c-0.3,0-0.5-0.2-0.5-0.6c0-0.4,0.1-0.9,0.3-1.6c0.1-0.4,0.4-1.3,0.9-2.7c-1.1,1.7-1.9,2.9-2.4,3.4
		c-0.9,1-1.9,1.6-2.8,1.5c-1,0-1.5-0.5-1.5-1.5c0-1.3,0.5-2.9,1.6-4.7C73.8,39.6,71.4,41,69,41c-1.2,0-2.2-0.6-3-1.7
		c-0.6-1-1-2.1-1-3.4c0-1.5,0.4-2.9,1.2-4.2c0.8-1.3,1.9-2.4,3.2-3.1c1.1-0.6,2.2-0.9,3.5-0.9c1.8,0,3.1,0.7,3.8,2
		c0.3,0.4,0.4,0.9,0.4,1.4c0,0.5-0.1,1.1-0.4,1.6c-0.3,0.6-0.7,0.9-1.2,1.1c0.4-0.2,0.8-0.6,1-1.2c0.3-0.5,0.4-1.1,0.4-1.6
		c0-0.5-0.1-0.9-0.3-1.2c-0.7-1.3-2-1.9-3.8-1.9c-1.3,0-2.6,0.4-3.7,1.1c-1.1,0.7-2.1,1.7-2.8,2.9c-0.8,1.3-1.2,2.7-1.2,4.1
		c0,1.3,0.3,2.4,0.9,3.3c0.7,1.1,1.6,1.7,2.8,1.7c1.3,0,2.9-0.7,4.6-2c1.4-1,2.5-2.2,3.5-3.4c2.4-3.3,4.4-4.9,6-4.9
		c0.4,0,0.7,0.2,1.1,0.6l0.5-0.5l1.5-0.1c-0.7,1.4-1.5,3.3-2.5,5.6c-1.2,2.9-1.8,4.6-1.8,5.1c0,0.2,0.1,0.3,0.3,0.3
		c0.3,0,0.8-0.6,1.7-1.7c0.1-0.1,0.2-0.3,0.5-0.6c0.6-0.7,1-1.1,1.2-1.4c0.5-0.5,1-0.9,1.4-1.1c0.5-0.3,1-0.4,1.6-0.4
		c0.4,0,0.8,0.1,1.1,0.2C91.1,37.2,91.8,38.4,91.8,40.1z M83.6,31.6c0-0.5-0.2-0.8-0.7-0.8c-0.8,0-1.9,1.1-3.3,3.2
		c-1,1.6-1.8,3.1-2.4,4.4c-0.5,1.2-0.8,2.2-0.8,2.9c0,0.6,0.2,0.9,0.7,0.9c1,0,2.4-1.5,4-4.6C82.8,34.8,83.6,32.8,83.6,31.6z"/>
	<path d="M94.5,25.8c0,0.6-0.3,1-1,1.1c-0.2,0.1-0.6,0.1-1.3,0.2c-1.2,0.1-1.9,0.6-2,1.5c-0.1,0.5,0.1,0.9,0.6,1.4
		c0.5,0.4,1,0.6,1.5,0.6c0.4,0,0.7,0.2,0.7,0.7c0,0.3-0.4,1.3-1.1,3.1L90.4,38c1.1-0.3,2-0.7,3-1.4c-0.2,0.1-0.5,0.4-0.9,0.7
		c-0.2,0.1-0.4,0.2-0.7,0.4c-0.5,0.3-1,0.5-1.5,0.6l-1,2.4c-0.2,0.4-0.3,0.7-0.3,0.8c0,0.2,0.1,0.4,0.3,0.4c0.4,0,1.2-0.9,2.5-2.6
		l0.1,0.1c-0.6,0.9-1.2,1.6-1.9,2.3c-0.9,0.9-1.7,1.3-2.2,1.3c-0.5,0-0.8-0.3-0.8-0.8c0-0.5,0.4-1.7,1.2-3.6l0.1-0.2
		c-1.1-0.3-1.6-1.1-1.5-2.6c0.1-0.6,0.6-1.5,1.7-2.6c0.1-0.1,0.8-0.7,2.1-1.8c0.4-0.3,0.8-0.5,1.2-0.7c-0.5-0.1-0.9-0.3-1.4-0.6
		c-0.5-0.4-0.7-0.8-0.7-1.2c0.1-0.6,0.5-1,1.2-1.5c0.6-0.3,1.2-0.5,1.9-0.6c-0.4-0.2-0.6-0.6-0.6-1c0-0.3,0.1-0.6,0.4-0.9
		c0.2-0.2,0.5-0.3,0.9-0.3c0.3,0,0.6,0.1,0.8,0.3S94.5,25.5,94.5,25.8z M90.9,32.1c0-0.2-0.1-0.3-0.3-0.3c-0.4,0-1.1,0.5-2.1,1.6
		c-0.6,0.6-0.9,1-1,1.2c-0.4,0.5-0.6,0.9-0.6,1.4c0,0.6,0,1.1,0.3,1.5c0.3,0.5,0.6,0.8,1.2,0.9c0.5-1.2,1-2.3,1.5-3.5l0.8-1.9
		C90.8,32.4,90.9,32.2,90.9,32.1z"/>
	<path d="M126,41.5c0,1.7-0.4,3.5-1.3,5.3c-0.8,1.7-1.9,3.2-3.2,4.4c-1.9,1.8-4.2,2.9-7.1,3.4c-1,0.2-1.9,0.2-2.8,0.2
		c-3.8,0-6.8-1.1-9.1-3.4c-1.1-1.1-1.9-2.1-2.4-3.1c-0.7-1.3-1.3-3.2-2-5.9c-0.2-0.7-0.6-2-1.2-3.7c-0.4,1-1,2.4-1.8,4.2
		c-0.2,0-0.5,0-1-0.1c-0.3,0-0.6,0-0.9,0c0.2-0.4,0.5-1.2,1.1-2.4c1.6-3.7,3.5-8.4,5.7-14.3c0.1-0.2,0.2-0.5,0.2-0.8
		c0.1-0.8-0.2-1.2-1-1.3c-0.1,0-0.2,0-0.4-0.1l0-0.1c0.5,0,1,0,1.5,0c0.2,0,0.5,0,0.9-0.1c1.2-0.3,1.8-1.3,1.8-3
		c0-1.9-0.8-3.5-2.5-4.7c-1.5-1.1-3.3-1.7-5.2-1.7c-2.4,0-4.4,1-6.1,2.9c-1.6,1.8-2.5,3.9-2.7,6.3c-0.1,0.5-0.1,0.9-0.1,1.1
		c0,3.5,1.4,6.3,4.2,8.4c1.7,1.3,3.3,1.9,4.7,1.9c-1.6-0.1-3.3-0.7-5.1-1.9c-1.8-1.2-2.9-2.5-3.5-3.9c-0.5-1.3-0.8-2.7-0.8-4.2
		c0-0.6,0-1.1,0-1.3c0.2-2.4,1.2-4.6,3-6.5c1.9-2,4-3,6.4-3c2,0,3.7,0.6,5.3,1.7c1.7,1.3,2.6,2.9,2.6,4.8c0,1.1-0.2,2-0.5,2.8h0
		c-0.1,0.3-0.2,0.7-0.5,1.2l-3.4,8.5c1.7-1.9,3.2-2.8,4.5-2.8c0.4,0,0.7,0.1,1,0.4c0.3,0.3,0.4,0.6,0.4,1c0,1.1-1.3,2.7-4,4.7
		c-0.5,0.3-1.3,0.9-2.5,1.6c0.1,0.3,0.4,1.5,1,3.6l1.1,4.1c0.6,2,1.2,3.1,1.7,3.6c0.4,0.3,0.8,0.4,1.2,0.4c0.7,0,1.2-0.3,1.5-0.8
		c0,0,0.1-0.4,0.2-1.2c0.1-0.5,0.3-0.8,0.7-0.8c0.5,0,0.7,0.2,0.7,0.7c0,0.4-0.2,0.8-0.6,1.3c-0.6,0.8-1.4,1.2-2.5,1.2
		c-0.7,0-1.3-0.2-1.9-0.5l0.1,0.1c0.3,0.4,0.7,0.9,1.1,1.2c2.2,2.2,5,3.4,8.4,3.4c1.1,0,2.2-0.1,3.4-0.3c4.8-0.8,8.2-3.3,10.1-7.6
		c0.7-1.6,1.1-3.3,1.1-4.9c0-2.6-0.9-4.7-2.8-6.2c-1-0.9-2.1-1.5-3.1-1.8s-2.3-0.5-3.7-0.4c-1.1,0-2.1,0.2-3,0.6l0.3-0.2
		c1.2-0.5,2.3-0.7,3-0.8c1.4-0.1,2.7,0.1,3.7,0.4c1,0.3,2.1,1,3.1,1.9C125.1,36.9,126,38.9,126,41.5z M103.5,33.1
		c0-0.4-0.1-0.7-0.4-1c-0.3-0.3-0.6-0.4-1-0.4c-0.6,0-1.3,0.4-2.1,1.2c-0.7,0.6-1.1,1.2-1.3,1.8c-0.2,0.4-0.4,1-0.8,1.9
		c0.2,0.4,0.3,0.9,0.6,1.6C101.8,36.3,103.5,34.6,103.5,33.1z"/>
	<path d="M115.8,33.5c0,1.8-1,3.4-3,4.6c-0.1,0.5-0.3,1-0.6,1.5c-1.2,2.2-2.6,3.3-4.4,3.3c-1.5,0-2.2-0.9-2.2-2.6c0-0.3,0-0.5,0-0.8
		c-0.4,0.8-0.9,1.5-1.7,2.1c-0.8,0.6-1.6,0.9-2.4,0.9c-0.3,0-0.5,0-0.8-0.1l0.2-0.1c0.2,0.1,0.5,0.1,0.7,0.1c1,0,1.9-0.5,2.7-1.4
		c0.8-0.9,1.4-1.8,1.6-2.8l0-0.1c-1.1,0.1-2-0.2-2.6-0.9c-0.7-0.7-1-1.5-1-2.6c0-1.7,1-3.1,2.9-4.3c1.7-1,3.5-1.5,5.2-1.5
		c2.1,0,3.6,0.7,4.5,2.1C115.6,31.9,115.8,32.7,115.8,33.5z M115.6,33.4c0-0.8-0.2-1.5-0.6-2.2c-0.8-1.4-2.3-2.1-4.4-2.1
		c-1.7,0-3.4,0.5-5,1.4c-1.9,1.1-2.8,2.5-2.8,4.1c0,1,0.3,1.8,1,2.5c0.6,0.6,1.5,1,2.5,1c0.4-1.1,0.9-2.2,1.7-3.3
		c-0.2,0.1-0.6,0.4-1,0.8c0.4-0.5,0.8-0.9,1.2-1.1c1.8-2.6,3.3-3.8,4.8-3.8c1,0,1.5,0.5,1.5,1.5c0,0.9-0.7,1.9-2.1,3
		c0.5,0.7,0.8,1.4,0.8,2.2c0,0.2,0,0.4-0.1,0.6C114.7,36.6,115.6,35.1,115.6,33.4z M112.8,37.2c0-0.7-0.2-1.4-0.7-2
		c-0.8,0.7-2,1.5-3.6,2.3c-0.6,1.1-0.8,2.2-0.8,3.2c0,1,0.4,1.6,1.2,1.6c0.6,0,1.3-0.3,2-1c0.6-0.6,1.1-1.2,1.4-1.8
		c0.3-0.5,0.4-0.9,0.4-1.2c-0.1,0.1-0.5,0.3-1,0.4c0.2-0.1,0.5-0.2,0.8-0.4c0,0,0.1-0.1,0.3-0.2C112.7,37.8,112.8,37.5,112.8,37.2z
		 M111.7,34.8c-0.6-0.5-1.2-0.8-2-0.7c-0.6,1.2-1,2.3-1.3,3.4C109.5,36.9,110.6,36,111.7,34.8z M113.3,31.8c0-0.7-0.3-1-0.8-1
		c-0.8,0-1.7,1-2.8,3.1c0.8,0,1.5,0.2,2.1,0.8C112.8,33.5,113.3,32.6,113.3,31.8z"/>
	<path d="M166.7,20.9c0,3.4-1.1,6.8-3.2,10.2c-0.7,1.2-1.6,2.2-2.6,3.2c-0.4,0.4-1.4,1.2-2.9,2.3c-0.6,2.3-1.5,4.4-2.7,6.3
		c-3.2,5-8.6,7.9-16.3,8.7c-1.1,0.1-2.1,0.2-3,0.2c-4.6,0-8.4-1.4-11.6-4.3c-1.2-1.1-2.7-2.9-4.5-5.4c-3.2-1.8-5.6-4.1-7.1-6.9
		c-1.4-2.6-2.2-5.9-2.3-9.7c-0.1-3.7,0.6-6.8,2-9.5c1.4-2.7,3.7-5,6.8-7.1c3.1-2.1,6.8-3.2,11.2-3.5c0.7,0,1.3-0.1,1.8-0.1
		c3.7,0,6.8,0.9,9.2,2.6c2.7,1.9,4.2,4.7,4.3,8.2c2,0.4,4.1,1.4,6.1,2.8c4.5,3.1,6.8,7.2,6.8,12.4c0,1.6-0.2,3.2-0.6,4.9
		c1.3-1,2.1-1.7,2.6-2.2c0.9-0.8,1.6-1.7,2.3-2.7c2.2-3.3,3.2-6.8,3.2-10.7c0-1.7-0.2-3.2-0.7-4.2C166.4,17.7,166.7,19.3,166.7,20.9
		z M157.9,31.6c0-5.1-2-9.2-6-12.3c-1.6-1.3-3.6-2.3-6-2.9c0,2.2-0.9,4.8-2.8,7.9c-0.6,1.1-1.1,2.4-1.5,4.1
		c-0.1,0.6-0.3,2.1-0.6,4.4c-0.3,2.7-0.7,4.8-1,6.3c6.8-6.3,10.2-10.7,10.2-13.2c0-0.6-0.3-0.9-0.8-1c-0.5-0.1-0.8-0.4-0.8-0.8
		c0-0.4,0.2-0.8,0.5-1c0.3-0.3,0.7-0.4,1.1-0.4c0.5,0,0.9,0.2,1.2,0.7c0.3,0.4,0.4,0.9,0.4,1.4c0,2.2-2.5,5.8-7.4,10.7
		c-1,0.9-2.4,2.4-4.3,4.3c-1.3,1.3-2.6,2.5-4.1,3.5c1.2-1.6,2.1-4.6,2.8-9.1c0.3-2.4,0.7-4.2,1-5.5c-1,1.3-2.3,3.2-3.9,5.6
		c-1.4,2.1-2.8,4-4.1,5.5c-2.2,2.5-3.9,3.7-5.2,3.8c1-0.9,1.8-2,2.3-3.5c0.3-0.9,0.7-2.3,1-4.1c0.1-0.4,0.3-2.2,0.8-5.5
		c0-0.3,0.2-1.1,0.4-2.4c0.3-1.2,0.4-2,0.4-2.2c0-0.6-0.4-1.1-1.1-1.4c-0.6-0.3-1.2-0.4-1.9-0.4c-1.2,0-2.2,0.4-3.1,1.2
		c-0.9,0.8-1.3,1.7-1.3,2.9c0,0.8,0.3,1.4,0.8,1.6c0.3,0.1,0.5,0.2,0.7,0.1c0.3-0.1,0.4-0.4,0.4-0.8c0-0.4,0.1-0.7,0.5-0.8
		c0.1,0,0.2,0,0.2,0c0.6,0,0.9,0.4,0.9,1.3c0,0.5-0.2,1-0.7,1.3c-0.5,0.3-1,0.5-1.5,0.5c-1.5,0-2.2-0.9-2.2-2.8
		c0-0.4,0.1-0.9,0.2-1.6c0.4-1.7,1.1-3.4,2.1-4.9c1.6-2.4,3.6-4.1,6.1-5.2c2.2-0.9,4.8-1.4,7.9-1.4c0.7,0,1.4,0,2,0.1
		c0.2,0,1.4,0.2,3.7,0.6c-0.6-3.4-2-5.9-4.4-7.5c-2.1-1.4-5-2.1-8.7-2.1c-3.8,0-7.4,0.8-10.6,2.3c-3.5,1.6-6.2,4-8.1,7.1
		c-1.6,2.6-2.4,5.7-2.4,9.2c0,6.7,2.9,12.1,8.6,15.9c-0.6-1.5-0.8-3.1-0.8-4.9c0-1,0.2-2,0.5-3.2c0.4-1.3,0.9-2.2,1.6-2.7
		c-1,1.3-1.5,3.4-1.5,6.2c0,1.9,0.4,3.6,1.2,5.2c4.1,2.4,8.6,3.6,13.4,3.6c3.9,0,8-0.8,12.2-2.3c4-1.4,7.7-3.4,11-5.8
		C157.6,35.1,157.9,33.3,157.9,31.6z M156.9,37.4c-2.8,2-6.2,3.7-10,5.1l-2.8,1c-1,0.3-2,0.6-3,0.9c-2.3,0.6-4.8,0.8-7.5,0.8
		c-2.8,0-5.7-0.4-8.7-1.2c-1.3-0.3-2.6-0.8-3.7-1.4l0.1,0.1c1.9,3.7,5.1,6.3,9.8,7.7c1.5,0.5,3.2,0.7,5.1,0.7c1,0,2.2-0.1,3.5-0.2
		c6.9-0.7,11.8-3.3,14.6-7.7C155.4,41.5,156.3,39.6,156.9,37.4z M145.2,17.2c0-0.3,0-0.7-0.1-1c-0.9-0.2-2.1-0.4-3.5-0.6
		c-0.5-0.1-1.3-0.1-2.2-0.1c-4.7,0-8.6,1.4-11.6,4.2c-1.2,1.1-2.1,2.1-2.7,3.1c-0.7,1.1-1.2,2.4-1.4,3.8c1.1-2,3.3-3,6.5-3
		c0.4,0,1,0,1.8,0.1c0.8,0.1,1.4,0.1,1.8,0.1c0.3,0,0.6,0,1-0.1l0.1,0.1c-1,1-1.9,3.7-2.5,8c-0.5,3.2-0.9,5.8-1.4,7.7
		c1.4-1.5,3.3-3.9,5.4-7.3c2.3-3.6,4.1-6.1,5.3-7.5C144.1,22.3,145.2,19.7,145.2,17.2z"/>
	<path d="M159.3,33.5c0,1.8-1,3.4-3,4.6c-0.1,0.5-0.3,1-0.6,1.5c-1.2,2.2-2.6,3.3-4.4,3.3c-1.5,0-2.2-0.9-2.2-2.6c0-0.3,0-0.5,0-0.8
		c-0.4,0.8-0.9,1.5-1.7,2.1c-0.8,0.6-1.6,0.9-2.4,0.9c-0.3,0-0.5,0-0.8-0.1l0.2-0.1c0.2,0.1,0.5,0.1,0.7,0.1c1,0,1.9-0.5,2.7-1.4
		c0.8-0.9,1.4-1.8,1.6-2.8l0-0.1c-1.1,0.1-2-0.2-2.6-0.9c-0.7-0.7-1-1.5-1-2.6c0-1.7,1-3.1,2.9-4.3c1.7-1,3.5-1.5,5.2-1.5
		c2.1,0,3.6,0.7,4.5,2.1C159.1,31.9,159.3,32.7,159.3,33.5z M159.1,33.4c0-0.8-0.2-1.5-0.6-2.2c-0.8-1.4-2.3-2.1-4.4-2.1
		c-1.7,0-3.4,0.5-5,1.4c-1.9,1.1-2.8,2.5-2.8,4.1c0,1,0.3,1.8,1,2.5c0.6,0.6,1.5,1,2.5,1c0.4-1.1,0.9-2.2,1.7-3.3
		c-0.2,0.1-0.6,0.4-1,0.8c0.4-0.5,0.8-0.9,1.2-1.1c1.8-2.6,3.3-3.8,4.8-3.8c1,0,1.5,0.5,1.5,1.5c0,0.9-0.7,1.9-2.1,3
		c0.5,0.7,0.8,1.4,0.8,2.2c0,0.2,0,0.4-0.1,0.6C158.2,36.6,159.1,35.1,159.1,33.4z M156.2,37.2c0-0.7-0.2-1.4-0.7-2
		c-0.8,0.7-2,1.5-3.6,2.3c-0.6,1.1-0.8,2.2-0.8,3.2c0,1,0.4,1.6,1.2,1.6c0.6,0,1.3-0.3,2-1c0.6-0.6,1.1-1.2,1.4-1.8
		c0.3-0.5,0.4-0.9,0.4-1.2c-0.1,0.1-0.5,0.3-1,0.4c0.2-0.1,0.5-0.2,0.8-0.4c0,0,0.1-0.1,0.3-0.2C156.2,37.8,156.2,37.5,156.2,37.2z
		 M155.2,34.8c-0.6-0.5-1.2-0.8-2-0.7c-0.6,1.2-1,2.3-1.3,3.4C152.9,36.9,154,36,155.2,34.8z M156.8,31.8c0-0.7-0.3-1-0.8-1
		c-0.8,0-1.7,1-2.8,3.1c0.8,0,1.5,0.2,2.1,0.8C156.3,33.5,156.8,32.6,156.8,31.8z"/>
	<path d="M169.4,32c0,0.8-0.4,1.1-1.1,1.1c-0.3,0-0.5-0.2-0.7-0.7c-0.2-0.6-0.6-0.8-1-0.8c-0.3,0-0.6,0.2-1,0.6
		c-0.9,0.8-1.7,2.2-2.6,4.1c-0.4,1-1.1,2.6-2,4.6c-0.2,0.4-0.4,1.1-0.8,2c-0.8,0.1-1.5,0.4-2.1,0.9c-0.4,0.4-1.1,1.1-1.9,1.9
		c-1.5,1.4-3.4,2.5-5.7,3.2c-2.1,0.7-4.3,1-6.5,1c-5.6,0-9.3-1.7-11.3-5c-0.5-0.9-0.8-1.7-0.8-2.6c0-1.3,0.6-2.5,1.7-3.5
		c1-0.9,2.2-1.4,3.6-1.7c-3.3,1.3-4.9,2.9-4.9,5c0,0.8,0.3,1.6,0.8,2.5c1.9,3.3,5.6,5,11,5c2.1,0,4.1-0.3,6-0.9
		c2.1-0.7,3.9-1.6,5.3-2.8c1.5-1.3,2.7-2.6,3.3-3.8c0.7-1.6,1.8-4.2,3.2-7.9c0.1-0.3,0.3-0.7,0.6-1.4c0.1-0.1,0.2-0.5,0.3-1
		c0-0.1,0-0.2-0.2-0.3l-0.3-0.1c-0.4,0-1.4,1.1-2.9,3.2l-0.1,0c0.6-0.9,1.2-1.7,1.9-2.5c1-1,1.7-1.6,2.3-1.6c0.5,0,0.7,0.3,0.7,0.9
		c0,0.6-0.1,1.4-0.3,2.3c0.8-1.1,1.5-1.9,1.9-2.3c0.7-0.6,1.4-0.9,2.1-0.9c0.4,0,0.7,0.1,0.9,0.4C169.2,31.3,169.4,31.6,169.4,32z"
		/>
	<path d="M200.5,41.5c0,1.7-0.4,3.5-1.3,5.3c-0.8,1.7-1.9,3.2-3.2,4.4c-1.9,1.8-4.2,2.9-7.1,3.4c-1,0.2-1.9,0.2-2.8,0.2
		c-3.8,0-6.8-1.1-9.1-3.4c-1.1-1.1-1.9-2.1-2.4-3.1c-0.7-1.3-1.3-3.2-2-5.9c-0.2-0.7-0.6-2-1.2-3.7c-0.4,1-1,2.4-1.8,4.2
		c-0.2,0-0.5,0-1-0.1c-0.3,0-0.6,0-0.9,0c0.2-0.4,0.5-1.2,1.1-2.4c1.6-3.7,3.5-8.4,5.7-14.3c0.1-0.2,0.2-0.5,0.2-0.8
		c0.1-0.8-0.2-1.2-1-1.3c-0.1,0-0.2,0-0.4-0.1l0-0.1c0.5,0,1,0,1.5,0c0.2,0,0.5,0,0.9-0.1c1.2-0.3,1.8-1.3,1.8-3
		c0-1.9-0.8-3.5-2.5-4.7c-1.5-1.1-3.3-1.7-5.2-1.7c-2.4,0-4.4,1-6.1,2.9c-1.6,1.8-2.5,3.9-2.7,6.3c-0.1,0.5-0.1,0.9-0.1,1.1
		c0,3.5,1.4,6.3,4.2,8.4c1.7,1.3,3.3,1.9,4.7,1.9c-1.6-0.1-3.3-0.7-5.1-1.9c-1.8-1.2-2.9-2.5-3.5-3.9c-0.5-1.3-0.8-2.7-0.8-4.2
		c0-0.6,0-1.1,0-1.3c0.2-2.4,1.2-4.6,3-6.5c1.9-2,4-3,6.4-3c2,0,3.7,0.6,5.3,1.7c1.7,1.3,2.6,2.9,2.6,4.8c0,1.1-0.2,2-0.5,2.8h0
		c-0.1,0.3-0.2,0.7-0.5,1.2l-3.4,8.5c1.7-1.9,3.2-2.8,4.5-2.8c0.4,0,0.7,0.1,1,0.4c0.3,0.3,0.4,0.6,0.4,1c0,1.1-1.3,2.7-4,4.7
		c-0.5,0.3-1.3,0.9-2.5,1.6c0.1,0.3,0.4,1.5,1,3.6l1.1,4.1c0.6,2,1.2,3.1,1.7,3.6c0.4,0.3,0.8,0.4,1.2,0.4c0.7,0,1.2-0.3,1.5-0.8
		c0,0,0.1-0.4,0.2-1.2c0.1-0.5,0.3-0.8,0.7-0.8c0.5,0,0.7,0.2,0.7,0.7c0,0.4-0.2,0.8-0.6,1.3c-0.6,0.8-1.4,1.2-2.5,1.2
		c-0.7,0-1.3-0.2-1.9-0.5l0.1,0.1c0.3,0.4,0.7,0.9,1.1,1.2c2.2,2.2,5,3.4,8.4,3.4c1.1,0,2.2-0.1,3.4-0.3c4.8-0.8,8.2-3.3,10.1-7.6
		c0.7-1.6,1.1-3.3,1.1-4.9c0-2.6-0.9-4.7-2.8-6.2c-1-0.9-2.1-1.5-3.1-1.8s-2.3-0.5-3.7-0.4c-1.1,0-2.1,0.2-3,0.6l0.3-0.2
		c1.2-0.5,2.3-0.7,3-0.8c1.4-0.1,2.7,0.1,3.7,0.4c1,0.3,2.1,1,3.1,1.9C199.6,36.9,200.5,38.9,200.5,41.5z M178,33.1
		c0-0.4-0.1-0.7-0.4-1c-0.3-0.3-0.6-0.4-1-0.4c-0.6,0-1.3,0.4-2.1,1.2c-0.7,0.6-1.1,1.2-1.3,1.8c-0.2,0.4-0.4,1-0.8,1.9
		c0.2,0.4,0.3,0.9,0.6,1.6C176.3,36.3,178,34.6,178,33.1z"/>
	<path d="M216.6,43c-0.3,0.4-0.7,1.1-1.5,2c-1.4,1.6-3.5,3.5-6.3,5.5c-3.4,2.4-6.2,3.8-8.4,4.2c-0.4,0.1-0.9,0.1-1.3,0.1
		c-2.5,0-4.4-1.1-5.6-3.2c-0.6-1.1-0.9-2.4-0.9-3.9c0-1.3,0.2-2.7,0.6-4.1c0.2-0.7,0.7-2,1.5-3.8c-1.3,1.8-2.4,2.8-3.2,3.1
		c-0.2,0.1-0.4,0.1-0.7,0.1c-0.3,0-0.6-0.1-0.9-0.3c-0.3-0.2-0.5-0.5-0.5-0.8c0-0.6,0.2-0.9,0.7-0.9c0.4,0,0.6,0.2,0.6,0.7
		c0,0.1,0,0.2-0.1,0.4c-0.1,0.5,0,0.7,0.4,0.7c0.9,0,1.9-1.5,3-4.6c0.9-2.5,1.4-4.3,1.4-5.4c0-0.8-0.2-1.2-0.6-1.2
		c-0.6,0-1.1,0.3-1.6,0.8c-2.2,2.4-4.4,5.8-6.7,10.4h-1.6c0.7-1.5,1.5-3.3,2.4-5.5c1.1-2.7,1.6-4.4,1.6-5c0-0.4-0.1-0.7-0.3-0.8
		c-0.8-0.2-2.2,1.4-4.3,4.7c-1,1.6-1.9,3.1-2.6,4.6c-0.2,0.4-0.5,1.1-1,2.2c-0.2-0.1-0.4-0.1-0.6-0.1h-0.9c-1.7,0.3-3.9,0.4-6.5,0.1
		c-2.8-0.3-4.2-1.1-4.2-2.6c0-0.7,0.3-1.5,1-2.3c0.6-0.7,1.2-1.3,1.9-1.7c0.7-0.4,1.1-0.6,1.1-0.6c-0.2,0.1-0.5,0.4-1.1,0.7
		c-0.7,0.4-1.3,0.9-1.8,1.7c-0.6,0.8-0.9,1.5-0.9,2.2c0,1.3,1.4,2.1,4.1,2.3c2.5,0.2,4.7,0.2,6.5-0.1l1.5-4.1l1.2-3
		c0.7-1.7,1-2.7,1-3c0-0.2-0.1-0.3-0.2-0.4c-0.4-0.1-0.9,0.3-1.6,1.4c-0.3,0.5-0.7,1.1-1.1,1.8l0,0c1.1-2.7,2.2-4.1,3.5-4.2
		c0.2,0,0.4,0.1,0.6,0.2c0.1,0.2,0.2,0.4,0.2,0.6c0,0.9-0.5,2.3-1.3,4.3c-0.1,0.3,0,0.4,0.3,0.4c0.1,0,0.2-0.1,0.3-0.2
		c0.3-0.4,0.5-0.9,0.8-1.3c0.5-0.7,1-1.4,1.5-2c1.3-1.6,2.6-2.5,3.7-2.5c0.7,0,1,0.3,1,0.9c0,0.5-0.3,1.6-0.8,3.3
		c-0.2,0.3-0.4,0.8-0.6,1.4c0,0.1,0,0.2,0.1,0.2c0.1,0,0.1,0,0.3,0c0.8-1.4,1.8-2.7,2.8-3.7c1.3-1.4,2.4-2.1,3.3-2.1
		c0.8,0,1.2,0.6,1.2,1.9c0,1.5-0.4,3.2-1.2,5.3c-0.3,0.7-0.7,1.7-1.3,3c-0.9,1.9-1.3,3.8-1.3,5.8c0,1.7,0.4,3.2,1.1,4.4
		c1.2,2,3,3.1,5.6,3.1c0.8,0,1.6-0.1,2.5-0.3c2.9-0.7,6.9-3.5,11.9-8.4C214.6,45,215.5,44.2,216.6,43z"/>
	<path d="M214.7,40.1c0,1-0.4,1.9-1.1,2.6c-0.8,0.7-1.6,1.1-2.6,1.1c-0.2,0-0.3,0-0.5,0l-0.3,0.2c0.2,0,0.3,0.1,0.5,0.1
		c1.1,0,2-0.4,2.8-1.2s1.2-1.7,1.1-2.8c0-1-0.3-1.9-0.9-2.5c-0.5-0.6-1.3-0.9-2.3-0.9c-0.5,0-0.9,0.1-1.2,0.3c-1,0.6-2,1.5-3,2.9
		c-1.6,2.1-2.8,3.1-3.6,3.1c-0.3,0-0.5-0.2-0.5-0.6c0-0.4,0.1-0.9,0.3-1.6c0.1-0.4,0.4-1.3,0.9-2.7c-1.1,1.7-1.9,2.9-2.4,3.4
		c-0.9,1-1.9,1.6-2.8,1.5c-1,0-1.5-0.5-1.5-1.5c0-1.3,0.5-2.9,1.6-4.7c-2.4,2.9-4.8,4.3-7.2,4.3c-1.2,0-2.2-0.6-3-1.7
		c-0.6-1-1-2.1-1-3.4c0-1.5,0.4-2.9,1.2-4.2c0.8-1.3,1.9-2.4,3.2-3.1c1.1-0.6,2.2-0.9,3.5-0.9c1.8,0,3.1,0.7,3.8,2
		c0.3,0.4,0.4,0.9,0.4,1.4c0,0.5-0.1,1.1-0.4,1.6c-0.3,0.6-0.7,0.9-1.2,1.1c0.4-0.2,0.8-0.6,1-1.2c0.3-0.5,0.4-1.1,0.4-1.6
		c0-0.5-0.1-0.9-0.3-1.2c-0.7-1.3-2-1.9-3.8-1.9c-1.3,0-2.6,0.4-3.7,1.1c-1.1,0.7-2.1,1.7-2.8,2.9c-0.8,1.3-1.2,2.7-1.2,4.1
		c0,1.3,0.3,2.4,0.9,3.3c0.7,1.1,1.6,1.7,2.8,1.7c1.3,0,2.9-0.7,4.6-2c1.4-1,2.5-2.2,3.5-3.4c2.4-3.3,4.4-4.9,6-4.9
		c0.4,0,0.7,0.2,1.1,0.6l0.5-0.5l1.5-0.1c-0.7,1.4-1.5,3.3-2.5,5.6c-1.2,2.9-1.8,4.6-1.8,5.1c0,0.2,0.1,0.3,0.3,0.3
		c0.3,0,0.8-0.6,1.7-1.7c0.1-0.1,0.2-0.3,0.5-0.6c0.6-0.7,1-1.1,1.2-1.4c0.5-0.5,1-0.9,1.4-1.1c0.5-0.3,1-0.4,1.6-0.4
		c0.4,0,0.8,0.1,1.1,0.2C214,37.2,214.7,38.4,214.7,40.1z M206.5,31.6c0-0.5-0.2-0.8-0.7-0.8c-0.8,0-1.9,1.1-3.3,3.2
		c-1,1.6-1.8,3.1-2.4,4.4c-0.5,1.2-0.8,2.2-0.8,2.9c0,0.6,0.2,0.9,0.7,0.9c1,0,2.4-1.5,4-4.6C205.7,34.8,206.5,32.8,206.5,31.6z"/>
	<path d="M221.8,34.7c0,1.7-0.4,3.3-1.1,4.8c-1.4,2.9-3.4,5.2-5.9,7c-3.4,2.4-6.8,3.8-10,4c-2.2,0.2-4.1-0.5-5.8-1.9
		c-1.7-1.4-2.5-3.2-2.5-5.4c0-0.4,0-0.8,0.1-1.2c0,0.3,0,0.7,0,1c0,2.1,0.8,3.8,2.3,5.1c1.5,1.3,3.3,1.9,5.4,1.9
		c3.4,0,6.8-1.1,10-3.4c2.6-1.8,4.6-4.2,6.1-7.1c0.9-1.7,1.3-3.4,1.3-5.1c0-0.3,0-0.5,0-0.7c-0.2,2.1-1.1,4.2-2.6,6.3
		c-1.3,1.9-2.6,2.9-3.7,2.9c-0.3,0-0.6-0.1-0.9-0.3c-0.3-0.2-0.4-0.5-0.4-0.8c0-0.7,0.3-1.1,0.9-1.1c0.5,0,0.7,0.3,0.7,0.8
		c0,0.1,0,0.3-0.1,0.5s-0.1,0.3-0.1,0.4c0,0.3,0.2,0.4,0.5,0.4c1,0,2-1.7,3-5c0.6-1.9,0.9-3.4,0.9-4.5c0-0.4-0.1-0.8-0.3-1.2
		c-0.2-0.5-0.5-0.7-0.9-0.7c-1,0-2.3,1.4-3.9,4.3c-0.3,0.5-0.9,1.9-1.8,4.1l-1.3,3.1c0.1,0-0.5,0-1.6,0c0-0.1,0.1-0.3,0.1-0.5
		l2.9-7.7c0.6-1.5,0.8-2.3,0.8-2.5c0-0.3-0.1-0.4-0.3-0.4c-0.3,0-0.8,0.4-1.4,1.2c-0.6,0.7-1,1.3-1.3,1.9l-0.1,0
		c0.5-1.3,1.4-2.5,2.8-3.5c0.6-0.5,1.1-0.7,1.4-0.7c0.4,0,0.7,0.3,0.7,0.9c0,0.7-0.3,1.8-0.8,3.4c0,0.1,0,0.2,0.1,0.2
		c0.1,0,0.1,0,0.2-0.1c1.7-3,3.2-4.5,4.6-4.5c1,0,1.7,0.7,2.1,2.2C221.8,33.4,221.8,34.1,221.8,34.7z"/>
	<path d="M235.1,34.7c0,1.7-0.4,3.3-1.1,4.8c-1.4,2.9-3.4,5.2-5.9,7c-3.4,2.4-6.8,3.8-10,4c-2.2,0.2-4.1-0.5-5.8-1.9
		c-1.7-1.4-2.5-3.2-2.5-5.4c0-0.4,0-0.8,0.1-1.2c0,0.3,0,0.7,0,1c0,2.1,0.8,3.8,2.3,5.1c1.5,1.3,3.3,1.9,5.4,1.9
		c3.4,0,6.8-1.1,10-3.4c2.6-1.8,4.6-4.2,6.1-7.1c0.9-1.7,1.3-3.4,1.3-5.1c0-0.3,0-0.5,0-0.7c-0.2,2.1-1.1,4.2-2.6,6.3
		c-1.3,1.9-2.6,2.9-3.7,2.9c-0.3,0-0.6-0.1-0.9-0.3s-0.4-0.5-0.4-0.8c0-0.7,0.3-1.1,0.9-1.1c0.5,0,0.7,0.3,0.7,0.8
		c0,0.1,0,0.3-0.1,0.5s-0.1,0.3-0.1,0.4c0,0.3,0.2,0.4,0.5,0.4c1,0,2-1.7,3-5c0.6-1.9,0.9-3.4,0.9-4.5c0-0.4-0.1-0.8-0.3-1.2
		c-0.2-0.5-0.5-0.7-0.9-0.7c-1,0-2.3,1.4-3.9,4.3c-0.3,0.5-0.9,1.9-1.8,4.1l-1.3,3.1c0.1,0-0.5,0-1.6,0c0-0.1,0.1-0.3,0.1-0.5
		l2.9-7.7c0.6-1.5,0.8-2.3,0.8-2.5c0-0.3-0.1-0.4-0.3-0.4c-0.3,0-0.8,0.4-1.4,1.2c-0.6,0.7-1,1.3-1.3,1.9l-0.1,0
		c0.5-1.3,1.4-2.5,2.8-3.5c0.6-0.5,1.1-0.7,1.4-0.7c0.4,0,0.7,0.3,0.7,0.9c0,0.7-0.3,1.8-0.8,3.4c0,0.1,0,0.2,0.1,0.2
		c0.1,0,0.1,0,0.2-0.1c1.7-3,3.2-4.5,4.6-4.5c1,0,1.7,0.7,2.1,2.2C235.1,33.4,235.1,34.1,235.1,34.7z"/>
</g>
</svg>
