<?xml version="1.0" encoding="utf-8"?>
<!-- Generator: Adobe Illustrator 22.1.0, SVG Export Plug-In . SVG Version: 6.00 Build 0)  -->
<svg version="1.1" id="Ebene_1" xmlns="http://www.w3.org/2000/svg" xmlns:xlink="http://www.w3.org/1999/xlink" x="0px" y="0px"
	 viewBox="0 0 237.3 338" style="enable-background:new 0 0 237.3 338;" xml:space="preserve">
<style type="text/css">
	.st0{fill:#6D6D6C;}
</style>
<path class="st0" d="M174.7,46.5c0.2,0,0.4,0.1,0.6,0.1c0,0,0,0,0,0C175.1,46.6,174.9,46.5,174.7,46.5z M225.9,78.3l3.9-1.2
	c3.8,3.8,5.2,2.4,5.2,2.4c-1.6-1.1-5.1-4-5.1-4c-1.3,0.7-8.4,3.2-8.4,3.2c-3.1,4.7-4.7,6.2-5.4,6.7c-7.8,0.6-14.9,1.3-22.6,0.9
	c-1.6-0.1-3.3-0.2-5-0.3c2.1-2.4,6.7-7,7.3-7.6c3.1-2.8,4.3-6.5,3.2-9.2c-1.1-2.8-4.1-10-4.8-11.8c0,0,0,0,0,0
	C194,57.1,194,57,194,57c1.7-1.4,0.9-3.1,0.4-4.4c1.4-1.3,1.5-3.3-2.1-5.4c-0.5-0.3-1.5-0.9-2.8-1.3c-0.6-1.4-1.1-3-1.2-4.7
	c0-0.3,1.1-0.7,1.6-0.6c3,0.5,5.6,0.2,6.4-0.9c0.7-1.1,0.1-1.9,0.1-2.8c-0.1-0.7,0.2-1.2,0.3-1.3c0.2-0.1,0.5-0.2,0.7-0.3
	c0,0,1.1-0.9-0.3-1.7c0.3-0.1,0.2-0.2,0.6-0.7c0.4-0.4,0.6-1.2,0.3-1.5c-0.3-0.3-0.5-0.5-0.7-1.2c0.7-1,1.4-1.5,1.8-2.7
	c0.2-0.5-0.4-0.8-0.5-0.8c-1.6-0.4-2.1-0.9-3.3-1.7c0.6-0.5,0.7-0.9,0.7-0.9c-0.2,0.3-0.6,0.5-0.8,0.5c0,0-0.1,0-0.1,0
	c-0.7-1.2-1-2.8-1.2-4.6c0-0.2-0.1-0.4-0.1-0.7l0.1,0.2l0.3-1.1c0,0,0,0,0,0l0.1,0.9l0.1-0.5c0.4,0.8,0.8,1.1,0.9,1.2
	c-0.3-0.3-0.6-0.8-0.9-1.5l0.5-1.8c0.3,0.9,0,2.4,0,2.4c0.2-0.4,0.4-0.9,0.5-1.3c0-0.1,0-0.2,0.1-0.3c0,0,0-0.1,0-0.1v0
	c0.2-2-0.8-4.3-3.4-7.6c3,2.7,3.5,5.4,3.4,6.9c0.2-2.5-0.9-4.6-2.3-6.3c2.8,1.8,2.8,5.5,2.9,6.1c0.2-4.7-1.9-7.1-6.5-9.7
	c-4.2-3.7-10.8-2.5-12.8-0.2c-2.3,0.1-5.5,0.6-8.5,2c-4.5,1.4-7.9,5-8.1,7.3c-0.7,0.4-1.3,0.8-2,1.4c-0.4,0.4-1.2,1.4-1.4,1.7
	c-0.6,1-1.6,3.2-1.2,6.1c-0.1-1.7,0.2-4,1.8-6.1c0,0,0,0,0,0c-1.1,2.3-1.5,4.4-1.1,6.8c0.3,1.9,1.5,4.1,1.5,6c0,0.7-0.3,1.7-0.3,1.7
	s0.9-1.1,0.1-3.9c-0.8-2.7-2.7-8.2,2.7-12.6c0,0.1,0,0.3,0.1,0.4c-0.4,0.7-1.5,2.6-1.9,3.6c-1.5,3.8-1.9,8.2,1,12.6
	c0,0,6,7.7,1.8,10.7c0,0,3.2-1.3,1-6.5c-1.7-3.9-7.2-9.2-3.4-16.6c-1.2,3.2-0.8,6.7,0.3,9.4c0.3,0.8,0.7,1.6,1.1,2.4
	c0.1,0.2,0.3,0.5,0.4,0.7c0.7,2.2,2.1,4.3,3.7,6.6c-0.6,2.9-1.6,5.3-3.3,7c-1.6,0.9-3.1,1.4-3.6,1.5c1.1-0.3,2.1-0.6,3-1
	c-0.9,0.8-2,1.4-3.3,1.9c0,0,1.9-0.4,4-2.2c2.5-1.3,4.1-3.1,5-5c0.6,0.7,1.3,1.3,2,1.9c0,1.1-0.1,2.2-0.3,3.1
	c-0.2,1.3-0.6,2.4-0.6,2.4c0.2-0.4,1.5-2.9,2.1-4.6c1.3,1,2.8,1.9,4.4,2.7c-0.8-0.4-2.4-1.4-4.3-3.1c0.1-0.2,0.1-0.4,0.2-0.6
	c1.6,1.1,3.3,1.8,5.3,2.1c-1.3-0.2-3.2-0.8-5.3-2.4l0-0.5c2.2,1.8,4,2.8,5.8,3.1c0,0,0,0,0,0c0,0,0,0,0,0c0,0,0,0,0,0c0,0,0,0,0,0
	c0.9,0.1,1.8,0.1,2.7-0.2c0,0-2.4,0-3.6-0.9l4-0.1L177,45l1.8,0l-0.9-0.7l1.4-0.1l-0.4-0.3l1-0.3c0.7,1.9,0.7,4,0.4,6.2c0,0,0,0,0,0
	c-0.9,0.2-1.7,0.3-2.6,0.4c-1.2,0.1-3.2,0.9-5.7,2.3c-0.2,0.1-0.4,0.2-0.6,0.2c-5.2,2-10.5,5.3-17.5,11.2
	c-6,5.1-11.7,12.9-18.2,17.7c-9.5,7-22.2,2.2-32.2,2.3c0.8,0.1,7.6,8.4,7.6,8.4c6.8,2.3,25.4-5,32.6-14.8
	c3.2-4.3,8.8-11.7,13.9-15.8c2.8-2.2,5.6-4,8.5-5.6c-2.6,1.8-5.4,3.9-8.2,6.1c-16.1,12.9-13,38.8-20.6,52.9
	c-4.1,7.5-13,15.3-25.5,7.9c-29.6-17.6-5.8-27.4-0.5-22.5c0.2,0.2,0.4,0.4,0.6,0.7c-3-8.9-22.4-5.7-20.3,11.6
	c2.3,18.5,34.6,22.3,44.1,6.4c8.4-14,11.1-39.3,24.9-51.7c2.7-2.4,5.3-4.1,7.8-5.4c-3.9,10.4-7.2,17.6-9.3,21.8
	c-1.4,2.8-3.7,6.9,1.2,11.3c0.3,0.2,0.6,0.4,1,0.6c-0.4,0.6-0.8,1.1-1.2,1.6c-2.6,2.9-4.5,3.6-8.1,8.6c-0.1,0-0.1,0-0.1,0
	s-0.2,0.3-0.6,0.8c0,0-0.1,0.1-0.1,0.1c0,0,0,0.1-0.1,0.1c0,0.1-0.1,0.1-0.1,0.2c0,0-0.1,0.1-0.1,0.1c0,0-0.1,0.1-0.1,0.1
	c-0.9,1.4-2.5,3.6-4.4,6.3c-0.3,0.4-0.6,0.9-1,1.4c-0.4,0.6-0.9,1.2-1.3,1.9c0,0,0,0,0,0c-2.2,3.2-4.8,6.8-7.5,10.5v0
	c-0.4,0.5-0.8,1.1-1.2,1.7c-0.4,0.5-0.7,1-1.1,1.5c-0.2,0.3-0.4,0.5-0.6,0.8v0c-1.1,1.4-2.1,2.8-3.2,4.2l0,0c0,0,0,0,0,0
	c-0.8,1-1.6,2.1-2.4,3.1c-0.1,0.2-0.2,0.3-0.4,0.5v0c-0.1,0.2-0.3,0.3-0.4,0.5c-0.9,1.2-2,2.3-3.1,3.5c-0.2,0.2-0.4,0.3-0.5,0.5
	c-1.7,1.6-3.6,3.2-5.7,4.8c-0.2,0.1-0.4,0.3-0.6,0.4c-0.6,0.5-1.3,0.9-1.9,1.4c-0.1,0-0.1,0.1-0.2,0.1c-2.4,1.6-4.9,3.1-7.5,4.6
	c0,0-0.1,0.1-0.1,0.1c-0.8,0.5-1.7,0.9-2.5,1.4c-0.1,0.1-0.2,0.1-0.3,0.2c-2.5,1.3-5.1,2.6-7.7,3.8c-0.4,0.2-0.8,0.4-1.2,0.6
	c-0.6,0.3-1.2,0.6-1.9,0.8c0,0,0,0-0.1,0c-2.1,0.9-4.1,1.8-6.1,2.6v0c-0.1,0.1-0.3,0.1-0.4,0.2c-1.8,0.7-3.7,1.5-5.4,2.1
	c0,0,0,0,0,0c-0.9,0.3-1.7,0.7-2.6,1c0,0,0,0,0,0c-0.1,0-0.2,0.1-0.3,0.1c-0.7,0.2-1.3,0.5-2,0.7c-0.1,0-0.1,0-0.2,0.1v0
	c-0.5,0.2-1,0.3-1.4,0.5c0,0-0.1,0-0.1,0c-0.4,0.2-0.9,0.3-1.3,0.5c-0.1,0-0.1,0-0.2,0.1c-0.1,0-0.2,0.1-0.3,0.1v0
	c-1.8,0.6-3.4,1.1-4.8,1.6l0,0c-4.6,1.5-7.4,2.3-7.4,2.3s0.9,1.1,2.6,2.8c0,0,0.1,0.1,0.1,0.1c1.8,2,4.5,4.9,7.8,8.2c0,0,0,0,0,0
	c2.3,2.4,4.9,5,7.8,7.7c0,0,0.1,0.1,0.1,0.1c0,0,0,0,0,0c0.6,0.5,1.1,1.1,1.7,1.6c0.3,0.3,0.6,0.6,1,0.9v0c0.1,0.1,0.2,0.2,0.3,0.2
	c0.6,0.6,1.3,1.2,1.9,1.8c0,0,0,0,0.1,0.1v0c0.9,0.8,1.7,1.6,2.6,2.4h0c0.4,0.4,0.9,0.8,1.3,1.2l0,0c0.4,0.4,0.8,0.7,1.3,1.1
	c0.2,0.2,0.4,0.3,0.6,0.5v0c0.9,0.8,1.9,1.6,2.8,2.4c-4.9,3.2-8.4,5.7-8.4,5.7s-9.4,9.9-19.8,15.9l-0.5-0.7
	c-10,5.5-15.4,5.7-18.4,6.1c-0.9,0.1-3.1-0.6-3.7-0.8c-1.2-0.5-3.1-1-5.4-0.5c-1.8,0.4-2.5,0.7-4.8,3.5c-1.3,1.9-9.1,6.6-18.5,11
	l0.4,0.8c2.2-0.9,13.4-5.6,15.5-5.4c0,1.2,0.5,1.9-1.3,3.9c-1.5,1.7-2.5,3-5.8,5.6c-1.1,0.5-4.6,3.5-4,6.3c1,4.5,5.7,13,7.9,17.3
	c1.2,2.4,2.6,0.9,2.4-0.5c-0.2-2.4-1.1-10.8,0.1-12.7c0.4-1,0.9-1.9,1.4-2.5c2.2-2.4,6.3-5.6,10.5-9.3l0.9-0.8c1-0.9,2.3-2,3.9-3.3
	c0.2-0.1,0.7-0.4,0.8-0.4c0.1,0.1,0.1,0.2,0.1,0.3l-1,1.5c-0.2,0-0.5,0-0.7,0.1c-0.6,0.3-0.8,1-0.6,1.6c0.3,0.6,1,0.8,1.6,0.6
	c0.6-0.3,0.8-1,0.6-1.6c-0.1-0.2-0.2-0.4-0.4-0.5l0.9-1.5c0,0,1-1.1,1-1.3c0.2-0.2,0.4-0.7,0.4-0.7c1-0.7,9.4-5.3,11-6.1
	c3.2-1.5,8.1-3.1,9.5-3.5c0-0.1-0.1-0.2-0.1-0.3c10.4-4.7,25.6-11.1,39.1-16.5c0.6,0.4,1.2,0.8,1.8,1.2v0c0.2,0.2,0.5,0.3,0.7,0.4
	l0,0c0.3,0.2,0.5,0.3,0.8,0.5l0,0c0.1,0.1,0.2,0.1,0.3,0.2l0,0c0.1,0.1,0.3,0.2,0.4,0.2c0.3,0.2,0.7,0.4,1,0.6
	c0.2,0.1,0.4,0.2,0.6,0.3l0,0c2,1.2,4,2.2,6,3.1l0,0c0.2,0.1,0.3,0.1,0.5,0.2c0.3,0.1,0.6,0.3,1,0.4c0.2,0.1,0.3,0.1,0.5,0.2l0,0
	c0.4,0.2,0.9,0.3,1.3,0.5l0,0c0,0,0.1,0,0.1,0c0.2,0.1,0.4,0.1,0.6,0.2c0.3,0.1,0.7,0.2,1,0.3l0,0c0.3,0.1,0.6,0.2,0.8,0.2l0,0
	c0,0,0,0,0,0c0.3,0.1,0.5,0.1,0.8,0.2c0.3,0.1,0.6,0.1,0.9,0.2l0,0c1,0.2,2,0.3,2.9,0.3c2,0,3.9,0,5.8-0.1c0.1,0,0.1,0,0.2,0v0
	c0.5,0,1,0,1.5,0v0c0,0,0.1,0,0.1,0c4.3-0.2,8.1-0.5,11.6-0.9c0.7,9.7,2.3,20.4,4.1,26.7c1.7,5.9,3.9,9.9,4.5,24.2l-0.9,0.2
	c0.7,11.4,0.1,16.9-0.8,19.8c-0.3,0.8-1.8,2.5-2.3,3c-1,0.9-2.2,2.4-2.7,4.7c-0.4,1.8-0.4,2.6,1.2,5.8c1.2,2.1,2.1,12,2,22.6
	l0.9-0.2c0,0,0.6-15.3,1.8-17.3c1.1,0.5,1.9,0.4,3,2.8c0.9,2.1,1.9,5.1,2.9,9.1c-0.1,1.5,0,3.6,4.3,5.8c5.1,2.7,15.3,0.6,15.4,0.6
	c0.7-0.8,3.1-2.4,2.9-3.2c-0.6-2.3-9.7-4.2-10.9-6.1c-0.7-0.8-1.3-1.6-1.6-2.3c-1.3-3-2.4-8.1-4-13.5l-0.3-1.1
	c-0.4-1.3-0.9-3-1.3-4.9c0-0.2,0-0.8,0-0.9c0.1,0,0.2,0,0.3,0l0.9,1.5c-0.1,0.2-0.2,0.4-0.2,0.7c0,0.7,0.5,1.2,1.2,1.2
	c0.7,0,1.2-0.5,1.2-1.2c0-0.6-0.5-1.2-1.2-1.2c-0.2,0-0.4,0.1-0.6,0.2l-1-1.4c0,0-0.6-1.4-0.8-1.4c-0.1-0.3-0.5-0.7-0.5-0.7
	c-0.2-1.2-0.4-12.6-0.4-14.5c0.1-3.5,0.2-6.7,0.4-8.3c-0.1,0-0.3,0-0.4,0c0.2-15.2,1.4-39.3,2.5-55.8c0.3-0.1,0.5-0.2,0.8-0.4
	c0,0,0,0,0,0c0.7-0.3,1.4-0.7,2-1v0c0,0,0,0,0.1,0c0.4-0.2,0.9-0.5,1.3-0.7c0,0,0,0,0.1,0c2.4-1.4,4.6-2.9,6.7-4.5v0
	c0.2-0.2,0.5-0.3,0.7-0.5v0c0.4-0.3,0.8-0.7,1.3-1c0.4-0.4,0.9-0.7,1.4-1.1v0c2.4-1.8,4.9-3.6,7.5-5.3l0,0c0.4-0.3,0.9-0.6,1.3-0.8
	v0l0,0c0,0,0.1-0.1,0.1-0.1c0.4-0.3,0.9-0.5,1.3-0.8c0,0,0,0,0,0c2.3-1.4,4.6-2.8,6.9-4.1c0,0,0.1,0,0.1-0.1
	c0.2-0.1,0.3-0.2,0.5-0.3c0,0,0.1,0,0.1-0.1v0c0.4-0.2,0.9-0.5,1.3-0.7c0.5-0.3,1-0.5,1.4-0.8c2.6-1.4,5-2.6,7.2-3.7
	c0.2-0.1,0.4-0.2,0.6-0.3v0c0.5-0.2,0.9-0.5,1.3-0.7v0c0,0,0,0,0,0c0,0,0.1,0,0.1,0c0.1-0.1,0.2-0.1,0.4-0.2c0.3-0.2,0.7-0.3,1-0.5
	c0,0,0,0,0,0c4.3-2.1,7.1-3.3,7.1-3.3c-4.9-6.8-9.2-12.8-12.9-18c-0.1-0.1-0.1-0.2-0.2-0.2c-3.7-5.2-6.9-9.7-9.6-13.7
	c0,0-0.1-0.1-0.1-0.1c-4.3-6.3-7.5-11.2-10-15.1c-0.5-0.8-0.9-1.5-1.4-2.2c-0.1-0.2-0.2-0.4-0.3-0.5c-0.1-0.1-0.2-0.3-0.2-0.4
	c-0.3-0.5-0.6-0.9-0.8-1.4c0-0.1-0.1-0.1-0.1-0.2c0,0,0-0.1-0.1-0.1c0,0,0,0,0,0v0c-0.3-0.5-0.5-0.9-0.8-1.3c-0.2-0.3-0.4-0.7-0.6-1
	c-0.6-1.1-1.2-2.2-1.7-3.2v0c0-0.1-0.1-0.1-0.1-0.2c-0.3-0.6-0.6-1.2-0.8-1.7c0-0.1-0.1-0.2-0.1-0.3c-0.3-0.6-0.5-1.2-0.8-1.8
	c-0.3-0.8-0.7-1.5-1-2.3c-0.2-0.4-0.3-0.8-0.5-1.2c-0.7-1.7-1.4-3.5-2.3-5.6c0,0-0.1-0.1-0.2-0.1c0.1-0.7,0.2-1.3,0.4-2
	c1.3,2.2,2.7,4.4,4,6.5c1.8,2.8,6.1,9,6.4,9.8c1,1.5,2.1,5.7,3.7,7.1c3.1,2.6,4.9,4.1,5.9,4.8c0.3,1.6,0.7,2.7,2.1,3.2
	c-0.6-2.5-1.1-6-1.2-8.7c2,4.7,4.1,9.3,6.1,8.4c-0.5-0.8-1.1-1.6-1.6-2.6c0.8,0.6,1.6,0.8,2.3,0.2c-2.1-1.8-4.4-5.4-5.6-8.2
	c-0.1-0.4-0.3-0.9-0.4-1.3c0,0-4.2-2.1-5.7-3.5c-0.1-0.1-2.2-2.5-2.8-3.8c-2-2.6-4.6-11.8-6.6-17.2c-0.9-2.5-1.8-4.6-2.6-6.4
	c0.8-2.2,1.8-5,2.8-7.8c7.6-0.9,17.8-2.4,31.3-5.1c2.4,0.2,5.3-1.5,5.3-1.5c2.9-1.9,5-4.7,5-4.7c1.6-0.7,2.5-1.1,3.1-1.3
	c-2.4,2.6-1.6,3.3-1.6,3.3c0.8-0.9,2.4-2.7,3.1-3.5c1.2,3.6,2.2,3,2.2,3c-1.3-3.3-1.7-4.9-1.8-5.5c1.8,3.5,2.8,2.9,2.8,2.9
	c-1.2-2.3-2.8-6-2.8-6l-4.1,1.2C225,78.9,225.9,78.3,225.9,78.3z M166.6,40.9c0.2,0.3,0.5,0.7,0.7,1.1c0.1,0.1,0.1,0.3,0.2,0.4
	c-0.3-0.3-0.7-0.7-1-1.1C166.5,41.1,166.6,41,166.6,40.9z M160.3,17.4c0-0.1,0-0.2,0-0.3c0.1-0.1,0.2-0.2,0.3-0.2c0,0,0.1,0,0.1,0
	C160.5,17,160.4,17.2,160.3,17.4z M162,14.1c-0.5,0.7-0.6,1.1-0.7,1.4c-0.2,0.1-0.4,0.2-0.7,0.3c0.2-2,2.8-4.6,5.8-6
	C164.8,10.8,163.3,12.2,162,14.1z M161.6,47c1.2-1.3,2.4-3.1,3.1-5.7c0.3,0.4,0.6,0.7,0.9,1.1C164.8,44.4,163.2,45.9,161.6,47z
	 M166,41.4c-0.2-0.3-0.4-0.6-0.6-0.8C165.6,40.8,165.8,41.1,166,41.4C166,41.4,166,41.4,166,41.4z M166.1,40.8
	c-0.3-0.4-0.6-0.9-1-1.3c0-0.1,0-0.1,0-0.2c0.3,0.4,0.7,0.8,1,1.1C166.2,40.5,166.2,40.6,166.1,40.8z M166.3,41.8c0,0,0-0.1,0-0.1
	c0.4,0.5,0.9,0.9,1.4,1.4c0,0.2,0.1,0.4,0.1,0.5C167.3,43.1,166.8,42.5,166.3,41.8z M167.9,42.1c0.2,0.2,0.5,0.4,0.7,0.7
	c0.1,0.2,0.1,0.5,0.1,0.7c-0.2-0.2-0.4-0.3-0.6-0.5C168.1,42.7,168,42.4,167.9,42.1z M168.4,46.3c0-0.5,0.1-0.9,0-1.4
	c0.1,0.1,0.2,0.1,0.3,0.2C168.6,45.5,168.5,45.9,168.4,46.3z M168.7,44.6c-0.1-0.1-0.2-0.2-0.4-0.4c0-0.2,0-0.4-0.1-0.6
	c0.1,0.1,0.3,0.2,0.5,0.4C168.8,44.1,168.8,44.3,168.7,44.6z M195.8,138.2c0.2,1.1,0.4,2.1,0.5,3c-1.1-1.3-2.9-2.4-3.6-3.8
	C194.2,137.6,195.7,137.6,195.8,138.2z M225.9,80.7l3.5-1.4c0.2,0.5,0.4,0.9,0.6,1.3l0,0c-0.1-0.1-0.2-0.2-0.2-0.2l-4,0.7
	C225.3,80.7,225.9,80.7,225.9,80.7z M225.6,82.6l3.6-1.1c0.1,0.2,0.1,0.4,0.1,0.6l-3.5,0.9C225.2,82.8,225.6,82.6,225.6,82.6z"/>
</svg>
