<?xml version="1.0" encoding="utf-8"?>
<!-- Generator: Adobe Illustrator 22.1.0, SVG Export Plug-In . SVG Version: 6.00 Build 0)  -->
<svg version="1.1" id="Ebene_1" xmlns="http://www.w3.org/2000/svg" xmlns:xlink="http://www.w3.org/1999/xlink" x="0px" y="0px"
	 viewBox="0 0 755.7 188" style="enable-background:new 0 0 755.7 188;" xml:space="preserve">
<g>
	<path d="M0.4,164H6v-28.9H0.4v-1H12v7.6h0.1c1-2.9,2.5-5,4.4-6.3c1.9-1.3,4.2-2,6.9-2c2.4,0,4.5,0.5,6.4,1.6
		c1.9,1.1,3.1,2.8,3.6,5.3h0.1c0.3-0.9,0.8-1.7,1.4-2.5c0.6-0.8,1.3-1.5,2.2-2.2c0.9-0.6,1.9-1.2,3.1-1.5c1.2-0.4,2.5-0.6,4-0.6
		c7,0,10.5,3.6,10.5,10.7v20h5.5v1H42.9v-1h5.5v-24.5c0-1.6-0.4-2.9-1.3-3.8c-0.9-0.9-2.1-1.4-3.6-1.4c-1.2,0-2.4,0.2-3.6,0.7
		c-1.2,0.5-2.3,1.1-3.2,2.1c-1,0.9-1.7,2.1-2.3,3.5c-0.6,1.4-0.9,3.1-0.9,5V164H39v1H21.7v-1h5.5v-23.5c0-2.1-0.4-3.7-1.3-4.7
		c-0.9-1-2-1.5-3.5-1.5c-1,0-2.1,0.3-3.3,0.8c-1.2,0.5-2.3,1.3-3.4,2.4c-1,1.1-1.9,2.5-2.6,4.2c-0.7,1.7-1,3.8-1,6.3v16h5.5v1H0.4
		V164z"/>
	<path d="M96.1,164.2c-0.6,0.5-1.4,0.9-2.2,1.3c-0.9,0.4-1.9,0.5-3.2,0.5c-2.3,0-4-0.5-5-1.5c-1-1-1.7-2.4-2.1-4.1h-0.1
		c-0.2,0.4-0.5,1-0.8,1.6c-0.3,0.6-0.9,1.3-1.5,1.9c-0.7,0.6-1.6,1.1-2.8,1.5c-1.2,0.4-2.6,0.6-4.4,0.6c-2,0-3.6-0.2-4.8-0.7
		c-1.2-0.5-2.1-1-2.8-1.7c-0.7-0.7-1.1-1.4-1.3-2.3c-0.2-0.8-0.3-1.6-0.3-2.3c0-1.7,0.3-3,1-4c0.7-1,1.5-1.8,2.6-2.4
		c1.1-0.6,2.3-1.1,3.6-1.5c1.3-0.4,2.7-0.8,4-1.2c1.6-0.5,2.9-1,3.9-1.4c1-0.4,1.8-0.9,2.4-1.4c0.6-0.6,1-1.2,1.2-2.1
		c0.2-0.8,0.3-2,0.3-3.4c0-1.2-0.1-2.2-0.2-3.1c-0.1-0.9-0.4-1.7-0.8-2.3c-0.4-0.6-0.9-1.1-1.7-1.5c-0.7-0.3-1.7-0.5-2.9-0.5
		c-1.6,0-2.9,0.3-3.9,0.8c-1,0.6-1.5,1.5-1.5,2.7c0,0.8,0.1,1.6,0.2,2.4c0.1,0.8,0.2,1.4,0.2,1.8c0,0.7-0.2,1.2-0.7,1.7
		c-0.5,0.5-1.2,0.7-2.1,0.7c-1.6,0-2.6-0.3-3-0.9c-0.4-0.6-0.6-1.3-0.6-2.2c0-1.1,0.2-2.1,0.7-3c0.5-1,1.2-1.8,2.1-2.6
		c0.9-0.7,2.1-1.3,3.5-1.8c1.4-0.4,3-0.6,4.9-0.6c2.2,0,4.1,0.3,5.5,0.8c1.5,0.6,2.7,1.3,3.6,2.2c0.9,0.9,1.6,2,1.9,3.2
		c0.4,1.2,0.6,2.4,0.6,3.7V161c0,1.4,0.2,2.3,0.6,2.8c0.4,0.5,1.1,0.7,1.9,0.7c0.5,0,1.1-0.1,1.7-0.3c0.6-0.2,1.1-0.5,1.7-0.9
		L96.1,164.2z M83.5,147.3h-0.1c-0.1,0.6-0.9,1.2-2.4,1.9l-5.4,2.2c-1.5,0.6-2.7,1.5-3.5,2.6c-0.8,1.1-1.2,2.5-1.2,4.2
		c0,0.7,0.1,1.5,0.2,2.2c0.1,0.8,0.4,1.5,0.8,2.1c0.4,0.6,0.9,1.1,1.6,1.5c0.7,0.4,1.6,0.6,2.7,0.6c1.6,0,2.9-0.3,3.9-1
		c1-0.7,1.7-1.5,2.2-2.5c0.5-1,0.8-2.1,1-3.3c0.2-1.2,0.3-2.2,0.3-3.2V147.3z"/>
	<path d="M98.4,164h5.5v-28.9h-5.5v-1h11.7V164h5.5v1H98.4V164z M103,117.3c0-1.1,0.4-2,1.1-2.7c0.7-0.7,1.6-1.1,2.7-1.1
		s2,0.4,2.7,1.1c0.7,0.7,1.1,1.6,1.1,2.7c0,1.1-0.4,2-1.1,2.7s-1.6,1.1-2.7,1.1s-2-0.4-2.7-1.1S103,118.4,103,117.3z"/>
	<path d="M119.7,164h5.5v-49.9h-5.5v-1h11.7v34.4h0.8l14.3-12.4h-5.1v-1h11.2v1h-4.3l-11.2,9.7L153,164h3.1v1h-16.2v-1h5.1
		l-12.8-15.5h-0.8V164h4v1h-15.7V164z"/>
	<path d="M166.2,147.1c0,0.5,0,1,0,1.5c0,0.5,0,1.1,0,1.9c0,1.6,0.1,3.2,0.3,5c0.2,1.7,0.6,3.3,1.3,4.7c0.6,1.4,1.6,2.5,2.9,3.5
		c1.3,0.9,3,1.4,5.1,1.4s3.9-0.3,5.2-0.9c1.4-0.6,2.4-1.4,3.2-2.3c0.8-0.9,1.4-1.8,1.8-2.7c0.4-0.9,0.7-1.7,0.9-2.2l1.1,0.2
		c-0.1,0.5-0.4,1.3-0.8,2.3c-0.4,1-1.1,2-1.9,3c-0.9,1-2.1,1.9-3.6,2.6c-1.5,0.7-3.5,1.1-5.9,1.1c-2.4,0-4.6-0.4-6.7-1.2
		c-2-0.8-3.8-1.9-5.3-3.3c-1.5-1.4-2.6-3.2-3.5-5.2c-0.8-2-1.2-4.2-1.2-6.7c0-2.1,0.4-4.2,1.3-6.2c0.8-2,2-3.8,3.5-5.3
		c1.5-1.5,3.2-2.8,5.2-3.7c2-0.9,4.1-1.4,6.3-1.4c1.3,0,2.8,0.2,4.3,0.7c1.5,0.5,3,1.3,4.3,2.3c1.3,1.1,2.4,2.5,3.3,4.3
		c0.9,1.8,1.3,4,1.3,6.6H166.2z M181,146.1c0.1-0.7,0.1-1.3,0.1-1.9c0-0.6,0-1.2,0-1.8c0-1.6-0.2-3-0.5-4c-0.3-1.1-0.7-1.9-1.3-2.5
		c-0.6-0.6-1.2-1.1-2-1.3c-0.8-0.3-1.6-0.4-2.6-0.4c-1.6,0-3,0.3-4,1c-1.1,0.6-1.9,1.5-2.5,2.6c-0.6,1.1-1.1,2.4-1.4,3.8
		c-0.3,1.4-0.5,3-0.6,4.5H181z"/>
	<path d="M199,111h1.4V183H199V111z"/>
	<path d="M207.3,135.1v-1h18.3v1h-4.7l7.4,18.7l5.7-15.3l-1.4-3.4h-3.7v-1h18v1h-4.8l7.4,18.7l6.9-18.7h-5v-1h9.7v1h-3.5l-11.8,31.8
		h-0.5L234.6,140l-10,26.9h-0.5l-12.5-31.8H207.3z"/>
	<path d="M273.3,150.2c0,1.7,0.1,3.5,0.2,5.2c0.1,1.8,0.5,3.3,1.2,4.8c0.6,1.4,1.5,2.6,2.7,3.5c1.2,0.9,2.9,1.4,5,1.4
		c1.9,0,3.5-0.4,4.9-1.1c1.3-0.7,2.4-1.5,3.2-2.5c0.8-0.9,1.5-1.9,1.9-2.8c0.4-0.9,0.6-1.6,0.7-2l1,0.4c-0.2,0.9-0.6,1.9-1.2,2.9
		c-0.6,1-1.4,2-2.4,2.9c-1,0.9-2.3,1.6-3.7,2.2c-1.5,0.6-3.3,0.9-5.4,0.9c-2.5,0-4.8-0.4-7-1.1c-2.2-0.7-4-1.8-5.7-3.2
		c-1.6-1.4-2.9-3.1-3.8-5.2c-0.9-2-1.4-4.4-1.4-7c0-2.1,0.4-4.1,1.3-6.1c0.9-2,2.1-3.7,3.6-5.2c1.5-1.5,3.3-2.7,5.3-3.7
		s4.2-1.4,6.6-1.4c1.7,0,3.4,0.3,5,0.8c1.7,0.5,3.2,1.3,4.5,2.5c1.3,1.1,2.4,2.5,3.3,4.3c0.9,1.8,1.3,3.9,1.3,6.3h-21.3V150.2z
		 M284.8,141.1c0-0.5,0-1.2-0.1-1.9c0-0.8-0.2-1.5-0.5-2.3s-0.8-1.4-1.4-1.9c-0.6-0.5-1.5-0.8-2.7-0.8c-1.6,0-2.9,0.4-3.8,1.2
		c-0.9,0.8-1.5,1.7-2,2.9c-0.4,1.2-0.7,2.4-0.8,3.8c-0.1,1.4-0.2,2.7-0.3,3.9h11.5V141.1z"/>
	<path d="M313.4,134.1v6.1h0.1c0.9-1.8,2-3.4,3.5-4.7c1.5-1.3,3.4-2,5.8-2c2,0,3.7,0.5,4.9,1.6c1.2,1.1,1.9,2.6,1.9,4.5
		c0,1.4-0.4,2.6-1,3.4c-0.7,0.8-1.8,1.2-3.4,1.2c-1.1,0-2.1-0.2-3-0.7c-0.9-0.5-1.4-1.3-1.4-2.6c0-0.1,0-0.4,0.1-0.8
		c0-0.4,0.1-0.7,0.2-1.2c0.1-0.4,0.1-0.8,0.2-1.1c0-0.3,0.1-0.5,0.1-0.6c0-0.4-0.1-0.7-0.2-0.9c-0.1-0.2-0.3-0.4-0.5-0.6
		c-0.2-0.2-0.5-0.3-1-0.3c-0.5,0-1.1,0.2-1.8,0.7c-0.7,0.5-1.4,1.1-2,2c-0.6,0.9-1.2,1.9-1.6,3.1c-0.5,1.2-0.7,2.6-0.7,4.1V164h5.7
		v1H300v-1h4.7v-28.9H300v-1H313.4z"/>
	<path d="M345.2,113v34.4h0.4l13.4-12.3h-5.3v-1H365v1h-4.6l-8.1,7.6l16.5,21.3h2.8v1h-19.1v-1h5.2l-12.2-15.6h-0.4V164h4.5v1h-18
		v-1h4.8v-49.9h-4.8v-1H345.2z"/>
	<path d="M388.2,134.1v5.1h0.1c0.3-0.5,0.7-1,1.2-1.7c0.5-0.6,1.1-1.3,1.9-1.9s1.8-1.1,2.9-1.5s2.5-0.6,4.1-0.6
		c1.7,0,3.1,0.2,4.2,0.5s2.1,0.8,2.8,1.4c0.7,0.6,1.3,1.2,1.8,1.8c0.5,0.7,0.9,1.3,1.3,2c0.7-1.3,1.5-2.3,2.4-3.1
		c0.9-0.7,1.8-1.3,2.7-1.7c0.9-0.4,1.8-0.7,2.6-0.8c0.8-0.1,1.5-0.2,2-0.2c2.7,0,4.9,0.4,6.3,1.2c1.5,0.8,2.6,1.8,3.2,2.9
		s1.1,2.3,1.2,3.6c0.1,1.2,0.2,2.3,0.2,3.2V164h4.8v1h-17.8v-1h4.3v-22.3c0-2-0.4-3.6-1.1-4.6c-0.7-1.1-2-1.6-3.7-1.6
		c-0.5,0-1.2,0.1-1.9,0.4c-0.8,0.3-1.5,0.7-2.2,1.3c-0.7,0.6-1.3,1.3-1.8,2.3c-0.5,0.9-0.8,2.1-0.8,3.4V164h4.3v1h-17.4v-1h4.3
		v-22.9c0-2.1-0.5-3.6-1.4-4.4c-0.9-0.8-1.9-1.3-3-1.3c-1.9,0-3.6,0.8-5,2.5c-0.4,0.5-0.7,1-1,1.5c-0.3,0.5-0.5,1.1-0.7,1.7
		c-0.2,0.6-0.3,1.4-0.4,2.2c-0.1,0.8-0.1,1.9-0.1,3.1V164h4.3v1h-17.8v-1h4.8v-28.9h-4.8v-1H388.2z"/>
	<path d="M469.5,165.6c-1.3,0.2-2.5,0.3-3.6,0.3c-2.4,0-4.3-0.4-5.4-1.3c-1.2-0.9-1.9-2.1-2.2-3.6h-0.1c-0.8,1.9-1.8,3.2-3.2,3.9
		c-1.3,0.7-3.3,1-5.8,1c-1.2,0-2.3-0.1-3.5-0.4c-1.2-0.2-2.3-0.6-3.3-1.2c-1-0.5-1.8-1.3-2.5-2.2c-0.6-0.9-0.9-2.1-0.9-3.4
		c0-1.4,0.3-2.6,0.8-3.5c0.6-0.9,1.3-1.7,2.2-2.4c0.9-0.6,1.9-1.2,3-1.6c1.1-0.4,2.3-0.8,3.5-1.2c2-0.6,3.6-1.1,4.8-1.5
		c1.2-0.4,2.2-0.8,2.8-1.3c0.7-0.5,1.1-1,1.4-1.5c0.3-0.6,0.4-1.3,0.4-2.2v-4.4c0-1.3-0.3-2.5-0.9-3.5c-0.6-1.1-1.8-1.6-3.5-1.6
		c-1.1,0-2.1,0.3-2.9,0.8c-0.8,0.5-1.2,1.4-1.2,2.8c0,0.1,0,0.4,0.1,0.8c0,0.4,0.1,0.8,0.1,1.2c0,0.4,0.1,0.8,0.1,1.2
		c0,0.4,0.1,0.6,0.1,0.8c0,0.7-0.2,1.3-0.5,1.7c-0.3,0.4-0.7,0.7-1.2,0.9c-0.5,0.2-0.9,0.3-1.4,0.3c-0.5,0-0.9,0-1.3,0
		c-0.5,0-1,0-1.5-0.1c-0.5-0.1-0.9-0.2-1.3-0.5c-0.4-0.3-0.7-0.6-1-1.1c-0.3-0.5-0.4-1.1-0.4-1.9c0-1.2,0.3-2.4,1-3.3
		c0.7-1,1.6-1.8,2.8-2.5c1.2-0.6,2.5-1.1,3.9-1.5c1.5-0.3,3-0.5,4.6-0.5c1.8,0,3.5,0.1,5.2,0.4c1.6,0.3,3,0.8,4.2,1.6
		c1.2,0.8,2.1,1.8,2.8,3.1c0.7,1.3,1,3,1,5v17.9c0,0.9,0.1,1.7,0.4,2.4c0.3,0.7,0.9,1,2,1c0.6,0,1.1-0.1,1.5-0.4
		c0.4-0.2,0.8-0.6,1.2-1l0.6,0.6C471.7,164.9,470.8,165.5,469.5,165.6z M457.7,147.1c-0.1,0.3-0.3,0.6-0.5,0.8s-0.7,0.6-1.4,0.9
		c-0.9,0.4-1.8,0.9-2.7,1.3c-0.9,0.4-1.7,0.9-2.4,1.5s-1.3,1.4-1.8,2.3c-0.5,0.9-0.7,2.1-0.7,3.5c0,0.6,0,1.3,0.1,2
		c0.1,0.8,0.3,1.5,0.6,2.2c0.3,0.7,0.8,1.3,1.4,1.8c0.6,0.5,1.5,0.8,2.6,0.8c0.6,0,1.2-0.1,1.8-0.4c0.6-0.3,1.1-0.7,1.6-1.3
		c0.5-0.6,0.9-1.4,1.2-2.4c0.3-1,0.4-2.2,0.4-3.6v-9.5H457.7z"/>
	<path d="M481.1,164v-28.9h-4.8v-1h13.4v7.2h0.1c0.2-0.4,0.5-1.1,1-2c0.5-0.9,1.2-1.8,2.1-2.6c0.9-0.9,2.1-1.6,3.5-2.3s3.2-1,5.4-1
		c3.2,0,5.6,0.9,7.4,2.7c1.8,1.8,2.6,4.3,2.6,7.5V164h4.8v1h-18.1v-1h4.5v-22.8c0-2-0.4-3.5-1.2-4.4c-0.8-0.9-1.9-1.4-3.3-1.4
		c-1.2,0-2.3,0.3-3.3,0.8c-1.1,0.6-2,1.4-2.8,2.5c-0.8,1.1-1.4,2.5-1.9,4.1c-0.5,1.6-0.7,3.6-0.7,5.8V164h4.5v1h-18.1v-1H481.1z"/>
	<path d="M526.5,164v-28.9h-4.8v-1h13.4v7.2h0.1c0.2-0.4,0.5-1.1,1-2c0.5-0.9,1.2-1.8,2.1-2.6c0.9-0.9,2.1-1.6,3.5-2.3
		c1.4-0.6,3.2-1,5.4-1c3.2,0,5.6,0.9,7.4,2.7c1.8,1.8,2.6,4.3,2.6,7.5V164h4.8v1H544v-1h4.5v-22.8c0-2-0.4-3.5-1.2-4.4
		s-1.9-1.4-3.3-1.4c-1.2,0-2.3,0.3-3.3,0.8c-1.1,0.6-2,1.4-2.8,2.5c-0.8,1.1-1.4,2.5-1.9,4.1c-0.5,1.6-0.7,3.6-0.7,5.8V164h4.5v1
		h-18.1v-1H526.5z"/>
	<path d="M572.8,111v72h-1.4v-72H572.8z"/>
	<path d="M584.1,154.9h0.8c0.3,1.2,0.8,2.3,1.3,3.5c0.5,1.2,1.2,2.3,2.1,3.2c0.9,1,2,1.8,3.3,2.4c1.3,0.6,2.9,0.9,4.7,0.9
		c1.5,0,2.9-0.5,4.1-1.4c1.2-0.9,1.8-2.5,1.8-4.6c0-1.8-0.5-3.1-1.4-3.9c-0.9-0.7-2-1.3-3.3-1.8l-5.6-1.9c-0.7-0.2-1.5-0.5-2.3-0.9
		c-0.8-0.4-1.6-0.9-2.3-1.5c-0.7-0.6-1.3-1.5-1.8-2.5c-0.5-1-0.7-2.3-0.7-3.9c0-1.3,0.3-2.6,0.8-3.7c0.5-1.2,1.2-2.2,2.2-3
		c0.9-0.9,2-1.5,3.3-2c1.3-0.5,2.7-0.7,4.1-0.7c1.1,0,1.9,0.1,2.6,0.3c0.6,0.2,1.2,0.3,1.7,0.5c0.5,0.2,0.9,0.3,1.3,0.5
		c0.4,0.2,0.8,0.3,1.4,0.3s0.9-0.2,1.2-0.6h0.8v8.2h-0.8c-0.3-1.1-0.7-2.1-1.2-3.1c-0.4-1-0.9-1.9-1.5-2.6c-0.6-0.8-1.3-1.4-2.2-1.8
		c-0.9-0.4-1.9-0.6-3.1-0.6c-2.3,0-4.1,0.5-5.4,1.5c-1.3,1-1.9,2.4-1.9,4.1c0,1.5,0.5,2.7,1.6,3.5c1.1,0.8,2.7,1.5,4.8,2.2l5.3,1.7
		c2.3,0.8,4.1,1.8,5.5,3.2c1.4,1.3,2.2,3.1,2.2,5.3c0,1.3-0.3,2.6-0.8,3.8c-0.5,1.2-1.2,2.3-2.2,3.3c-1,0.9-2.2,1.7-3.6,2.3
		c-1.4,0.6-3,0.9-4.9,0.9c-1.1,0-2-0.1-2.9-0.3c-0.9-0.2-1.7-0.4-2.4-0.7s-1.4-0.5-2.1-0.7c-0.6-0.2-1.2-0.3-1.7-0.3
		c-0.5,0-0.9,0.1-1.2,0.3c-0.2,0.2-0.4,0.4-0.6,0.7h-0.8V154.9z"/>
	<path d="M612,134.1h5.5v-9.3c0.4,0.1,0.7,0.3,1.1,0.4c0.3,0.1,0.9,0.1,1.7,0.1c0.7,0,1.3-0.1,1.9-0.3c0.5-0.2,1-0.4,1.5-0.8v9.9
		H634v1h-10.2v23.6c0,1.3,0.1,2.4,0.4,3.3c0.3,0.8,0.6,1.5,1,1.9c0.4,0.5,0.9,0.8,1.4,0.9c0.5,0.1,1,0.2,1.5,0.2
		c1.7,0,3-0.6,4.1-1.8c1-1.2,1.7-2.6,2-4.2l1,0.4c-0.1,0.6-0.4,1.3-0.6,2.1c-0.3,0.8-0.7,1.5-1.3,2.2c-0.6,0.7-1.4,1.3-2.3,1.7
		c-1,0.5-2.2,0.7-3.6,0.7c-3.6,0-6.1-0.7-7.5-2.1c-1.4-1.4-2.1-3.4-2.1-5.9v-22.9H612V134.1z"/>
	<path d="M634.4,134.1H652v1H646l9.3,22.6l9.7-22.6h-6v-1h11v1h-3.9l-11.9,27.8c-0.9,2.1-1.8,4.1-2.6,6.2c-0.8,2.1-1.6,4.2-2.4,6.3
		c-0.7,1.7-1.3,3.2-2,4.5c-0.7,1.3-1.4,2.4-2.1,3.2s-1.5,1.4-2.4,1.8c-0.9,0.4-1.9,0.6-3,0.6c-1.4,0-2.5-0.2-3.3-0.6
		c-0.8-0.4-1.5-0.9-2-1.5c-0.5-0.6-0.8-1.2-0.9-1.8s-0.2-1.2-0.2-1.6c0-1.2,0.3-2.1,1-2.7c0.7-0.6,1.5-0.9,2.4-0.9
		c0.3,0,0.7,0,1.1,0.1s0.7,0.2,1.1,0.4c0.3,0.2,0.6,0.5,0.9,0.8c0.2,0.3,0.4,0.7,0.4,1.2c0,0.7-0.2,1.3-0.6,1.9
		c-0.4,0.6-0.6,1.3-0.6,2c0,0.6,0.2,1,0.5,1.2c0.3,0.2,0.8,0.3,1.4,0.3c0.8,0,1.5-0.2,2.1-0.5c0.6-0.4,1.3-0.9,1.9-1.8
		c0.6-0.8,1.2-1.9,1.9-3.2c0.6-1.3,1.3-2.9,2.1-4.9l3.2-8.1l-12.5-30.8h-5V134.1z"/>
	<path d="M671.4,164h5.6v-49.9h-5.6v-1h11.7V164h5.6v1h-17.3V164z"/>
	<path d="M701.3,147.1c0,0.5,0,1,0,1.5c0,0.5,0,1.1,0,1.9c0,1.6,0.1,3.2,0.3,5c0.2,1.7,0.6,3.3,1.3,4.7c0.6,1.4,1.6,2.5,2.9,3.5
		c1.3,0.9,3,1.4,5.1,1.4s3.9-0.3,5.2-0.9c1.4-0.6,2.4-1.4,3.2-2.3c0.8-0.9,1.4-1.8,1.8-2.7c0.4-0.9,0.7-1.7,0.9-2.2l1.1,0.2
		c-0.1,0.5-0.4,1.3-0.8,2.3c-0.4,1-1.1,2-1.9,3c-0.9,1-2.1,1.9-3.6,2.6c-1.5,0.7-3.5,1.1-5.9,1.1s-4.6-0.4-6.7-1.2
		c-2-0.8-3.8-1.9-5.3-3.3c-1.5-1.4-2.6-3.2-3.5-5.2c-0.8-2-1.2-4.2-1.2-6.7c0-2.1,0.4-4.2,1.3-6.2c0.8-2,2-3.8,3.5-5.3
		c1.5-1.5,3.2-2.8,5.2-3.7c2-0.9,4.1-1.4,6.3-1.4c1.3,0,2.8,0.2,4.3,0.7c1.5,0.5,3,1.3,4.3,2.3c1.3,1.1,2.4,2.5,3.3,4.3
		c0.9,1.8,1.3,4,1.3,6.6H701.3z M716.1,146.1c0.1-0.7,0.1-1.3,0.1-1.9c0-0.6,0-1.2,0-1.8c0-1.6-0.2-3-0.5-4
		c-0.3-1.1-0.7-1.9-1.3-2.5c-0.6-0.6-1.2-1.1-2-1.3c-0.8-0.3-1.6-0.4-2.6-0.4c-1.6,0-3,0.3-4,1c-1.1,0.6-1.9,1.5-2.5,2.6
		c-0.6,1.1-1.1,2.4-1.4,3.8c-0.3,1.4-0.5,3-0.6,4.5H716.1z"/>
	<path d="M730.8,154.9h0.8c0.3,1.2,0.8,2.3,1.3,3.5s1.2,2.3,2.1,3.2c0.9,1,2,1.8,3.3,2.4c1.3,0.6,2.9,0.9,4.7,0.9
		c1.5,0,2.9-0.5,4.1-1.4c1.2-0.9,1.8-2.5,1.8-4.6c0-1.8-0.5-3.1-1.4-3.9c-0.9-0.7-2-1.3-3.3-1.8l-5.6-1.9c-0.7-0.2-1.5-0.5-2.3-0.9
		c-0.8-0.4-1.6-0.9-2.3-1.5c-0.7-0.6-1.3-1.5-1.8-2.5c-0.5-1-0.7-2.3-0.7-3.9c0-1.3,0.3-2.6,0.8-3.7s1.2-2.2,2.2-3
		c0.9-0.9,2-1.5,3.3-2c1.3-0.5,2.7-0.7,4.1-0.7c1.1,0,1.9,0.1,2.6,0.3s1.2,0.3,1.7,0.5c0.5,0.2,0.9,0.3,1.3,0.5
		c0.4,0.2,0.8,0.3,1.4,0.3c0.5,0,0.9-0.2,1.2-0.6h0.8v8.2h-0.8c-0.3-1.1-0.7-2.1-1.2-3.1c-0.4-1-1-1.9-1.5-2.6
		c-0.6-0.8-1.3-1.4-2.2-1.8c-0.9-0.4-1.9-0.6-3.1-0.6c-2.3,0-4.1,0.5-5.4,1.5c-1.3,1-1.9,2.4-1.9,4.1c0,1.5,0.5,2.7,1.6,3.5
		c1.1,0.8,2.7,1.5,4.8,2.2l5.3,1.7c2.3,0.8,4.1,1.8,5.5,3.2c1.4,1.3,2.2,3.1,2.2,5.3c0,1.3-0.3,2.6-0.8,3.8
		c-0.5,1.2-1.2,2.3-2.2,3.3c-1,0.9-2.2,1.7-3.6,2.3c-1.4,0.6-3,0.9-4.9,0.9c-1.1,0-2-0.1-2.9-0.3c-0.9-0.2-1.7-0.4-2.4-0.7
		c-0.7-0.2-1.4-0.5-2.1-0.7c-0.6-0.2-1.2-0.3-1.7-0.3c-0.5,0-0.9,0.1-1.2,0.3c-0.2,0.2-0.4,0.4-0.6,0.7h-0.8V154.9z"/>
</g>
<g>
	<g>
		<path d="M419,32.3c0,1-0.4,1.4-1.2,1.4c-0.8,0-1.2-0.4-1.2-1.2c0-0.2,0.1-0.5,0.2-0.9c0.1-0.4,0.2-0.7,0.2-0.9
			c0-1.2-0.8-1.8-2.3-1.8c-2.5,0-5.5,2.3-9.1,6.8c-4.5,5.7-8.1,12.5-10.8,20.4c-1.8,5.3-2.7,10.1-2.7,14.4c0,5.8,1.9,8.7,5.7,8.7
			c2.1,0,3.8-1.2,5.2-3.6l0.3,0.2c-2.2,4.1-5.2,6.2-9.2,6.2c-5.3,0-7.9-4.1-7.9-12.2c0-5.4,1.5-11.3,4.5-17.8
			c2.7-5.9,6.1-11.1,10.1-15.4c0.9-1,1.9-2,2.8-2.8c0.6-0.6,2-1.8,4.3-3.8c-2.8,0.8-5.6,2.1-8.4,3.7c-4.6,2.7-8.9,6-12.9,9.7
			c-2.6,2.4-6.3,6.2-11.3,11.7c0.5,3.5,0.8,6.8,0.8,9.8c0,4-0.4,7.3-1.3,10.1c-1.3,4.2-3.5,6.3-6.6,6.3c-1.4,0-2.4-0.6-3.2-1.7
			c-0.7-0.9-1.1-2.1-1.1-3.5c0-4.3,2.4-9.6,7.2-16c-0.4-6.8-2.4-14.8-5.8-23.9c-1.1,8.7-3.2,16.2-6.2,22.5
			c-2.4,5.1-6.2,10.3-11.3,15.5c-2.8,2.8-6.6,6-11.5,9.5c-7.4,5.3-15.5,9.3-24.4,12c-5.3,1.6-10,2.4-14.2,2.4
			c-5.3,0-10.1-1.3-14.3-4c-2.6-1.6-4.7-3.9-6.3-6.8c-1.6-2.9-2.4-5.8-2.4-8.8c0-6.9,2.8-13.1,8.3-18.4c6.1-5.9,13.7-8.8,22.9-8.8
			c9.9,0,16.6,3.8,20.2,11.5c1.5,3.1,2.2,6.2,2.2,9.4c0,1.9-0.3,3.9-0.8,6l-1.5,0.9c0.8-3.3,1.3-6.1,1.3-8.2c0-2.6-0.6-5.2-1.7-7.7
			c-3.3-7.7-9.9-11.6-19.7-11.6c-3.7,0-7.4,0.6-11,1.9c-5,1.7-9.1,4.7-12.4,8.8c-3.5,4.4-5.3,9.1-5.3,14.2c0,3.1,0.9,6.1,2.6,8.9
			c1.7,2.8,3.9,5.1,6.7,6.7c4.3,2.6,9,3.9,14.2,3.9c4.9,0,10.5-1.1,16.9-3.4c5.8-2,11-4.5,15.7-7.4c3.5-2.2,7.1-4.9,10.6-8.1
			c-5.2,3.3-10.9,4.9-17,4.9c-4.7,0-8.7-1-12-3.1c-3.8-2.5-5.7-5.9-5.7-10.4c0-2.6,0.7-4.9,2.2-6.8c1.5-1.9,3.5-2.9,6.1-2.9
			c1.4,0,2.7,0.5,3.7,1.4c1.1,0.9,1.6,2.1,1.6,3.5c0,1.9-0.9,2.9-2.8,2.9c-1.4,0-2-0.3-2-1c0-0.2,0-0.4,0.1-0.7
			c0.1-0.3,0.1-0.5,0.1-0.7c0-0.8-0.4-1.5-1.1-2.1c-0.7-0.6-1.5-0.8-2.3-0.8c-1.6,0-2.9,0.7-3.8,2c-0.9,1.3-1.4,2.9-1.4,4.6
			c0,4,1.8,7.1,5.3,9.4c3,1.9,6.7,2.9,10.9,2.9c8.1,0,15.5-3.1,22.2-9.3c4.8-4.5,8.7-10.1,11.7-16.9c2.7-6.2,4.3-12.9,5-20
			c-1.1-0.5-3.4-0.8-6.9-0.8c-4.5,0-7.8,0.3-9.8,0.9c-3.6,1.2-5.4,3.5-5.4,6.9c0,3.1,1.3,4.6,3.9,4.6c0.9,0,1.7-0.3,2.3-0.9
			c0.6-0.6,0.9-1.4,0.9-2.4c0-0.9,0.5-1.5,1.6-1.7c0.7-0.2,1.3,0,1.8,0.5c0.4,0.5,0.7,1.2,0.7,1.9c0,1.3-0.5,2.4-1.5,3.2
			c-1,0.8-2.2,1.2-3.6,1.2c-1.8,0-3.3-0.6-4.6-1.9c-1.3-1.3-1.9-2.8-1.9-4.6c0-3.8,1.8-6.8,5.4-9.1c3.1-1.9,6.7-2.9,10.8-2.9
			c0.7,0,4.1,0.1,10.4,0.2c3.4,9.7,5.6,18,6.5,25c6.2-6.8,11.6-12.1,16.2-15.7c9-7.1,16.3-10.7,21.9-10.7c1.5,0,2.8,0.3,3.9,1
			C418.3,29.8,419,30.9,419,32.3z M371.8,66.4c0-0.5-0.2-2.5-0.5-6.2c-4.5,6.1-6.7,11.3-6.7,15.5c0,2.8,1,4.2,3,4.2
			c1.5,0,2.7-1.9,3.4-5.6C371.5,71.7,371.8,69,371.8,66.4z"/>
	</g>
	<g>
		<path d="M515.6,46.5c0,9.2-2.9,18.5-8.7,27.8c-2,3.2-4.3,6.1-7,8.6c-1.2,1.1-3.8,3.2-7.8,6.4c-1.6,6.2-4.1,11.9-7.3,17
			c-8.6,13.5-23.3,21.3-44.3,23.5c-3,0.3-5.7,0.5-8.1,0.5c-12.4,0-22.9-3.9-31.4-11.7c-3.4-3-7.5-7.9-12.3-14.6
			c-8.8-5-15.2-11.3-19.4-18.8c-3.9-7.1-5.9-15.9-6.1-26.4c-0.2-10,1.6-18.6,5.5-25.9c3.9-7.3,10-13.7,18.4-19.3
			c8.4-5.6,18.5-8.7,30.5-9.4c1.8-0.1,3.4-0.2,4.8-0.2c10,0,18.3,2.3,25,6.9c7.4,5.2,11.3,12.7,11.7,22.3c5.5,1.2,11.1,3.7,16.7,7.6
			c12.2,8.5,18.3,19.6,18.3,33.5c0,4.4-0.5,8.8-1.6,13.4c3.4-2.8,5.8-4.7,7.1-5.9c2.4-2.2,4.5-4.6,6.3-7.4c5.9-8.9,8.8-18.6,8.8-29
			c0-4.7-0.6-8.6-1.9-11.5C514.7,38.1,515.6,42.2,515.6,46.5z M491.5,75.6c0-13.8-5.4-25-16.3-33.5c-4.5-3.5-9.9-6.1-16.2-7.8
			c0,5.9-2.5,13-7.6,21.5c-1.7,2.9-3,6.6-3.9,11.2c-0.3,1.7-0.9,5.7-1.7,11.9c-0.9,7.2-1.8,13-2.8,17.2c18.4-17.1,27.6-29,27.6-35.7
			c0-1.6-0.7-2.5-2.2-2.8c-1.4-0.3-2.2-1-2.2-2.2c0-1.1,0.4-2,1.3-2.8c0.9-0.8,1.9-1.2,3-1.2c1.4,0,2.5,0.6,3.3,1.9
			c0.7,1.1,1,2.3,1,3.8c0,6-6.7,15.7-20.2,29.1c-2.6,2.6-6.6,6.5-11.8,11.7c-3.5,3.5-7.2,6.7-11.1,9.6c3.3-4.3,5.8-12.6,7.5-24.8
			c0.9-6.5,1.8-11.5,2.8-15c-2.7,3.6-6.2,8.6-10.5,15.1c-3.8,5.8-7.6,10.8-11.3,15c-5.9,6.7-10.7,10.1-14.3,10.2
			c2.8-2.3,4.9-5.4,6.3-9.4c0.9-2.6,1.8-6.3,2.6-11.2c0.2-1.1,0.9-6.1,2.2-14.9c0.1-0.9,0.5-3,1.2-6.4c0.7-3.4,1.1-5.3,1.1-5.9
			c0-1.6-1-2.9-3-3.8c-1.5-0.7-3.2-1-5.1-1c-3.2,0-6,1.1-8.3,3.2c-2.3,2.1-3.5,4.7-3.5,7.9c0,2.3,0.7,3.7,2.2,4.3
			c0.8,0.4,1.4,0.4,1.8,0.2c0.7-0.3,1.1-1,1-2.2c-0.1-1.2,0.4-2,1.3-2.3c0.2-0.1,0.4-0.1,0.6-0.1c1.6,0,2.4,1.2,2.4,3.5
			c0,1.4-0.6,2.6-1.9,3.5c-1.2,0.9-2.6,1.4-4.1,1.4c-4,0-6.1-2.5-6.1-7.6c0-1,0.2-2.5,0.6-4.4c1-4.7,2.9-9.1,5.7-13.4
			c4.3-6.5,9.8-11.2,16.6-14c5.9-2.5,13.1-3.8,21.6-3.8c1.9,0,3.7,0.1,5.4,0.2c0.5,0.1,3.8,0.6,10.1,1.5
			c-1.6-9.3-5.5-16.1-11.9-20.4C439.3,8.9,431.5,7,421.4,7c-10.4,0-20,2.1-28.7,6.3c-9.5,4.5-16.8,10.9-22,19.3
			c-4.4,7.1-6.5,15.4-6.5,25c0,18.3,7.8,32.7,23.3,43.2c-1.5-3.9-2.3-8.4-2.3-13.3c0-2.7,0.5-5.5,1.4-8.6c1.1-3.5,2.5-6,4.3-7.4
			c-2.8,3.6-4.2,9.2-4.2,16.9c0,5.2,1.1,9.9,3.2,14c11.2,6.5,23.3,9.7,36.3,9.7c10.6,0,21.7-2.1,33.2-6.2c10.9-3.9,20.9-9.1,30-15.7
			C490.8,85.1,491.5,80.3,491.5,75.6z M489,91.6c-7.7,5.5-16.7,10.1-27.2,13.8l-7.7,2.8c-2.7,0.9-5.4,1.8-8.3,2.4
			c-6.2,1.5-13,2.3-20.3,2.3c-7.6,0-15.5-1.1-23.5-3.2c-3.6-0.9-7-2.2-10-3.8l0.2,0.3c5,10,13.9,17,26.5,21c4.2,1.3,8.8,2,13.9,2
			c2.7,0,5.9-0.2,9.4-0.6c18.8-2,32-9,39.6-20.9C484.7,102.7,487.2,97.3,489,91.6z M457.3,36.7c0-0.9-0.1-1.9-0.2-2.8
			c-2.6-0.6-5.7-1.1-9.5-1.5c-1.4-0.2-3.4-0.2-6-0.2c-12.9,0-23.4,3.8-31.5,11.4c-3.2,3-5.6,5.8-7.2,8.3c-1.9,3-3.2,6.5-3.9,10.3
			c3.1-5.4,9-8,17.7-8c1.1,0,2.6,0.1,4.8,0.4c2.1,0.3,3.7,0.4,4.8,0.4c0.8,0,1.7-0.1,2.8-0.3l0.3,0.4c-2.8,2.8-5.1,10-6.8,21.7
			c-1.3,8.8-2.6,15.7-3.9,20.9c3.9-4.1,8.8-10.7,14.7-19.8c6.2-9.8,11-16.5,14.3-20.2C454.1,50.3,457.3,43.4,457.3,36.7z"/>
	</g>
</g>
</svg>
