<?xml version="1.0" encoding="utf-8"?>
<!-- Generator: Adobe Illustrator 23.0.6, SVG Export Plug-In . SVG Version: 6.00 Build 0)  -->
<svg version="1.1" id="Ebene_1" xmlns="http://www.w3.org/2000/svg" xmlns:xlink="http://www.w3.org/1999/xlink" x="0px" y="0px"
	 viewBox="0 0 228 31.1" style="enable-background:new 0 0 228 31.1;" xml:space="preserve">
<style type="text/css">
	.st0{fill:#FFFFFF;}
	.st1{fill:#8599AD;}
	.st2{fill-rule:evenodd;clip-rule:evenodd;fill:#B70E0C;}
</style>
<title>Zeichenfläche 19</title>
<rect x="131.4" y="4.1" class="st0" width="25.2" height="22.8"/>
<path class="st1" d="M181.7,23.6c-1.1,1.5-2.9,2.4-4.8,2.3c-4.3,0-7.1-3.5-7.1-9.3c0-6,2.7-9.5,7.2-9.5c3.2,0,5.3,1.8,6.3,5.3
	l-2.1,0.4c-0.7-2.6-2.1-4-4.3-4c-3.2,0-5,2.7-5,7.6c0,4.9,2,7.7,5.2,7.7c2.2,0.2,4.2-1.5,4.4-3.7c0-0.2,0-0.4,0-0.7v-1.3h-4.2v-1.7
	h6.3v8.8h-1.7L181.7,23.6z"/>
<path class="st1" d="M186.2,12.4h1.9v3c0.9-2.1,2.1-3.1,3.8-3.1c0.1,0,0.3,0,0.4,0v1.8h-0.2c-1.8,0-3.2,1.4-4,4.1v7.3h-1.9V12.4z"/>
<path class="st1" d="M198.1,12.2c3.4,0,5.5,2.4,5.5,6.8s-2.1,6.8-5.5,6.8c-3.4,0-5.5-2.4-5.5-6.8S194.7,12.2,198.1,12.2z
	 M198.1,24.3c2.3,0,3.6-1.8,3.6-5.2c0-3.5-1.3-5.2-3.6-5.2c-2.3,0-3.6,1.8-3.6,5.2C194.5,22.4,195.8,24.3,198.1,24.3L198.1,24.3z"/>
<path class="st1" d="M214.1,25.6h-1.7v-2c-1.1,1.3-2.7,2.1-4.4,2.2c-2.2,0-3.4-1.3-3.4-3.6v-9.7h1.8v9c0,1.9,0.6,2.7,2.1,2.7
	c1.5-0.1,2.8-0.8,3.7-2v-9.8h1.8V25.6z"/>
<path class="st1" d="M216.5,12.4h1.4l0.3,1.6c0.8-1.2,2.1-1.9,3.5-1.8c3.4,0,5.4,2.4,5.4,6.8c0,4.4-2,6.7-5.5,6.7
	c-1.3,0.1-2.6-0.5-3.4-1.6v6.2h-1.8V12.4z M221.8,24.3c2.2,0,3.5-1.8,3.5-5.2c0-3.5-1.2-5.3-3.7-5.3c-1.4,0-2.6,0.8-3.3,2v6.5
	C219.1,23.5,220.4,24.3,221.8,24.3z"/>
<path class="st1" d="M3.9,20.4c1,2,2.1,2.8,3.8,2.8c1.9,0,3-1,3-2.4c0-1.3-0.8-1.9-2.8-2.6c-1.5-0.5-3-1.1-4.4-1.9
	c-1.4-0.9-2.2-2.4-2.2-4.1c0-3,2.4-5.1,6.1-5.1c3.2,0,5.3,1.4,6.3,4.1l-3.2,1.2C9.7,10.7,8.7,10,7.1,10c-1.5,0-2.5,0.8-2.5,2
	c0,1.7,1.8,2.1,4.8,3.3c3.1,1.3,4.6,2.5,4.6,5.4c0,3.4-2.3,5.5-6.3,5.5c-3.4,0-5.9-1.5-7.1-4.5L3.9,20.4z"/>
<path class="st1" d="M15.9,7.3h3.5V26h-3.5V7.3z"/>
<path class="st1" d="M21.6,7.3h3.6v15.5H33V26H21.6V7.3z"/>
<path class="st1" d="M29.4,7.3H33l4.3,15.2l4.2-15.2H45L39.4,26H35L29.4,7.3z"/>
<path class="st1" d="M46.1,7.3h12.1v3h-8.6v4.4h6.3v3h-6.3v5.1h9V26H46.1L46.1,7.3z"/>
<path class="st1" d="M60.4,7.3h6.3c4.7,0,7,1.8,7,5.6c0.2,2.2-1.3,4.2-3.4,4.7l4.1,8.4h-3.8l-3.6-7.6h-3.2V26h-3.4L60.4,7.3z
	 M66.9,15.5c2.2,0,3.3-0.8,3.3-2.6c0-1.8-1.1-2.6-3.3-2.6h-3.1v5.2H66.9z"/>
<path class="st1" d="M79.3,10.4h-4.9V7.3h13.3v3.1h-4.9V26h-3.5V10.4z"/>
<path class="st1" d="M95.4,7.1c4.8,0,7.8,3.5,7.8,9.6c0,6.1-3,9.6-7.8,9.6c-4.8,0-7.8-3.5-7.8-9.6C87.7,10.6,90.6,7.1,95.4,7.1z
	 M95.4,23.1c2.7,0,4.2-2.2,4.2-6.4c0-4.3-1.5-6.5-4.2-6.5c-2.7,0-4.2,2.2-4.2,6.5C91.3,21,92.7,23.1,95.4,23.1L95.4,23.1z"/>
<path class="st1" d="M104.6,7.3h3.7l5.4,9.4c0.8,1.4,1.5,2.9,2.1,4.5c-0.2-1.3-0.3-2.5-0.3-3.8v-10h3.3V26h-3.3l-5.8-9.6
	c-0.8-1.4-1.5-2.9-2.1-4.5c0.2,1.3,0.3,2.5,0.2,3.8V26h-3.3V7.3z"/>
<path class="st2" d="M128.6,31.1h31.1V0h-31.1V31.1z M151.7,22.9l-3.1,2.3l-4.4-5.9l-4.3,5.9l-3.1-2.3l4.3-6l-7-2.3l1.2-3.7l7,2.3
	V5.9h3.9v7.4l7-2.3l1.2,3.7l-7,2.3L151.7,22.9z"/>
</svg>
