<?xml version="1.0" encoding="utf-8"?>
<!-- Generator: Adobe Illustrator 23.0.6, SVG Export Plug-In . SVG Version: 6.00 Build 0)  -->
<svg version="1.1" id="Ebene_1" xmlns="http://www.w3.org/2000/svg" xmlns:xlink="http://www.w3.org/1999/xlink" x="0px" y="0px"
	 viewBox="0 0 484.1 66.4" style="enable-background:new 0 0 484.1 66.4;" xml:space="preserve">
<style type="text/css">
	.st0{fill:#FFFFFF;}
	.st1{fill-rule:evenodd;clip-rule:evenodd;fill:#B70E0C;}
</style>
<title>Element 107</title>
<g>
	<g id="Ebene_1-2">
		<rect x="279.3" y="8.8" class="st0" width="53.8" height="48.8"/>
		<path class="st0" d="M386.9,50.4c-2.4,3.3-5.7,4.9-10.2,4.9c-9.2,0-15.2-7.4-15.2-19.8c0-12.9,5.7-20.2,15.3-20.2
			c6.8,0,11.3,3.8,13.5,11.4l-4.4,0.9c-1.5-5.6-4.6-8.5-9.2-8.5c-6.8,0-10.8,5.7-10.8,16.2c0,10.6,4.2,16.5,11,16.5
			c5.6,0,9.4-3.4,9.4-9.3v-2.7h-9v-3.7h13.4v18.8H387L386.9,50.4z"/>
		<path class="st0" d="M396.5,26.6h4V33c1.9-4.5,4.4-6.7,8.1-6.7c0.3,0,0.6,0,0.9,0.1v3.9H409c-3.8,0-6.8,3.1-8.5,8.8v15.6h-4V26.6z
			"/>
		<path class="st0" d="M422,26.1c7.3,0,11.7,5.1,11.7,14.5c0,9.3-4.4,14.5-11.7,14.5s-11.7-5.2-11.7-14.5
			C410.3,31.3,414.7,26.1,422,26.1z M422,51.8c4.9,0,7.7-3.9,7.7-11.2c0-7.4-2.7-11.2-7.7-11.2c-4.9,0-7.7,3.8-7.7,11.2
			C414.3,48,417.1,51.8,422,51.8z"/>
		<path class="st0" d="M456.1,54.6h-3.5v-4.2c-3,3.2-6,4.7-9.3,4.7c-4.6,0-7.3-2.8-7.3-7.8V26.6h3.9v19.3c0,4,1.2,5.8,4.5,5.8
			c2.8,0,5.4-1.4,7.9-4.2V26.6h3.9V54.6z"/>
		<path class="st0" d="M461.3,26.6h3L465,30c2-2.5,4.1-3.9,7.5-3.9c7.3,0,11.6,5.2,11.6,14.6c0,9.3-4.2,14.4-11.7,14.4
			c-2.8,0.1-5.6-1.2-7.2-3.5v13.2h-3.9V26.6z M472.7,51.9c4.7,0,7.4-3.9,7.4-11.1c0-7.6-2.6-11.4-7.8-11.4c-2.9,0-5.6,1.6-7.1,4.2
			v14C467.3,50.6,469.6,51.9,472.7,51.9z"/>
		<path class="st0" d="M6.8,43.5c2.1,4.2,4.6,6.1,8.1,6.1c4.1,0,6.5-2,6.5-5c0-2.7-1.8-4.1-5.9-5.6c-3.6-1.3-6.9-2.4-9.5-4.1
			c-3-1.9-4.8-5.2-4.7-8.8c0-6.3,5.1-10.9,13-10.9c6.8,0,11.4,3,13.4,8.7L21,26.4c-1.6-3.5-3.8-5.1-7.2-5.1c-3.3,0-5.3,1.6-5.3,4.2
			c0,3.7,3.9,4.4,10.2,7.1c6.6,2.8,9.9,5.4,9.9,11.6c0,7.2-5,11.9-13.6,11.9c-7.4,0-12.5-3.3-15.1-9.5L6.8,43.5z"/>
		<path class="st0" d="M32.6,15.7h7.6v39.9h-7.6V15.7z"/>
		<path class="st0" d="M44.7,15.7h7.6v33.1h16.8v6.8H44.7V15.7z"/>
		<path class="st0" d="M61.5,15.7H69l9.1,32.5l9-32.5h7.6L82.7,55.5h-9.4L61.5,15.7z"/>
		<path class="st0" d="M97.1,15.7H123v6.5h-18.4v9.4H118v6.4h-13.4v10.8h19.3v6.8H97.1V15.7z"/>
		<path class="st0" d="M127.6,15.7h13.5c10,0,15,3.8,15,11.9c0,5.2-2.6,8.8-7.4,10.1l8.8,17.9h-8.1l-7.7-16.2H135v16.2h-7.4V15.7z
			 M141.5,33.1c4.8,0,7-1.7,7-5.5c0-3.9-2.3-5.5-7-5.5H135v11.1H141.5z"/>
		<path class="st0" d="M168.1,22.2h-10.5v-6.6h28.5v6.6h-10.5v33.3h-7.6L168.1,22.2z"/>
		<path class="st0" d="M202.5,15.2c10.3,0,16.6,7.5,16.6,20.5c0,12.9-6.4,20.5-16.6,20.5S186,48.6,186,35.7
			C186,22.7,192.3,15.2,202.5,15.2z M202.5,49.5c5.8,0,8.9-4.7,8.9-13.8c0-9.2-3.1-13.9-8.9-13.9s-8.9,4.7-8.9,13.9
			C193.6,44.8,196.7,49.5,202.5,49.5z"/>
		<path class="st0" d="M222.2,15.7h8l11.5,20c1.7,3.1,3.2,6.3,4.5,9.5c-0.4-2.7-0.6-5.4-0.5-8.1V15.7h7v39.9h-7L233.1,35
			c-1.7-3.1-3.2-6.3-4.5-9.6c0.4,2.7,0.5,5.4,0.5,8.1v22.1h-7V15.7z"/>
		<path class="st1" d="M273.5,66.4h66.4V0h-66.4V66.4z M322.7,49l-6.7,4.8l-9.3-12.7l-9.2,12.7l-6.7-4.8l9.2-12.8l-15-4.8l2.6-7.9
			l15,4.8V12.5h8.3v15.8l14.9-4.8l2.6,7.9l-14.9,4.8L322.7,49z"/>
	</g>
</g>
</svg>
