<?xml version="1.0" encoding="utf-8"?>
<!-- Generator: Adobe Illustrator 25.2.1, SVG Export Plug-In . SVG Version: 6.00 Build 0)  -->
<svg version="1.1" id="Ebene_1" xmlns="http://www.w3.org/2000/svg" xmlns:xlink="http://www.w3.org/1999/xlink" x="0px" y="0px"
	 viewBox="0 0 1436 399" style="enable-background:new 0 0 1436 399;" xml:space="preserve">
<style type="text/css">
	.st0{clip-path:url(#SVGID_2_);fill:#C70039;}
	.st1{clip-path:url(#SVGID_2_);fill:#111D5E;}
	.st2{fill:#FD8C04;}
</style>
<g>
	<defs>
		<rect id="SVGID_1_" x="13.1" y="7.5" width="1406.9" height="372.9"/>
	</defs>
	<clipPath id="SVGID_2_">
		<use xlink:href="#SVGID_1_"  style="overflow:visible;"/>
	</clipPath>
	<path class="st0" d="M1369,181.8c14.1,0,23.5,8.2,26.6,20.2c0.7,2.6,1.2,6.8,1.4,11.5c0,0.7-0.5,1.2-1.2,1.2h-53.4
		c-0.7,0-1.2-0.5-1.2-1.2c0.2-5.2,0.9-9.6,2.1-13.2C1346.4,189.3,1354.9,181.8,1369,181.8 M1372.3,266.4c-15.5,0-26.3-8-29.6-20.2
		c-0.9-2.8-1.4-7.1-1.6-12.7c0-0.7,0.5-1.2,1.2-1.2h74.3c2.1,0,3.5-1.2,3.5-3.5c-0.2-8-0.7-14.8-1.6-21.2
		c-4.5-28.2-18.6-45.4-49.4-45.4c-24.4,0-42.1,13.6-47.7,35c-2.1,7.3-2.6,15.3-2.6,26.1c0,12.9,2.1,24.4,5.9,33.6
		c7.8,18.1,23,28.7,45.6,28.7c21.4,0,36.9-9.9,45.1-24.7c0.9-2.1,0.5-3.8-1.4-4.9l-9.6-5.9c-2.1-1.4-3.5-0.7-4.7,1.4
		C1394.4,260.7,1385.2,266.2,1372.3,266.4 M1262,253.5c-4.5,8-11.3,12.7-20.5,12.7c-10.3,0-18.1-4.5-22.6-12.9
		c-3.8-7.1-5.9-16.5-5.9-29.2c0-13.9,2.8-23.7,7.5-31c4.7-7.3,11.8-11.3,20.9-11.3c8.9,0,15.5,4.2,20,12c4,7.1,6.1,16.7,6.1,30.1
		C1267.7,236.8,1265.8,246.6,1262,253.5 M1267.9,122.7v51c0,0.9-0.7,1.2-1.4,0.5c-6.8-7.8-16.5-12-27.3-12
		c-23.7,0-38.8,12.7-45.1,32.9c-2.6,8.2-3.5,17.9-3.5,28.4c0,11.5,1.2,21.6,4.2,30.1c6.6,19.7,21.4,32,44.4,32
		c10.8,0,20.5-4.2,27.3-12.2c0.7-0.7,1.4-0.2,1.4,0.7v6.1c0,2.1,1.4,3.5,3.5,3.5h15.5c2.1,0,3.5-1.4,3.5-3.5V122.7
		c0-2.1-1.4-3.5-3.5-3.5h-15.5C1269.3,119.2,1267.9,120.6,1267.9,122.7 M1141.4,167.6v71.9c0,16-10.1,26.3-25.9,26.3
		s-24.7-10.3-24.7-26.3v-71.9c0-2.1-1.4-3.5-3.5-3.5h-15.3c-2.1,0-3.5,1.4-3.5,3.5v79c0,25.9,20.5,38.8,42.8,38.8
		c13.2,0,22.6-4.5,28.7-12.7c0.7-0.7,1.4-0.5,1.4,0.5v7.1c0,2.1,1.4,3.5,3.5,3.5h15.3c2.1,0,3.5-1.4,3.5-3.5V167.6
		c0-2.1-1.4-3.5-3.5-3.5h-15.3C1142.8,164.1,1141.4,165.5,1141.4,167.6 M992.4,181.8c14.1,0,23.5,8.2,26.6,20.2
		c0.7,2.6,1.2,6.8,1.4,11.5c0,0.7-0.5,1.2-1.2,1.2h-53.4c-0.7,0-1.2-0.5-1.2-1.2c0.2-5.2,0.9-9.6,2.1-13.2
		C969.8,189.3,978.3,181.8,992.4,181.8 M995.7,266.4c-15.5,0-26.3-8-29.6-20.2c-0.9-2.8-1.4-7.1-1.6-12.7c0-0.7,0.5-1.2,1.2-1.2
		h74.3c2.1,0,3.5-1.2,3.5-3.5c-0.2-8-0.7-14.8-1.6-21.2c-4.5-28.2-18.6-45.4-49.4-45.4c-24.4,0-42.1,13.6-47.7,35
		c-2.1,7.3-2.6,15.3-2.6,26.1c0,12.9,2.1,24.4,5.9,33.6c7.8,18.1,23,28.7,45.6,28.7c21.4,0,36.9-9.9,45.1-24.7
		c0.9-2.1,0.5-3.8-1.4-4.9l-9.6-5.9c-2.1-1.4-3.5-0.7-4.7,1.4C1017.8,260.7,1008.6,266.2,995.7,266.4 M914.1,162.9
		c-12.9,0-22.3,6.3-28.7,16c-0.5,0.9-1.2,0.7-1.2-0.5v-10.8c0-2.1-1.4-3.5-3.5-3.5h-15.5c-2.1,0-3.5,1.4-3.5,3.5v112.6
		c0,2.1,1.4,3.5,3.5,3.5h15.5c2.1,0,3.5-1.4,3.5-3.5v-67.5c0-15.8,11.1-25.9,25.4-26.3c4.5-0.5,8.7,0,11.5,0.9
		c2.4,0.7,3.8,0.5,4.2-2.1l3.3-15.3c0.5-1.9,0-3.5-1.9-4.5C923.7,164.1,919.7,162.9,914.1,162.9 M829.7,139h4.5
		c2.1,0,3.5-1.4,3.5-3.5v-12.7c0-2.1-1.4-3.5-3.5-3.5h-6.8c-31,0-40.4,9.4-40.4,39.7v4c0,0.7-0.5,1.2-1.2,1.2h-14.3
		c-2.1,0-3.5,1.4-3.5,3.5v13.6c0,2.1,1.4,3.5,3.5,3.5h14.3c0.7,0,1.2,0.5,1.2,1.2v94.3c0,2.1,1.4,3.5,3.5,3.5h15.5
		c2.1,0,3.5-1.4,3.5-3.5V186c0-0.7,0.5-1.2,1.2-1.2h23.3c2.1,0,3.5-1.4,3.5-3.5v-13.6c0-2.1-1.4-3.5-3.5-3.5h-23.3
		c-0.7,0-1.2-0.5-1.2-1.2v-2.6C809.5,143.9,813.9,139,829.7,139 M532.2,253.5c-4.5,8-11.3,12.7-20.5,12.7
		c-10.3,0-18.1-4.5-22.6-12.9c-3.8-7.1-5.9-16.5-5.9-29.2c0-13.9,2.8-23.7,7.5-31c4.7-7.3,11.8-11.3,20.9-11.3c8.9,0,15.5,4.2,20,12
		c4,7.1,6.1,16.7,6.1,30.1C537.8,236.8,536,246.6,532.2,253.5 M538.1,122.7v51c0,0.9-0.7,1.2-1.4,0.5c-6.8-7.8-16.5-12-27.3-12
		c-23.7,0-38.8,12.7-45.1,32.9c-2.6,8.2-3.5,17.9-3.5,28.4c0,11.5,1.2,21.6,4.2,30.1c6.6,19.7,21.4,32,44.4,32
		c10.8,0,20.5-4.2,27.3-12.2c0.7-0.7,1.4-0.2,1.4,0.7v6.1c0,2.1,1.4,3.5,3.5,3.5h15.5c2.1,0,3.5-1.4,3.5-3.5V122.7
		c0-2.1-1.4-3.5-3.5-3.5h-15.5C539.5,119.2,538.1,120.6,538.1,122.7 M391.2,162.5c-12.7,0-22.8,3.8-29.6,12.5
		c-0.5,0.7-1.2,0.2-1.2-0.7v-6.6c0-2.1-1.4-3.5-3.5-3.5h-15.5c-2.1,0-3.5,1.4-3.5,3.5v112.6c0,2.1,1.4,3.5,3.5,3.5h15.5
		c2.1,0,3.5-1.4,3.5-3.5v-76.2c1.6-13.4,11.5-22.1,25.2-22.1c15,0,24.9,10.8,24.9,26.3v71.9c0,2.1,1.4,3.5,3.5,3.5h15.5
		c2.1,0,3.5-1.4,3.5-3.5v-76.4C433,178.5,416.8,162.5,391.2,162.5 M253.9,266.6c-12.5,0-22.3-5.6-22.3-17.6
		c0-13.2,12-20.5,30.3-20.5h21.9c0.7,0,1.2,0.5,1.2,1.2v13.6C284.9,257.2,270.1,266.6,253.9,266.6 M260.2,162.2
		c-25.9,0-44.4,12.9-47.3,30.6c-0.2,1.6,1.2,2.8,3.3,3.1l16.9,2.1c2.1,0.2,3.3-0.7,4-2.8c2.4-8.2,10.3-13.4,23.5-13.4
		c16.7,0,24.2,8.5,24.2,21.9v6.1c0,0.7-0.5,1.2-1.2,1.2h-26.1c-31,0-48.7,15-48.7,39.3c0,25.2,18.1,35.5,39.3,35.5
		c14.1,0,26.6-4.5,35.3-12.7c0.7-0.7,1.4-0.2,1.4,0.7v6.6c0,2.1,1.4,3.5,3.5,3.5h15.5c2.1,0,3.5-1.4,3.5-3.5V202
		C307.5,178.9,289.6,162.2,260.2,162.2 M60.6,283.8h15.3c2.1,0,3.3-1.2,3.8-3.1L109,160.8c0.2-0.9,1.2-0.9,1.4,0l30.3,119.9
		c0.5,1.9,1.6,3.1,3.8,3.1h16.2c2.1,0,3.3-1.2,3.8-3.1l42.1-157.5c0.7-2.6-0.7-4-3.1-4h-15.8c-2.1,0-3.3,1.2-3.8,3.1l-30.6,115.7
		c-0.2,0.9-1.2,0.9-1.4,0l-30.3-115.7c-0.5-1.9-1.6-3.1-3.8-3.1h-16.7c-2.1,0-3.3,1.2-3.8,3.1L68.8,237.9c-0.2,0.9-1.2,0.9-1.4,0
		L36.9,122.3c-0.5-1.9-1.6-3.1-3.8-3.1H16.2c-2.3,0-3.5,1.4-2.8,4l43.3,157.5C57.1,282.6,58.5,283.8,60.6,283.8"/>
	<path class="st1" d="M1406.1,345.2c-3.1,0-5.6,1.2-7,3.4c-0.1,0.2-0.2,0.1-0.2-0.1v-2.3c0-0.3-0.2-0.6-0.6-0.6h-1.4
		c-0.3,0-0.6,0.2-0.6,0.6v23.8c0,0.3,0.2,0.6,0.6,0.6h1.4c0.3,0,0.6-0.2,0.6-0.6V354c0-3.9,2.7-6.5,6.7-6.5c3.8,0,6.4,2.7,6.4,6.6
		v15.8c0,0.3,0.2,0.6,0.6,0.6h1.4c0.3,0,0.6-0.2,0.6-0.6v-16.3C1414.6,348.5,1411.1,345.2,1406.1,345.2 M1367.2,352.6
		c0.6-3,3.1-5.2,6.7-5.2c3.7,0,6.2,2.2,6.9,5.3c0.2,0.7,0.2,2.2,0.2,3.8c0,0.2-0.1,0.2-0.2,0.2H1367c-0.1,0-0.2,0-0.2-0.2
		C1366.9,354.8,1366.9,353.5,1367.2,352.6z M1374.2,368.6c-3.8,0-6.5-2.2-7.1-5.3c-0.2-0.9-0.2-2.3-0.2-4.3c0-0.1,0.1-0.2,0.2-0.2
		h16.1c0.3,0,0.6-0.2,0.6-0.7c0-2.8-0.1-4-0.3-5.3c-0.8-4.7-4.1-7.8-9.5-7.8c-4.8,0-8.2,2.8-9.3,6.9c-0.4,1.5-0.4,3.3-0.4,6
		c0,2.7,0.2,4.9,0.7,6.6c1.2,3.8,4.4,6.3,9.1,6.3c4.4,0,7.6-2.2,9-5.5c0.2-0.3,0-0.6-0.3-0.8l-0.9-0.3c-0.3-0.2-0.6-0.1-0.8,0.3
		C1379.9,367,1377.5,368.6,1374.2,368.6 M1352,345.3c-3.1,0-5.3,1.6-6.6,4.1c0,0.2-0.2,0.2-0.2,0v-3.3c0-0.3-0.2-0.6-0.6-0.6h-1.4
		c-0.3,0-0.6,0.2-0.6,0.6v23.8c0,0.3,0.2,0.6,0.6,0.6h1.4c0.3,0,0.6-0.2,0.6-0.6v-14.7c0-3.9,2.7-7.1,6.4-7.1c1-0.1,1.8,0.1,2.4,0.3
		c0.4,0.1,0.6,0,0.7-0.3l0.4-1.4c0.1-0.3,0-0.6-0.3-0.7C1354.1,345.6,1353.3,345.3,1352,345.3 M1313.5,352.6c0.6-3,3.1-5.2,6.7-5.2
		c3.7,0,6.2,2.2,6.9,5.3c0.1,0.7,0.2,2.2,0.2,3.8c0,0.2-0.1,0.2-0.2,0.2h-13.8c-0.1,0-0.2,0-0.2-0.2
		C1313.2,354.8,1313.3,353.5,1313.5,352.6z M1320.6,368.6c-3.8,0-6.5-2.2-7.1-5.3c-0.2-0.9-0.2-2.3-0.2-4.3c0-0.1,0.1-0.2,0.2-0.2
		h16.1c0.3,0,0.6-0.2,0.6-0.7c0-2.8,0-4-0.3-5.3c-0.8-4.7-4.1-7.8-9.5-7.8c-4.8,0-8.2,2.8-9.3,6.9c-0.4,1.5-0.4,3.3-0.4,6
		c0,2.7,0.1,4.9,0.7,6.6c1.2,3.8,4.4,6.3,9.1,6.3c4.4,0,7.6-2.2,9-5.5c0.1-0.3,0-0.6-0.3-0.8l-0.9-0.3c-0.3-0.2-0.6-0.1-0.8,0.3
		C1326.2,367,1323.8,368.6,1320.6,368.6 M1295.5,370.5h1.4c0.3,0,0.6-0.2,0.6-0.6v-23.8c0-0.3-0.2-0.6-0.6-0.6h-1.4
		c-0.3,0-0.6,0.2-0.6,0.6v23.8C1295,370.3,1295.2,370.5,1295.5,370.5 M1296.2,340.5c1.3,0,2.3-0.9,2.3-2.2c0-1.2-0.9-2.1-2.3-2.1
		c-1.3,0-2.3,0.9-2.3,2.1C1294,339.6,1295,340.5,1296.2,340.5 M1282.3,347.1v-1c0-0.3-0.2-0.6-0.6-0.6h-5.7c-0.1,0-0.2-0.1-0.2-0.2
		v-5.6c0-0.3-0.2-0.6-0.6-0.6h-1.4c-0.3,0-0.6,0.2-0.6,0.6v5.6c0,0.1-0.1,0.2-0.2,0.2h-2.9c-0.3,0-0.6,0.2-0.6,0.6v1
		c0,0.3,0.2,0.6,0.6,0.6h2.9c0.1,0,0.2,0.1,0.2,0.2v16.3c0.1,5.1,2.9,6.3,7,6.3c0.4,0,0.9,0,1.4,0c0.4,0,0.6-0.2,0.6-0.6v-1.1
		c0-0.3-0.2-0.6-0.6-0.6h-1c-3.2,0-4.8-1.1-4.8-4.6v-15.6c0-0.1,0.1-0.2,0.2-0.2h5.7C1282.1,347.7,1282.3,347.5,1282.3,347.1
		 M1250.3,345.2c-3.1,0-5.6,1.2-7,3.4c-0.1,0.2-0.2,0.1-0.2-0.1v-2.3c0-0.3-0.2-0.6-0.6-0.6h-1.4c-0.3,0-0.6,0.2-0.6,0.6v23.8
		c0,0.3,0.2,0.6,0.6,0.6h1.4c0.3,0,0.6-0.2,0.6-0.6V354c0-3.9,2.7-6.5,6.7-6.5c3.8,0,6.4,2.7,6.4,6.6v15.8c0,0.3,0.2,0.6,0.6,0.6
		h1.4c0.3,0,0.6-0.2,0.6-0.6v-16.3C1258.8,348.5,1255.4,345.2,1250.3,345.2 M1218,368.6c-3.7,0-6.2-2.1-7-5.3
		c-0.2-1.1-0.3-2.9-0.3-5.3c0-2.3,0-4.2,0.3-5.3c0.7-3.2,3.3-5.3,6.9-5.3c3.6,0,6.2,2.1,7,5.3c0.2,1.1,0.3,2.8,0.3,5.3
		c0,2.2-0.1,4.1-0.3,5.3C1224.1,366.5,1221.5,368.6,1218,368.6 M1218,370.9c4.7,0,8.2-2.7,9.3-6.7c0.4-1.6,0.5-3.6,0.5-6.2
		c0-2.5-0.1-4.5-0.5-6.2c-1.1-4-4.6-6.7-9.3-6.7c-4.8,0-8.2,2.7-9.4,6.7c-0.4,1.6-0.5,3.5-0.5,6.2c0,2.5,0.1,4.6,0.6,6.2
		C1209.8,368.2,1213.2,370.9,1218,370.9 M1187.8,345.2c-3.4,0-6.3,1.4-7.6,4.3c-0.1,0.1-0.2,0.1-0.2,0c-1.2-2.7-3.8-4.3-7.2-4.3
		c-2.9,0-5.4,1-6.8,3.2c-0.1,0.1-0.2,0-0.2-0.1v-2.1c0-0.3-0.2-0.6-0.6-0.6h-1.4c-0.3,0-0.6,0.2-0.6,0.6v23.8c0,0.3,0.2,0.6,0.6,0.6
		h1.4c0.3,0,0.6-0.2,0.6-0.6v-16.2c0-3.9,2.5-6.2,6.4-6.2c3.6,0,6.1,2.4,6.1,6.3v16.1c0,0.3,0.2,0.6,0.6,0.6h1.4
		c0.3,0,0.6-0.2,0.6-0.6v-16.2c0-3.9,2.6-6.2,6.4-6.2c3.6,0,6.2,2.4,6.2,6.3v16.1c0,0.3,0.2,0.6,0.6,0.6h1.4c0.3,0,0.6-0.2,0.6-0.6
		v-16.6C1195.8,348.2,1192.7,345.2,1187.8,345.2 M1126.7,345.2c-3.1,0-5.6,1.2-7,3.4c-0.1,0.2-0.2,0.1-0.2-0.1v-12.1
		c0-0.3-0.2-0.6-0.6-0.6h-1.4c-0.3,0-0.6,0.2-0.6,0.6v33.5c0,0.3,0.2,0.6,0.6,0.6h1.4c0.3,0,0.6-0.2,0.6-0.6V354
		c0-3.9,2.7-6.5,6.7-6.5c3.8,0,6.4,2.7,6.4,6.6v15.8c0,0.3,0.2,0.6,0.6,0.6h1.4c0.3,0,0.6-0.2,0.6-0.6v-16.3
		C1135.2,348.5,1131.8,345.2,1126.7,345.2 M1095.5,370.9c4.8,0,8.4-2.6,9.3-6.3c0.1-0.3,0.2-0.6,0.2-0.8c0.1-0.4-0.2-0.6-0.5-0.7
		l-1.3-0.2c-0.3,0-0.6,0.1-0.7,0.4l0,0.2c-0.5,2.8-3.2,5-6.9,5c-3.7,0-6.2-2.1-6.8-5.3c-0.2-1-0.4-2.7-0.4-5.3
		c0-2.4,0.2-4.3,0.4-5.3c0.6-3.1,3.1-5.3,6.8-5.3c3.7,0,6.3,2.2,6.9,4.9c0,0.2,0.1,0.4,0.1,0.6c0.1,0.4,0.3,0.6,0.7,0.5l1.4-0.2
		c0.3-0.1,0.6-0.2,0.5-0.6c0-0.3-0.1-0.8-0.3-1.3c-0.9-3.4-4.5-6.2-9.3-6.2c-4.8,0-8.2,2.7-9.3,6.7c-0.4,1.5-0.6,3.3-0.6,6.2
		c0,2.6,0.2,4.6,0.6,6.2C1087.3,368.2,1090.7,370.9,1095.5,370.9 M1063.3,368.6c-3.3,0-6-1.5-6-4.9c0-3.6,3.2-5.6,7.9-5.6h5.7
		c0.1,0,0.2,0.1,0.2,0.2v4.5C1071.1,366.7,1067.2,368.6,1063.3,368.6 M1064.8,345.1c-4.9,0-8.4,2.4-9,5.9c0,0.3,0.2,0.5,0.5,0.5
		l1.5,0.2c0.3,0.1,0.6-0.1,0.7-0.5c0.5-2.3,2.8-3.8,6.2-3.8c4.6,0,6.3,2.5,6.3,6.1v2.2c0,0.1-0.1,0.2-0.2,0.2h-6
		c-6.4,0-10.2,3-10.2,7.9c0,5.2,4,7,8.1,7c3.2,0,6.2-1.1,8-3.2c0.1-0.2,0.2-0.1,0.2,0.1v2.1c0,0.3,0.2,0.6,0.6,0.6h1.4
		c0.3,0,0.6-0.2,0.6-0.6v-16.5C1073.7,348.5,1070.7,345.1,1064.8,345.1 M1044.5,338.1h1c0.3,0,0.6-0.2,0.6-0.6v-1.1
		c0-0.3-0.2-0.6-0.6-0.6h-1.2c-5.9,0-7.5,2.6-7.5,8.1v1.4c0,0.1-0.1,0.2-0.2,0.2h-3.2c-0.3,0-0.6,0.2-0.6,0.6v1.2
		c0,0.3,0.2,0.6,0.6,0.6h3.2c0.1,0,0.2,0.1,0.2,0.2v21.8c0,0.3,0.2,0.6,0.6,0.6h1.4c0.3,0,0.6-0.2,0.6-0.6v-21.8
		c0-0.1,0.1-0.2,0.2-0.2h5.7c0.3,0,0.6-0.2,0.6-0.6v-1.2c0-0.3-0.2-0.6-0.6-0.6h-5.7c-0.1,0-0.2-0.1-0.2-0.2V344
		C1039.4,340.1,1040.3,338.1,1044.5,338.1 M1013.7,345.2c-3.1,0-5.6,1.2-7,3.4c-0.1,0.2-0.2,0.1-0.2-0.1v-2.3c0-0.3-0.2-0.6-0.6-0.6
		h-1.4c-0.3,0-0.6,0.2-0.6,0.6v23.8c0,0.3,0.2,0.6,0.6,0.6h1.4c0.3,0,0.6-0.2,0.6-0.6V354c0-3.9,2.7-6.5,6.7-6.5
		c3.8,0,6.4,2.7,6.4,6.6v15.8c0,0.3,0.2,0.6,0.6,0.6h1.4c0.3,0,0.6-0.2,0.6-0.6v-16.3C1022.2,348.5,1018.8,345.2,1013.7,345.2
		 M988,370.5h1.4c0.3,0,0.6-0.2,0.6-0.6v-23.8c0-0.3-0.2-0.6-0.6-0.6H988c-0.3,0-0.6,0.2-0.6,0.6v23.8
		C987.4,370.3,987.7,370.5,988,370.5 M988.7,340.5c1.3,0,2.3-0.9,2.3-2.2c0-1.2-0.9-2.1-2.3-2.1c-1.3,0-2.3,0.9-2.3,2.1
		C986.5,339.6,987.4,340.5,988.7,340.5 M958,352.6c0.6-3,3.1-5.2,6.7-5.2c3.7,0,6.2,2.2,6.9,5.3c0.1,0.7,0.2,2.2,0.2,3.8
		c0,0.2-0.1,0.2-0.2,0.2h-13.8c-0.1,0-0.2,0-0.2-0.2C957.7,354.8,957.8,353.5,958,352.6z M965.1,368.6c-3.8,0-6.5-2.2-7.1-5.3
		c-0.2-0.9-0.2-2.3-0.2-4.3c0-0.1,0.1-0.2,0.2-0.2H974c0.3,0,0.6-0.2,0.6-0.7c0-2.8,0-4-0.3-5.3c-0.8-4.7-4.1-7.8-9.5-7.8
		c-4.8,0-8.2,2.8-9.3,6.9c-0.4,1.5-0.4,3.3-0.4,6c0,2.7,0.1,4.9,0.7,6.6c1.2,3.8,4.4,6.3,9.1,6.3c4.4,0,7.6-2.2,9-5.5
		c0.1-0.3,0-0.6-0.3-0.8l-0.9-0.3c-0.3-0.2-0.6-0.1-0.8,0.3C970.7,367,968.3,368.6,965.1,368.6 M912.6,368.6c-4.4,0.1-7.2-2-7.2-5.7
		c0-3.9,3.1-6.4,6.4-8.9c0.1-0.1,0.2-0.1,0.2,0l4.7,5.5c0.8,0.9,0.9,1.1,4,4.7c0.1,0.1,0.1,0.2,0,0.3
		C918.1,367.2,915.7,368.5,912.6,368.6z M913.4,337.9c3.2,0,5.4,1.8,5.4,4.7c0,3.3-2.8,5.6-6.2,7.9c-0.1,0-0.2,0-0.3-0.1
		c-3.7-4.6-4.3-6-4.3-7.6C908,339.7,910.2,337.9,913.4,337.9L913.4,337.9z M928.5,369.8c-0.8-0.9-1.9-2.3-4.1-4.9
		c-0.2-0.3-0.2-0.4-0.2-0.5c1.2-1.4,2.4-3,3.8-4.9c0.2-0.3,0.1-0.6-0.2-0.8l-1-0.6c-0.3-0.2-0.6-0.2-0.8,0.1c-1.2,1.6-2.3,3-3.3,4.3
		c-0.1,0.1-0.2,0.1-0.3,0c-0.7-1-1.6-2.1-2.7-3.3c-2.2-2.6-4-4.7-5.5-6.5c-0.1-0.1-0.1-0.2,0-0.2c3.8-2.6,7.2-5.4,7.2-9.8
		c0-4.3-3.3-7.2-8.1-7.2c-4.7,0-7.9,3-7.9,7.4c0,2.3,0.9,4.1,4.9,9c0.1,0.1,0.1,0.2,0,0.2c-3.8,2.8-7.5,5.9-7.5,11
		c0,5.2,3.9,7.8,9.5,7.8c4,0,6.8-1.3,10.1-4.5c0.1-0.1,0.2-0.1,0.3,0l3.1,3.8c0.2,0.2,0.4,0.3,0.7,0.3h1.6
		C928.6,370.5,928.8,370.2,928.5,369.8 M867.7,345.2c-3.1,0-5.6,1.2-7,3.4c-0.1,0.2-0.2,0.1-0.2-0.1v-2.3c0-0.3-0.2-0.6-0.6-0.6
		h-1.4c-0.3,0-0.6,0.2-0.6,0.6v23.8c0,0.3,0.2,0.6,0.6,0.6h1.4c0.3,0,0.6-0.2,0.6-0.6V354c0-3.9,2.7-6.5,6.7-6.5
		c3.8,0,6.4,2.7,6.4,6.6v15.8c0,0.3,0.2,0.6,0.6,0.6h1.4c0.3,0,0.6-0.2,0.6-0.6v-16.3C876.2,348.5,872.7,345.2,867.7,345.2
		 M828.8,352.6c0.6-3,3.1-5.2,6.7-5.2c3.7,0,6.2,2.2,6.9,5.3c0.1,0.7,0.2,2.2,0.2,3.8c0,0.2-0.1,0.2-0.2,0.2h-13.8
		c-0.1,0-0.2,0-0.2-0.2C828.5,354.8,828.5,353.5,828.8,352.6z M835.8,368.6c-3.8,0-6.5-2.2-7.1-5.3c-0.2-0.9-0.2-2.3-0.2-4.3
		c0-0.1,0.1-0.2,0.2-0.2h16.1c0.3,0,0.6-0.2,0.6-0.7c0-2.8,0-4-0.3-5.3c-0.8-4.7-4.1-7.8-9.5-7.8c-4.8,0-8.2,2.8-9.3,6.9
		c-0.4,1.5-0.4,3.3-0.4,6c0,2.7,0.1,4.9,0.7,6.6c1.2,3.8,4.4,6.3,9.1,6.3c4.4,0,7.6-2.2,9-5.5c0.1-0.3,0-0.6-0.3-0.8l-0.9-0.3
		c-0.3-0.2-0.6-0.1-0.8,0.3C841.5,367,839.1,368.6,835.8,368.6 M815.3,347.1v-1c0-0.3-0.2-0.6-0.6-0.6H809c-0.1,0-0.2-0.1-0.2-0.2
		v-5.6c0-0.3-0.2-0.6-0.6-0.6h-1.4c-0.3,0-0.6,0.2-0.6,0.6v5.6c0,0.1-0.1,0.2-0.2,0.2h-2.9c-0.3,0-0.6,0.2-0.6,0.6v1
		c0,0.3,0.2,0.6,0.6,0.6h2.9c0.1,0,0.2,0.1,0.2,0.2v16.3c0,5.1,2.9,6.3,7,6.3c0.4,0,0.9,0,1.4,0c0.4,0,0.6-0.2,0.6-0.6v-1.1
		c0-0.3-0.2-0.6-0.6-0.6h-1c-3.2,0-4.8-1.1-4.8-4.6v-15.6c0-0.1,0.1-0.2,0.2-0.2h5.7C815,347.7,815.3,347.5,815.3,347.1
		 M789.4,370.5h1.4c0.3,0,0.6-0.2,0.6-0.6v-33.6c0-0.3-0.2-0.6-0.6-0.6h-1.4c-0.3,0-0.6,0.2-0.6,0.6v33.6
		C788.8,370.3,789,370.5,789.4,370.5 M765.7,368.6c-3.3,0-6-1.5-6-4.9c0-3.6,3.2-5.6,7.9-5.6h5.7c0.1,0,0.2,0.1,0.2,0.2v4.5
		C773.4,366.7,769.6,368.6,765.7,368.6 M767.1,345.1c-4.9,0-8.4,2.4-9,5.9c0,0.3,0.2,0.5,0.5,0.5l1.5,0.2c0.3,0.1,0.6-0.1,0.7-0.5
		c0.5-2.3,2.8-3.8,6.2-3.8c4.6,0,6.3,2.5,6.3,6.1v2.2c0,0.1-0.1,0.2-0.2,0.2h-6c-6.4,0-10.2,3-10.2,7.9c0,5.2,4,7,8.1,7
		c3.2,0,6.2-1.1,8-3.2c0.2-0.2,0.2-0.1,0.2,0.1v2.1c0,0.3,0.2,0.6,0.6,0.6h1.4c0.3,0,0.6-0.2,0.6-0.6v-16.5
		C776.1,348.5,773.1,345.1,767.1,345.1 M746.6,347.1v-1c0-0.3-0.2-0.6-0.6-0.6h-5.7c-0.1,0-0.2-0.1-0.2-0.2v-5.6
		c0-0.3-0.2-0.6-0.6-0.6h-1.4c-0.3,0-0.6,0.2-0.6,0.6v5.6c0,0.1-0.1,0.2-0.2,0.2h-2.9c-0.3,0-0.6,0.2-0.6,0.6v1
		c0,0.3,0.2,0.6,0.6,0.6h2.9c0.1,0,0.2,0.1,0.2,0.2v16.3c0.1,5.1,2.9,6.3,7,6.3c0.4,0,0.9,0,1.4,0c0.4,0,0.6-0.2,0.6-0.6v-1.1
		c0-0.3-0.2-0.6-0.6-0.6h-1c-3.2,0-4.8-1.1-4.8-4.6v-15.6c0-0.1,0.1-0.2,0.2-0.2h5.7C746.4,347.7,746.6,347.5,746.6,347.1
		 M715.5,370.8c5.4,0,8.9-2.8,8.9-6.9c0-4.7-4.6-6-8.8-7.2c-3.5-1-6.4-2-6.4-4.8c0-2.6,2.5-4.3,6.2-4.3c4,0,6.4,2,6.4,4.4v0.3
		c0,0.2,0.2,0.3,0.6,0.3h1.3c0.3,0,0.6-0.2,0.6-0.6v0c0-3.8-3.5-6.6-8.9-6.6c-5.2,0-8.7,2.6-8.7,6.6c0,4.5,4.3,5.9,8.5,7.2
		c3.5,1,6.7,1.9,6.7,4.9c0,2.6-2.5,4.7-6.3,4.7c-3.9,0-6.4-2.1-6.4-4.5v-0.5c0-0.3-0.2-0.5-0.6-0.5H707c-0.3,0-0.6,0.2-0.6,0.6v0.5
		C706.4,367.8,710,370.8,715.5,370.8 M678.6,352.6c0.6-3,3.1-5.2,6.7-5.2c3.7,0,6.2,2.2,6.9,5.3c0.1,0.7,0.2,2.2,0.2,3.8
		c0,0.2-0.1,0.2-0.2,0.2h-13.8c-0.1,0-0.2,0-0.2-0.2C678.3,354.8,678.4,353.5,678.6,352.6z M685.7,368.6c-3.8,0-6.5-2.2-7.1-5.3
		c-0.2-0.9-0.2-2.3-0.2-4.3c0-0.1,0.1-0.2,0.2-0.2h16.1c0.3,0,0.6-0.2,0.6-0.7c0-2.8,0-4-0.3-5.3c-0.8-4.7-4.1-7.8-9.5-7.8
		c-4.8,0-8.2,2.8-9.3,6.9c-0.4,1.5-0.4,3.3-0.4,6c0,2.7,0.1,4.9,0.7,6.6c1.2,3.8,4.4,6.3,9.1,6.3c4.4,0,7.6-2.2,9-5.5
		c0.1-0.3,0-0.6-0.3-0.8l-0.9-0.3c-0.3-0.2-0.6-0.1-0.8,0.3C691.4,367,689,368.6,685.7,368.6 M660.6,363.2c-0.5,2.8-2.7,5.3-6.4,5.3
		c-3.6,0-6.1-2.3-6.8-5.3c-0.2-0.7-0.4-2.3-0.4-5.3s0.1-4.3,0.4-5.3c0.8-2.9,3.1-5.3,6.8-5.3c3.6,0,5.9,2.4,6.4,5.3
		c0.2,1,0.2,1.5,0.2,5.3C660.9,361.8,660.8,362.3,660.6,363.2 M660.9,346.1v2.3c0,0.2-0.1,0.2-0.2,0.1c-1.4-2.1-3.7-3.4-6.9-3.4
		c-4.5,0-7.7,2.7-8.7,6.5c-0.5,1.7-0.6,3.8-0.6,6.4c0,2.6,0.2,4.6,0.5,6.1c1.1,4.2,4.6,6.6,8.9,6.6c3.3,0,5.5-1.4,6.8-3.4
		c0.1-0.2,0.2-0.1,0.2,0.1v2.5c0,5.7-3,8.2-10.1,8c-0.4,0-0.6,0.2-0.6,0.5l-0.1,1.2c0,0.3,0.2,0.6,0.6,0.6
		c7.8,0.3,12.8-2.7,12.8-10.4v-23.9c0-0.3-0.2-0.6-0.6-0.6h-1.4C661.1,345.5,660.9,345.8,660.9,346.1 M615.2,370.5h1.4
		c0.3,0,0.6-0.2,0.6-0.6v-33.6c0-0.3-0.2-0.6-0.6-0.6h-1.4c-0.3,0-0.6,0.2-0.6,0.6v33.6C614.6,370.3,614.8,370.5,615.2,370.5
		 M599.1,370.5h1.4c0.3,0,0.6-0.2,0.6-0.6v-33.6c0-0.3-0.2-0.6-0.6-0.6h-1.4c-0.3,0-0.6,0.2-0.6,0.6v33.6
		C598.5,370.3,598.7,370.5,599.1,370.5 M569.5,352.6c0.6-3,3.1-5.2,6.7-5.2c3.7,0,6.2,2.2,6.9,5.3c0.2,0.7,0.2,2.2,0.2,3.8
		c0,0.2-0.1,0.2-0.2,0.2h-13.8c-0.1,0-0.2,0-0.2-0.2C569.2,354.8,569.2,353.5,569.5,352.6z M576.5,368.6c-3.8,0-6.5-2.2-7.1-5.3
		c-0.2-0.9-0.2-2.3-0.2-4.3c0-0.1,0.1-0.2,0.2-0.2h16.1c0.3,0,0.6-0.2,0.6-0.7c0-2.8-0.1-4-0.3-5.3c-0.8-4.7-4.1-7.8-9.5-7.8
		c-4.8,0-8.2,2.8-9.3,6.9c-0.4,1.5-0.4,3.3-0.4,6c0,2.7,0.2,4.9,0.7,6.6c1.2,3.8,4.4,6.3,9.1,6.3c4.4,0,7.6-2.2,9-5.5
		c0.2-0.3,0-0.6-0.3-0.8l-0.9-0.3c-0.3-0.2-0.6-0.1-0.8,0.3C582.2,367,579.8,368.6,576.5,368.6 M551.3,346.1V362
		c0,3.9-2.6,6.5-6.7,6.5c-3.9,0-6.5-2.6-6.5-6.5v-15.9c0-0.3-0.2-0.6-0.6-0.6h-1.4c-0.3,0-0.6,0.2-0.6,0.6v16.6
		c0,5.2,3.8,8.2,8.5,8.2c3.2,0,5.6-1.2,6.9-3.3c0.1-0.2,0.2-0.1,0.2,0.1v2.3c0,0.3,0.2,0.6,0.6,0.6h1.4c0.3,0,0.6-0.2,0.6-0.6v-23.8
		c0-0.3-0.2-0.6-0.6-0.6h-1.4C551.5,345.5,551.3,345.8,551.3,346.1 M519.2,363.9c-0.7,2.6-2.8,4.7-6,4.7c-3.3,0-5.8-1.9-6.5-4.7
		c-0.4-1.2-0.6-2.3-0.6-5.9c0-3.8,0.3-4.9,0.8-6.1c0.7-2.6,3.1-4.5,6.3-4.5c3.2,0,5.3,2,6,4.6c0.4,1.2,0.6,2.3,0.6,6.1
		C519.8,361.7,519.6,362.8,519.2,363.9 M519.9,336.4v12c0,0.2-0.1,0.2-0.2,0.1c-1.4-2.1-3.8-3.4-6.7-3.4c-4.7,0-7.9,2.7-8.9,6.7
		c-0.4,1.7-0.5,3.7-0.5,6.3c0,2.6,0.1,4.6,0.5,6.3c1.1,4,4.3,6.6,8.9,6.6c2.9,0,5.3-1.2,6.7-3.4c0.1-0.1,0.2-0.1,0.2,0.1v2.3
		c0,0.3,0.2,0.6,0.6,0.6h1.4c0.3,0,0.6-0.2,0.6-0.6v-33.5c0-0.3-0.2-0.6-0.6-0.6h-1.4C520.1,335.8,519.9,336,519.9,336.4
		 M488.6,370.5h1.4c0.3,0,0.6-0.2,0.6-0.6v-23.8c0-0.3-0.2-0.6-0.6-0.6h-1.4c-0.3,0-0.6,0.2-0.6,0.6v23.8
		C488,370.3,488.3,370.5,488.6,370.5 M489.3,340.5c1.3,0,2.3-0.9,2.3-2.2c0-1.2-0.9-2.1-2.3-2.1c-1.3,0-2.3,0.9-2.3,2.1
		C487,339.6,488,340.5,489.3,340.5 M466.1,370.5h1.8c0.3,0,0.5-0.2,0.6-0.5l8.1-23.8c0.1-0.4-0.1-0.7-0.4-0.7l-1.7,0
		c-0.3,0-0.5,0.2-0.6,0.5l-6.7,20.5c0,0.1-0.2,0.1-0.3,0l-6.7-20.5c-0.1-0.3-0.3-0.5-0.6-0.5h-1.7c-0.4,0-0.6,0.2-0.4,0.7l8.1,23.8
		C465.5,370.3,465.7,370.5,466.1,370.5 M443.9,370.5h1.4c0.3,0,0.6-0.2,0.6-0.6v-23.8c0-0.3-0.2-0.6-0.6-0.6h-1.4
		c-0.3,0-0.6,0.2-0.6,0.6v23.8C443.4,370.3,443.6,370.5,443.9,370.5 M444.6,340.5c1.3,0,2.3-0.9,2.3-2.2c0-1.2-0.9-2.1-2.3-2.1
		c-1.3,0-2.3,0.9-2.3,2.1C442.4,339.6,443.4,340.5,444.6,340.5 M426.2,363.9c-0.7,2.6-2.8,4.7-6,4.7c-3.3,0-5.8-1.9-6.5-4.7
		c-0.4-1.2-0.6-2.3-0.6-5.9c0-3.8,0.3-4.9,0.8-6.1c0.7-2.6,3.1-4.5,6.3-4.5c3.2,0,5.3,2,6,4.6c0.4,1.2,0.6,2.3,0.6,6.1
		C426.8,361.7,426.6,362.8,426.2,363.9 M426.9,336.4v12c0,0.2-0.1,0.2-0.2,0.1c-1.4-2.1-3.8-3.4-6.7-3.4c-4.7,0-7.9,2.7-8.9,6.7
		c-0.4,1.7-0.5,3.7-0.5,6.3c0,2.6,0.1,4.6,0.5,6.3c1.1,4,4.3,6.6,8.9,6.6c2.9,0,5.3-1.2,6.7-3.4c0.1-0.1,0.2-0.1,0.2,0.1v2.3
		c0,0.3,0.2,0.6,0.6,0.6h1.4c0.3,0,0.6-0.2,0.6-0.6v-33.5c0-0.3-0.2-0.6-0.6-0.6h-1.4C427.1,335.8,426.9,336,426.9,336.4
		 M389.9,345.2c-3.1,0-5.6,1.2-7,3.4c-0.1,0.2-0.2,0.1-0.2-0.1v-2.3c0-0.3-0.2-0.6-0.6-0.6h-1.4c-0.3,0-0.6,0.2-0.6,0.6v23.8
		c0,0.3,0.2,0.6,0.6,0.6h1.4c0.3,0,0.6-0.2,0.6-0.6V354c0-3.9,2.7-6.5,6.7-6.5c3.8,0,6.4,2.7,6.4,6.6v15.8c0,0.3,0.2,0.6,0.6,0.6
		h1.4c0.3,0,0.6-0.2,0.6-0.6v-16.3C398.3,348.5,394.9,345.2,389.9,345.2 M364.1,370.5h1.4c0.3,0,0.6-0.2,0.6-0.6v-23.8
		c0-0.3-0.2-0.6-0.6-0.6h-1.4c-0.3,0-0.6,0.2-0.6,0.6v23.8C363.5,370.3,363.8,370.5,364.1,370.5 M364.8,340.5c1.3,0,2.3-0.9,2.3-2.2
		c0-1.2-0.9-2.1-2.3-2.1c-1.3,0-2.3,0.9-2.3,2.1C362.6,339.6,363.5,340.5,364.8,340.5 M319.4,352.6c0.6-3,3.1-5.2,6.7-5.2
		c3.7,0,6.2,2.2,6.9,5.3c0.1,0.7,0.2,2.2,0.2,3.8c0,0.2-0.1,0.2-0.2,0.2h-13.8c-0.1,0-0.2,0-0.2-0.2
		C319.1,354.8,319.1,353.5,319.4,352.6z M326.4,368.6c-3.8,0-6.5-2.2-7.1-5.3c-0.2-0.9-0.2-2.3-0.2-4.3c0-0.1,0.1-0.2,0.2-0.2h16.1
		c0.3,0,0.6-0.2,0.6-0.7c0-2.8,0-4-0.3-5.3c-0.8-4.7-4.1-7.8-9.5-7.8c-4.8,0-8.2,2.8-9.3,6.9c-0.4,1.5-0.4,3.3-0.4,6
		c0,2.7,0.1,4.9,0.7,6.6c1.2,3.8,4.4,6.3,9.1,6.3c4.4,0,7.6-2.2,9-5.5c0.1-0.3,0-0.6-0.3-0.8l-0.9-0.3c-0.3-0.2-0.6-0.1-0.8,0.3
		C332.1,367,329.7,368.6,326.4,368.6 M300.5,363.9c-0.7,2.6-2.8,4.7-6,4.7c-3.3,0-5.8-1.9-6.5-4.7c-0.4-1.2-0.6-2.3-0.6-5.9
		c0-3.8,0.3-4.9,0.8-6.1c0.7-2.6,3.1-4.5,6.3-4.5c3.2,0,5.3,2,6,4.6c0.4,1.2,0.6,2.3,0.6,6.1C301.1,361.7,300.9,362.8,300.5,363.9
		 M301.2,336.4v12c0,0.2-0.1,0.2-0.2,0.1c-1.4-2.1-3.8-3.4-6.7-3.4c-4.7,0-7.9,2.7-8.9,6.7c-0.4,1.7-0.5,3.7-0.5,6.3
		c0,2.6,0.1,4.6,0.5,6.3c1.1,4,4.3,6.6,8.9,6.6c2.9,0,5.3-1.2,6.7-3.4c0.1-0.1,0.2-0.1,0.2,0.1v2.3c0,0.3,0.2,0.6,0.6,0.6h1.4
		c0.3,0,0.6-0.2,0.6-0.6v-33.5c0-0.3-0.2-0.6-0.6-0.6h-1.4C301.4,335.8,301.2,336,301.2,336.4 M264.1,345.2c-3.1,0-5.6,1.2-7,3.4
		c-0.1,0.2-0.2,0.1-0.2-0.1v-2.3c0-0.3-0.2-0.6-0.6-0.6h-1.4c-0.3,0-0.6,0.2-0.6,0.6v23.8c0,0.3,0.2,0.6,0.6,0.6h1.4
		c0.3,0,0.6-0.2,0.6-0.6V354c0-3.9,2.7-6.5,6.7-6.5c3.8,0,6.4,2.7,6.4,6.6v15.8c0,0.3,0.2,0.6,0.6,0.6h1.4c0.3,0,0.6-0.2,0.6-0.6
		v-16.3C272.6,348.5,269.2,345.2,264.1,345.2 M231.2,368.6c-3.3,0-6-1.5-6-4.9c0-3.6,3.2-5.6,7.9-5.6h5.7c0.1,0,0.2,0.1,0.2,0.2v4.5
		C238.9,366.7,235.1,368.6,231.2,368.6 M232.6,345.1c-4.9,0-8.4,2.4-9,5.9c-0.1,0.3,0.2,0.5,0.5,0.5l1.5,0.2c0.3,0,0.6-0.2,0.7-0.5
		c0.5-2.3,2.8-3.8,6.2-3.8c4.6,0,6.3,2.5,6.3,6.1v2.2c0,0.1-0.1,0.2-0.2,0.2h-5.9c-6.4,0-10.2,3-10.2,7.9c0,5.2,4,7,8.1,7
		c3.2,0,6.2-1.1,8-3.2c0.1-0.2,0.2-0.1,0.2,0.1v2.1c0,0.3,0.2,0.6,0.6,0.6h1.4c0.3,0,0.6-0.2,0.6-0.6v-16.5
		C241.6,348.5,238.6,345.1,232.6,345.1L232.6,345.1z M236.8,340c1.1,0,2-0.8,2-2c0-1.1-0.8-2-2-2c-1.2,0-2.1,0.9-2.1,2
		C234.7,339.2,235.6,340,236.8,340L236.8,340z M228.7,340c1.2,0,2-0.8,2-2c0-1.1-0.8-2-2-2c-1.2,0-2.1,0.9-2.1,2
		C226.6,339.2,227.5,340,228.7,340L228.7,340z M189.9,370.5h1.5c0.3,0,0.6-0.2,0.7-0.5l5.7-19.7c0.1-0.2,0.2-0.2,0.3,0l5.8,19.7
		c0.1,0.3,0.3,0.5,0.7,0.5h1.5c0.3,0,0.5-0.2,0.6-0.5l7-23.8c0.1-0.4-0.1-0.6-0.5-0.6l-1.4,0c-0.3,0-0.6,0.2-0.7,0.5l-5.7,20.6
		c-0.1,0.1-0.2,0.1-0.3,0l-5.8-20.6c-0.1-0.3-0.3-0.5-0.7-0.5h-1.4c-0.3,0-0.6,0.2-0.7,0.5l-5.7,20.6c0,0.2-0.2,0.2-0.2,0L185,346
		c-0.1-0.3-0.3-0.5-0.7-0.5h-1.4c-0.4,0-0.6,0.3-0.5,0.7l6.9,23.8C189.3,370.3,189.6,370.5,189.9,370.5 M156.2,370.5h1.4
		c0.3,0,0.6-0.2,0.6-0.6v-8.6c0-0.1,0.1-0.2,0.1-0.2l6.1-6.3c0.1-0.1,0.2,0,0.2,0l6.7,15.2c0.2,0.3,0.4,0.4,0.7,0.4h1.5
		c0.4,0,0.6-0.2,0.4-0.7l-7.6-16.7c-0.1-0.1,0-0.2,0-0.2l6.2-6.6c0.3-0.4,0.2-0.7-0.3-0.7h-1.7c-0.3,0-0.5,0.1-0.7,0.3l-11.4,11.8
		c-0.1,0.1-0.2,0.1-0.2-0.1v-21.1c0-0.3-0.2-0.6-0.6-0.6h-1.4c-0.3,0-0.6,0.2-0.6,0.6v33.6C155.7,370.3,155.9,370.5,156.2,370.5
		 M134.3,370.9c4.8,0,8.4-2.6,9.3-6.3c0.1-0.3,0.1-0.6,0.2-0.8c0-0.4-0.2-0.6-0.5-0.7l-1.3-0.2c-0.3,0-0.6,0.1-0.7,0.4l0,0.2
		c-0.5,2.8-3.2,5-6.9,5c-3.7,0-6.2-2.1-6.8-5.3c-0.2-1-0.4-2.7-0.4-5.3c0-2.4,0.2-4.3,0.4-5.3c0.6-3.1,3.1-5.3,6.8-5.3
		c3.7,0,6.3,2.2,6.9,4.9c0,0.2,0.1,0.4,0.1,0.6c0.1,0.4,0.3,0.6,0.7,0.5l1.4-0.2c0.3-0.1,0.6-0.2,0.5-0.6c-0.1-0.3-0.2-0.8-0.3-1.3
		c-0.9-3.4-4.5-6.2-9.3-6.2c-4.8,0-8.2,2.7-9.3,6.7c-0.4,1.5-0.6,3.3-0.6,6.2c0,2.6,0.2,4.6,0.6,6.2
		C126.1,368.2,129.5,370.9,134.3,370.9 M109.2,346.1V362c0,3.9-2.6,6.5-6.7,6.5c-3.9,0-6.4-2.6-6.4-6.5v-15.9c0-0.3-0.2-0.6-0.6-0.6
		h-1.4c-0.3,0-0.6,0.2-0.6,0.6v16.6c0,5.2,3.8,8.2,8.5,8.2c3.2,0,5.6-1.2,6.9-3.3c0.1-0.2,0.2-0.1,0.2,0.1v2.3
		c0,0.3,0.2,0.6,0.6,0.6h1.4c0.3,0,0.6-0.2,0.6-0.6v-23.8c0-0.3-0.2-0.6-0.6-0.6h-1.4C109.4,345.5,109.2,345.8,109.2,346.1
		 M106.9,340.4c1.1,0,2-0.8,2-2c0-1.1-0.8-2-2-2c-1.2,0-2.1,0.9-2.1,2C104.7,339.5,105.6,340.4,106.9,340.4 M98.8,340.4
		c1.2,0,2-0.8,2-2c0-1.1-0.8-2-2-2c-1.2,0-2.1,0.9-2.1,2C96.7,339.5,97.6,340.4,98.8,340.4 M62.2,338.1h9.9c4.1,0,6.9,2.8,6.9,7
		c0,4.1-2.8,6.9-6.9,6.9h-9.9c-0.1,0-0.2-0.1-0.2-0.2v-13.5C62.1,338.2,62.1,338.1,62.2,338.1 M80.1,370.5h1.4
		c0.4,0,0.6-0.2,0.4-0.7l-7.6-15.6c-0.1-0.1,0-0.2,0.1-0.2c4.4-0.7,7.2-4.2,7.2-8.9c0-5.6-3.7-9.3-9.3-9.3H60
		c-0.3,0-0.6,0.2-0.6,0.6v33.6c0,0.3,0.2,0.6,0.6,0.6h1.4c0.3,0,0.6-0.2,0.6-0.6v-15.6c0-0.1,0.1-0.2,0.2-0.2h9.3
		c0.1,0,0.1,0,0.2,0.1l7.6,15.8C79.6,370.4,79.8,370.5,80.1,370.5"/>
</g>
<rect x="607.6" y="7.5" class="st2" width="130" height="276.5"/>
</svg>
